<mxfile host="Electron" modified="2024-01-04T07:25:56.916Z" agent="Mozilla/5.0 (Windows NT 10.0; Win64; x64) AppleWebKit/537.36 (KHTML, like Gecko) draw.io/22.0.2 Chrome/114.0.5735.289 Electron/25.8.4 Safari/537.36" etag="mCNHRwYHiwhgHKEDVW1R" version="22.0.2" type="device">
  <diagram name="第 1 页" id="Ictn2hbTc43NbhWfF7sb">
    <mxGraphModel dx="2358" dy="1180" grid="1" gridSize="10" guides="1" tooltips="1" connect="1" arrows="1" fold="1" page="1" pageScale="1" pageWidth="827" pageHeight="1169" math="0" shadow="0">
      <root>
        <mxCell id="0" />
        <mxCell id="1" parent="0" />
        <mxCell id="b_LKB6QUHwTkPTV8HH8e-1" value="原始tokens" style="rounded=1;whiteSpace=wrap;html=1;" vertex="1" parent="1">
          <mxGeometry x="294" y="10" width="120" height="60" as="geometry" />
        </mxCell>
        <mxCell id="b_LKB6QUHwTkPTV8HH8e-2" value="" style="shape=image;verticalLabelPosition=bottom;labelBackgroundColor=default;verticalAlign=top;aspect=fixed;imageAspect=0;image=data:image/png,iVBORw0KGgoAAAANSUhEUgAAAecAAAEfCAYAAAB7zA4gAAAAAXNSR0IArs4c6QAAAARnQU1BAACxjwv8YQUAAAAJcEhZcwAADsMAAA7DAcdvqGQAAABhaVRYdFNuaXBNZXRhZGF0YQAAAAAAeyJjbGlwUG9pbnRzIjpbeyJ4IjowLCJ5IjowfSx7IngiOjQ4NywieSI6MH0seyJ4Ijo0ODcsInkiOjI4N30seyJ4IjowLCJ5IjoyODd9XX1MbTdDAABMHUlEQVR4Xu29D3QU153v+c2GBy8hNsYI2cgrhHxCrCwMjvVW5MBDZ8ZgQAwahDGZ2B5weD6MDc8MsgXnzZxZGzswO2d3I2SkkJXtMDwSs46TYIwYycgQ48yRV5ygjWwYtCEhx5LQM7IFmGCWl8XLO+z93brVXdVd1X9L6lLz/fiU6brVVV19q1Xf+/vdW/f7hRsKkDjOH1yHireXoOsHNZhsypLy/k5MexDY37cB5aaIhI3zaHmqAocWd+GlZSlfWUIIGVH+O/NvFnRj57RpmKaXnWpNkBvgOrQM6hWNiN26g+fVK+v91mvFYAvWqfWd70dfW8dSS5N1NAs5pr3NfWxP5FhPtai9HHiVpUn0e+SW7qZoPYXhfDyRxorrGvoj30f/BvIC52/V/ptInVxdW69rYJfJ794+p/jzct4D1JLiNSeE+BOAOAubVbTYh75UI8alVUDfgH55vmsAM+vUus3SRnTpY+3H5oYVjpvFZNT8QMq70LjUFGXCPcUpRcKTl72EvnSiZuG+DanXQTaoRsYrv7XrqY8RYFpYv6PhrTP7t6p+w6YkZUJ3batQfKd51dSlz0n+Bpe8XWEEWhoiK4A3rfPVy0bmjQjJloDEOQ0GB3AKS9R/naq9fR6dfcWYOw04NRAbIZRjbp1XeYpMKcbMtgFYTQAPJKpztPajjQBHFOCMsk1UX7GxHe0bK8x+dgTvHylJxLHzoCMj4IoqYiIOtaQUKX08gHavRobrOznOQ0ewLelFczFZBmfGoLtJfe+D0c9ynbOpJ73twXpTqHCWO/cx57yiAah/0N4ec+72fqlmPVz14MiyOMrj69nnWsh5+9Wd63MCivw9r62c205V59Ho1fP36ijX16tpp1XnkfNPfN2Lp1Wl+PemGh9rN6P97c7UrgchJG2GUZzbUTsnetMQUYugbj41lUDnwU4MTJuL8uKZZoOTbnQ2VGFJRfaRQyRdJzc+q8hEuXZrfz/woH3jKscGKTvWqGIGB1Nq8JIq72qqckQQL6FmimxMHCnVbxzAE+ZzNje8EhGL7qYVOGUf602159JGbEsUKdkCJ6LXsMLUrTlv2ab7u+Vz5HjACqeYNRwCnrW2dTWdwitx4pQO6tq+XRzJcMzc+Jz5Tkoo5hzCkmP2OThqw9SfVW8SeZl9zHXYrxpimyPRl8k+yHfaZX+OOu/Fh1CRNGWqGkq7TqHRPofINVKYz5JrGEvCa9FQi4G11vH219VH6873N5QBia6tph6HsM36LPXbPLVLrm1s1CrnEG2MtKsGzxPyO9bnLxmnUxiwGyqJkHPRv53zGPitKYvlzmJU6cavJdRWwyqL708IcTGM4lzluEF63BDvmwtsPITiWPFtq0WFvjHJTcdxY80YJfIimR3WbaNqWrH+N3IzNJ/liPECp6rp2ybVXYzibFLytsCJeNTtN3VrhEwaHnWqoaPfqFD1u9mZOah7IlKXkrLPNl26ea2d8pcMRzsGPlYv3+9EveNz3DgjvArUtpniBJzvOoT2yO8hpoHny2QU32M1DAOJZAUl1N++z3op0WWEIH9Dia6tZjOesK+ZvFd3uajr27YZc825ua6FIvK7c5x/KuiupnsG0KmFfCaKk/0N2o0UaRBKXbDPmZCsGfm0dgSJUKPi2276oO0+ZxHz+mwiES2EKlJ4fwDFld9WawMqDrBREcc/1AKRCDiDvsEAkBt9JEX+oIr2nk2zjzsUJIiuHEhkWh8RndTHDUSzFGZJoT+zfKP13rkdlnCmItLpX4tw/IaCZHLxTP13qP5i8O1KRETeE2kMLlV/Y2ZVo0XanR0ihGTGyIuzM7WcgMnLnlA3O0cKMUMGOpTo3zkZc6epSEC9nFkcveXar88ffCWtqCfSkMiK8+h8G97p10yQNGOD9ONb6O8Ue/NMFzvyVhHic35R62AnDtnRm+scVKTs7HNWRLIW7//UM3KO7e+cXLEE2PjTjBtoItLSyEvej5r5tcj0NxQM0gCtR6fd+FDX6ZWG6ACuzOjU40AmS2aro1N3QcX/hqxrG82eONBjStxYI729nrAw2RSPSNt/H0JuDnIYOSdDRdZvZjPoxEpv1v+2GHPVjXZyRTEObbRvn85+sml4DkuiUY+dqpxTi0hK1XHz0I2GSJ+gffOwU7aS2qy3UntJBy+pBsNiuPrls7oZTanBtqZT1merpWLjTOxPd7S5E3W8J+rMd5kzgCUx3RKRwVu6j9mkX537TOvEXEefc/m3GpXQmsi0ozgucnZtt/suY76TLMmjYGf63KoHOx1s3fDdg/qs42VyLRL8hjL6PWSCOodnG3Eqci1qMTObriDduFJ/I5VyNcsxF7WodWRFogMhrX7uDTpV7q7vrM+BEKIJYBIS+eNUN+KReIRII4NgngOeHe03gPh6k4Frr0wL/+QYcp6dlfbNOR8YvdeCEJKfBBQ529HScI7WFFGWz0htMFH4kcE7dr1ZywrspxjkBF4LQki44PSdhBBCSMgIcZ8zIYQQcnNCcSaEEEJCBsWZEEIICRkUZ0IIISRkZDUg7PR/+W/mFSGEEEKCgqO1CSGEkJDBtDYhhBASMijOhBBCSMigOBNCCCEhI6s+5/JHh2+yTkIIIeRmhZEzIYQQEjICiZy7XxsZPypCCCHkZiBkkbNY92XvbCW+vesOBu+eGwbS+W6sBwvWgwXrwYL1YMF6sAhtPUjknCn3PfJrvQTDr298v+TJGwfOmVXDrxtLbpSUlNx4smXIlFjY5dbyfbW3E+9jJUb28TneuQM3nvQ4h5FmqOXJGyWNMfXd/f1oPfzHAzdiaimDekgA68GC9WDBerBgPViEuB6cehF/fuGsh8Ai54sXLyZc1GeZd3ohXs2voPjYS6iZYop0FC2m/l1oXArMLHZ765Zv7ENfnyyyvR6d75sNmnJ8uwk41JVGa2hwAKeWNqJLHzNqui90/3wAT7y5Ge19A6YkB7y/ExV9T6Bvo+vMsPNBYL9dD6jFT7OthwSwHixYDxasBwvWg0Vo60GViT+71otjjcDGn6qacRLOeghMnK9evYrHHnsMf/VXfxW3fO9738MXvvAF8854zh98DocWb3MIs1CODaoyN9w3gIG2zZh7nymOZbAThzy2Ty6emVblnO86BCyeizh7/cEWvIK5KL+zGFW/HVDNCIMqX/dUC7oProsY9O80P/zuJnmt/jBM+TT1vsh+6odiv18vTfIzkfeuQ8ug9RbPdfkjc/3hCVJH7oZELOnWgy+sB4uA60FSapE6UIuVXmM9sB5YD/b7ZcmqHu7bENNoiWe468FKnXerINT+TtHuW796CEycp06divXr15u1KCLKXuVRuvHTjcCSijhZtHi/E/VLi1FsVm0iF2+OaqV4/QBjfyRJGOhrj4vOhe6fH8KSb5mjt6mGgvUK+HgA7W216kJs0y2yrqYqnBqQTzuPgd8C9Q92Yq5use7HZns/EST58ehya5+qafLN1Pdb2o6Bj+VNCh3FL8Fc01g5f/AV1NepC26tevP+T1Hr1YhJsx78YD1YBFkP8huueHuJydb0YX+dnSFiPbAeWA/DUQ/dP69Fu9d7hrkeRF/aN74CPCvfqQuNS09hQDcqEtwnrex2Znj1OW/btu3G4sWLI8uBAwfMFh8kPx/XFxLFsx/Fic7vx/Y5K6SvJdF+LoZuHPiPHn0OrmNIv0T0c/zPy7//Qvo9vt9tVvRnRtfleHYfhft98etx6H4lnz6TtOrBB9aDRaD1EPubc7+P9WCtsR6sNdaDtZZNPcj2+H53w7DWg/se58a/HgIfrS1R8le+8hX9eu7cuaipqdGvfZGW1T3F8elkg7Q4rKgqPbo76rG5MmFb0oG0VKItMIvzaNlVDzSsMGmIFaiH3dqxzsvz+DGtuSjSQqpC8Z1mNSYdH0mr6LTIfmyItHBj9otBZxB0FOrsr4+SXj14wXqwCLoe1G+ubSaK7XKdIYq+j/VgrbIerFXWg7WaWT2oc3xqmtXv/IMaT60Z3nqQ7+SRtRAS1EPg4jxp0iQt0F/+8pexbt06U5opUuHxg8GceKYp5MI1+FSGF/IDiG0gSBroHjOIQC+SirBTKgl+CEkaGxbd2DlHnbdZ0+i0Sid2/hzYlqR/xEb6Kqz0j0+/kl896P5eZ19NAlgPFsNZD+r81j2o/rCdjGA96Bt4qo8wsh4sWA8Woa8H6cutwKHFXf79zsNdD1qAi+EZYiaoh8DFWViwYIEW6MLCQlOSgPvmYnNDZ0wF2J3jFahtk3y8em0PFpALprdZyyvTYitdtWD+oRYz3/T5QXpwfuBUTHRutYLcLanJKL7HvIxt3TmIP5bNZMxdDNTOkfN+BcVvNqLKecGmFGNm2ykUfyu2ZWftFzeSUAnLigb1b1stKuz6cAyoyKQe4mE9WAxHPZRjbl09Vsj5yriJNzcDzj9S1oMF68GC9WCRZj10N0kEC7RvrLDqQC3uZ5pHoB4SCHCiegjFc87SF2D3I2RLJsf6daNPf8wI4uxLicOvXz0BiepB9wMl6OfPJawHi5GsB9mWdX/bMMF6sGA9WNxM9RCSSUjcgwgyJeGF80U+W10EWXJwo9Y/gBQeWE/nu/m/13zXEAoS68FiROtB38zU54XwRsx6sGA9WNyM9cC5tQkhhJCQMSx9zoQQQgjJHIozIYQQEjIozoQQQkjIoDgTQgghISOn4pzFWLTg+eRd7N79LobMakJOvYEd+3vMChkZLuL0c+XoOnzRrBNCSP6SU3H+9NNP8Xd/93fo7+83JSnQ3YwXipeaZRPeSmV2p6T04I2f9KJ06f2ITpsyhHd378COHdbyxilTLMx8CAtxBLt/mZKUR5AZe+wH4W1nFpsLhzfi2HMHcMGs20h5kILUv6scJ33aFX7nkBnZiWnQ39vJcB47e07iZFU5jsmS8rWQut6I08FcuGHC7/fgcONJdTYmQm4Ccp7W/uCDD/Q0ny0tLaYkAYOtaKxpRWlLG14YaMOyzadxfGsrstXnnv1HcPkb1bj/DlMgnOpA792P4umnn8bTDxRj4BdvKAmPMmPFQkz4oBXvfmIKUmTzm9b0btE5YW9e0hPJSSjb1o2KRZPMehIuHEBX1YvwavYVLFqLcR0dATVCUqTnRRzbddKsJGIWZrV3Y87eLRhjSiL4fidVNw+X4kp3WBsciRBbQ/mb2I/NpoQQEpI+Z0lvNzc3Y+vWrRga8o9GB4+/i0uoxp/ox6o/wcen1T+t7+L9iDpbrXD39GzJ6MHps8X45p/FTDWqouPH7bKZZR7zos5A5TeA3t+kFz37UXBXKVByNwrMunUjLseZhvdwvWGhFUlVOaIjs90qt2/YVnQSFQErCtMCKOKgXp/bB1zdFLufRdw5ZMUkfKkEGHeXt5hKBH+mYz5KnWJrzlEW+d4RHOVOMdeRvkvw5Pua71SwHBXbgXOeYjYLE0q24lxsBkHqdNcBqw496idT9HluAorWzjIlgiNCVotfNsNFou80YwHGNfw4rlw+++Rhx28lpQbCcJD490AIcROqAWGdnZ06ij5y5IgpcTPYp9S4uhhTlDC/tf5xnK9aj4k4jfPZhM6nTmNgapmS2gTIe269PW5u1MKCCfjsw57U+qmTMeMZzHHevOVGrCKo6XXzMKbuCOZINNXehDKtnOrGvqoXhbpMLXLD1ilQiS6PYGL/Li3iFw7vwjW1r4425fjqvUUrgfHbzX7tz0DdL6PEnkOWlKztxiyPihVhPoc9mLNtubsxIgJmvpN87wjm3F1lComAx+97JypIPe/g6soF0e8k++0txZCzUWMoWb4F1173SBvv24rPH7bOoWjlqxjKMv0t4iiNkOmuupZG1Bogch32AJtSTEv7fqdZKKrr9Tzfqw32b2WPqi/rt5EL/H4PhJB4QiXOYjX51FNPYeHChabEm/cbH8eZqt34zmxTEMFKkb20zGuK8QyRgWK/uIx7Xf3Rhsm341bzckQREcKrKoIy0dCmV80GQQl07XxcWeURmeYcK7IfmqoaGzGNgAvdR4G6x9yNhaSoCFgJ6GUTdfYfexXj58Q0LqSRs9eqD1d0qsoLS47iQqxQVWxBkRGQ8VPdjYF00dmBs2vdjRDNR/i8azUmRIRKvsd7+DzVLhKf7+SXrh8Tqde7MLZCvyCEhJzQiPO8efPw8ssva0crP6ZMKwNam3Fm2m7U1tyhrbguoQyTPVxPAkGE+ScnMOGBx9390TbnP8VntxXGi/ZIsFJFnjoaMkusAKxcjfHmZXiw+o0Lzy4MLL2qI+BjcqyTuNwfFdYIEpGvOopb9sZHbSVzSnHpwPCleSVSnD51V4CD7Ay+38knXU8IGXXkXJy/+MUvYsOGDXj22We1F3Qipsy+HxPVv7cVW0rZ3dEKVN+P+yLinEGfs/Qnnz3tGuxlISO4RZifxkMzTVEMQxcu49bbA4zSfbh+9iPzyjBjQYL0pKS81Y17+TMoqjyKMx4ieO2jdFO1ZkRtUzBjaUW0irDGJVrS333djvqU+PQ6+5wTUVCJW/rfQX/PO7hWWeluoEhftU7/290BMcx4LNIFMFwULGrCdLkOrn5iiWCjEb9836F98zDWqwEYS5Lv5JuuJ4SMKnIqzlevXtUDwaqrq01JEqZUo7alGr011qNUB+ursay5GtkFzjNQNnUAv4p5LEpGcA+ofwd+EX2cyv3oVA86PgBKvz68cbPVr6qETKew7X7GWZi1XUV9q0xaWy3WQCmrL/Na3fP6xl2w6HklPmpfh0DLzRuRAWapDngqhqpu4LcDDj/Y7NBRpRKtXruPVIQSW5WIqfNqBAod/ct6QJUqdw6Oi6ZzJyl97sW5Tb24pdzRuIv0Ycf0q7uwRjkPZ/QsiEDrcQGR6yBdD0pE7YF5q7Zi3HYjtnLepux6l6kPe79UvpNO1zN6JmS0Q1cqjYqSd/wKtz/ik772oGf/Dvzq9kejI7pTQJ5z7qwcnY9RybmvwH70bcw3BzIZNb0LY/f6RNejEYmuXy/F9Li+7jAj2ZlOzO3LxvSekPwhVAPCcscMPPRIKXrbUp8h7AgWpiXMNvUPek9CEloGW7BOnW9+CrMgzxXnkTALMqJ71AizPQnJCtSbEkIII2dCCCEkdDByJoQQQkIGxZkQQggJGRRnQgghJGRQnAkhhJCQkVNxzmIsWvDQz5kQQkhIyKk4Z+TnrBhs2aQnIflRYOav4fZz1hNuyAQUsdu1W1MwzkmC3zn443CByohs9xcyPYbsF+8Gdf7gusg1Ss/djBBCgiPnae20/JwV3Y1L8fIG8YoMjlHh5/xJL64HZudI/Ji87CV9fbqaqkwJIYSMPKHoc5b0dip+zhhsRcfp9XjyuFhFepFHfs4mspMpK7X/sjhPyTSezsj2jlKMqSgNzODC28/ZeETLNJKOqSTFcelY1Rq3O5bZJhF41HdZ9nfaGzqPJ/s7cPg2O7+nzh54eBInOge/844i81unOJ81IYSMMKEaEJbMz1nPrZ31XNoxhNXPWc9cJZ7C8zBxr8PX2Tnzk1gHBjkTVNw5KHp+jEslDgcss13mxtb+wFgd8WBOxQu6f9dCXKm0/allf4Ok7WXKSXMsbRbhEFQvT+KE5+Bz3lHEISvPZgYjhOQNoRLnVP2c/ck3P+eL+GN/Kb5kBGTcXTnwZpboPDZiz5iTuLxvNQo9PKbFzzli9KAWyRg4SduTONDzJoSQkSU04pyKn/OIk0s/Z53iXYhLXVbK1k5vR9PFI4RE5xJ51gK9IpzDKHY6M2BHup7RbhqM4HkTQkjQ5Fyc0/FzTk4e+TlLillSthVbML39CCZWWOntCo+oM55g/Zc1WuzU+XT1uvuJ0Ys/eqie7UF94fB3VQNDv1S4fYz7d0X7nAvK5wMNP85w5Lb3OWh8z5sQQsJLTsU5bT9nnMCPipfihdnNuKTWLF/nZiVF2RBiP+cLH+Kaeak+KZLeTk5w/sv68SqTapbBV9ci6WVhForqEPWVNn3ETg/qM2fnq4aFLlaIf/Jqa4Cb2nZ5jvQXG5SIltb1Rgd2qSX2MSdvvM8h8XkTQki4oSuVJv/8nPPXf3lkkOedn8O2YMcvEEJIioRqQFjuyCM/57z3Xx5e7ElIKja2mxJCCBl5GDkTQgghIYORMyGEEBIyKM6EEEJIyKA4E0IIISGD4kxIniOPk9k4X9t4lTlJtp0QEjw5FecsxqIFD/2cQ45lZDHiM6TlATLbmi2wzteCvJayWCjIhOSWnIpzJn7OYhkpXs56Wd+KQVOeHeH2cw5SkMTJyW9yD79zyIx0xdRy4RJRCOQcZPrTOCeqmw9dn0ZoU3mdGX7X2sxUp5edWU4WRMjNRc7T2mn5OYtlZH01lg204YWBf0RpazN+1pKmobIHo8LPOQ9xNzwsF645e7dgjClxIy5S8dOXSmPDswEw4zFM7H8nw+lA84vIXOUJFi+8BNxZlhzLiKavbz82mxJCSGqEos9Z0tsp+TmLZeTAevUnL9yJydXApb6P9ZpFHvk5i4WiugmK4cX1hoXmpujwRTbbrfIXjQgZD+NIxGhFo1q8jFfyuX2ITJ8Z3c/C2885UybhSyX+Tloiqmc65qM0lbnCHT7PsUJcsvYIbulY6CHQk1BQ2YshD+Hu36Xq8bD/MfMJW3jt7+q1CE6BlrJY4Xau22VREl9rQkj6hGpAWFI/ZyeDXTjTCkycdqcpyJCw+jkbV6WIj7O+Kdr+w0p0V9n+xmrZDpzTqWCJLo+oiNHyO75weBeuqX11tKmNNMQfGhi/3b7JPuOeb9rLzzkLxG95lkfFijCfwx63N3UizLlLXcRjRdSFZ1UDJiaNLXN8j/M003gPlzqMd7SK1DM33Bg9WNfbvdjlTmxhThe/a00IyYxQiXPqfs6f4K2tzbhUvR5/WePMReebn7MPPe/gKiwrSR39bHrVbBCUWNXOx5VVaUSmI4YV2Q9NVY2NABsBgohDEWL9m8UUozfiguVk/MOmYVBwN8bpkpsLPxHORJgJIcETGnFO3c9ZCfP6x3Ec6/FkczWmmNJhIZd+zslYqSJPdSONLLFR6MrVUcen0OAf5WaLXzQuVpTXXg9qkNvoQzfePBavbU5iy2PXCSHDS87FOV0/5+5GJcyt1VjmKcx55OfswPZGjjBjAcbvs1LX8UjK+yhuWf4MiiqP4oyHCF77KN0+1mD9ob2j3ExJEo0XLEdhyVacu0mffHM14MySqNwmtjx2nRAyvORUnNP2c+5uxsF6edGKg/bjVPns56xweiNHB4TNwqztpVEPY7VYg5pEqMS7+HndN12w6HlM7Ff7OgS6ZLn0sdoDzNwDwvwJzh/aRgR6umo89NqDsewBbqu24nrXVpyR1+a8bW9m5+A4+3Gw/l0LcaXS9Kv7IN/5Zo6eCSGjD7pSafLPzzloRrc/tDRaFuLzhzloSZDGTToRcLrvj0cyL52Y27fBPGlBCEkGxdlG+pfbgOrHPQZ+xSIzhP2uDE+vSO9OrwWuwXotzzuPCpEWf+g5tWivoz/0aEdE1sZPbJ3vSUZywRZRXgGd7MJm7Kc4E5IyFGdCCCEkZITqUSpCCCGEUJwJIYSQ0EFxJoQQQkIGxZkQQggJGTkV5yzGogUP/ZwJIYSEhJyKc/p+zifwo8jkI0FMQGITXj/nkSS3fs7Dgd85mBnP9EKfYUJI+Mh5WjstP2fci+9oL2fj5ywzhTWeMNsyh37ONxv0GSaEhJtQ9DlLejslP2cP3JaRGcytrSQ3lH7OColkTx52+DY7puEUowddphd7Gk7xb34RJ/W2qGdxNHK0Ikl7P3sKTJuR8HP291J2n1s0gk/ynTx9rW3oM0wIGZ2EakBYSn7O3c0mpf336I2zjMyAsPo5G6422L7Ne1xmFzI3tczQpBfxc44I96u4NvUIilYaz+LtqyPGGTIPtUxhae23B9hkz9VtGBE/Zz8vZcuxyv5Ornm3fb+Tn691FO9zIISQcBMqcU7Jz7l8vUlr78ZsNOPl9a0YNJvsdGU++TmPqXsMKvhT3IWxFfqFxjaD0IvLz3k1Co0JRMSzWHMSl/cpsd9kR5lrcNVsGWn8vJSd2QAxuYji850S+loTQsjoJTTinLqfs80duK+qDGgdcIhzwITVz/nCAfQ2ABP32hHjarMhGatRZEeZemnS7lWhoOdFnNsXPb/pdfPMhiQk87UmhJBRSM7FOV0/5ygncHjDaaC62OHrnEGf8yjwc/amFF/SKnQRp19PJWKchQkrX8VQ3MjlVDCjmwPyc/alohTj9YuTOOeKnH1I6GtNCCGjl5yKc9p+zoOtaIw8RmX1OT/ZXO0Q50wIt5+zJwXLUaiE1krnfheoTC1yLlm7B+MiXs5qSfmxqeD9nOOY8Rgmwvg4V72DsSlFzn6+1oQQMrqhK5WGfs7JGN1+zn5IRoA+w4SQ8BGqAWG5YwYeeqQUvW2pzxB2BAvTEmab+ge9JyEJLeLnrM43v4TZnoTE9homhJBwwciZEEIICRmMnAkhhJCQQXEmhBBCQgbFmRBCCAkZ7HMmI4488iQThjjxKvND3huLc990jiV4Hc8mneMQQkhQ5FSc5aO/8IUvmLUcI7OBtQHVj3tM0xmL+Dn/rgxPr+CkzeniJ5xe5X6imUwwncfyOobX56R6ToQQMhLkNK2dvp+zje3rvAlvBTJ3Z3j9nKU8yIk1ZP7qWDcqm+H2c7aFUv61Fyex5bYwyr/O105ijxGLva/zGF44P9tevAj6epAk9Hg5mCXDcjJL965CskXqPf7+cv7gush9Lz3HwJubnPc5p+fnbNHdKLODlWGiWc8W+jmPHF5CKTder3JB1m2hdL4W7P1sZN3e7nxtE/t+J1Ieu3hRsGgtxnV0BNSAuYkR0XVYoPoiTmnqWnjOtS7H8GxMzkJRXS8u+zRCycgyedlL+p7X1VRlSkgqhGJAmKS3U/Zz7m7GwfoyzP7r+02BkzzyczY+xeLOdD0y5abD4tHTx9h4IkduelZLVkccJgI553KmckcXI+HnHEsiwbTOMV5s/V7bx/ESV3mP3+cI9nGcizezMKFkK87F3vjleuw64PCkZuTmh87QbAKKnPakjgg55bpTwi3Womc8BLqgfD6uvR5f7u8nTrJHnPPmYWyWLr7EIH3OmXLfI7/WS6ZcuHDhxuLFi13Lgw8+eOPw4cPmHbF8fKNt3Z/f2HHg4xs3zv3zjR3/fd2NtnNmk+bXN75fUnLjyZYhs54C/7rvxotvnDIrPsh7/unojU/MagS/ch9+3Vhy4/vdZiVFzr/9NzeOv33BrNmcuHFiccONPrN241TDjc5n37xxXq9cuPGbZ//mxm/Uite+fT+878aJJF93uOhcfJ95ZeFc93qd6P1Okh1H8Ns3I86/eeN4pL4NUqY+w65bqef460bkNxn9rRp03fn9ni28/w4M8n7n/gav37qURY4d+7lkWBlqeTK9e/NNTqgepUrm5zzY8r/heGs1Kmv8mmb55+fsSUIf40koq52PK6tU1N0xH6XGBzksRKMjd2QqUa1fmfP9znV7SSUidr72Wk+2uBDjkZKjuBAbllVsQZEZIzh+aoqWlzcRMt7hzNm18baen/Ti+soFxrdcIW5jXb2p+41L6ns71N+DI7OkKFm+BdeOxafO/fzECQkToRHnVPyc328/rf7fioMyGGx2My7hNI7PXoof+d+bsyOsfs5CMh/jlauN/WK4cJ5zKjjf69zXudiIiNrr9mvnexKtp1LupGROKS4dSKHPlEQoWduN6VN3BTjo0CApcUmTx/qTF1Tiln5aipLRSc7FOR0/5z9vbsMLA2Y5vh4TUYbZx9vwnUhgk59+ztfPfmReGRL6GJ/EyVVHccvyZ1Ak/XEeg26ufZRuP9vI+Dl7iaATZyRrL05k/9iyVIjdx3l83+OJxSVv/GlTsKjJ6id29ivfUYox+96JrF84vAtXI97eidH916+XYnr7M9HIO8IklD3MRhQZneRUnNP2cx4Wwu3nLKODx+9bY4TCTtv5+RjLgLA1uFb3vI4gChY9rwRE7esQaEn1ITLALNVBSyPg55wAOVdbuO1I1k/IbYH2254Kzs/wPw5v/JkiAq3T0PbvsmA5Sut6I900ZxpKUWQyQVp8dVl0YGTkUR0VMUvXzfTYrJETNqLIaMX0PWdEtgPCwsOpG/te/KcbRz82qylw6o0Xb/zTu6kOBbPIZEBYWJBzL2nM7lrLoKzYxQtneex7Ut3Xaz8vYt/v9z5vZGCeNfiOhBc9CO2HJ8wayRUcEJYenL7TZgRmCJNJSFY0WK/leedR8ayz+DnPqUV7XfZ+zrERrde6YJfZ2+1ywev9gv2+2O3O/Z3bBK/3+xG7LyEkNWQSkoqN7fp1VVNXsAN28xiKMyGEEBIyQvUoFSGEEEIozoQQQkjooDgTQgghIYPiTAghhISMnIpzFmPRgkdGa+9+FynZWMho7f20vBkOgrWtJISQ0UlOxTl9P2fbxzm6NLak6dnoSbj9nPWkC+J6FLtdO/kE537kdQ5Slq5zT6J9EvlJB0+8p7SFmfFMLzvVGiGEhIucp7Uz8XMubYlO41nra4KROqPCz1nMAQKzcwwvevaoRDM+BYJlkNLXtx+bTQkhhISJUPQ5S3o7ZT/nhOSRn7PxYpZpC7X/sjhPyTSezshW5iROcQ7iVPD3c+7Q5yKTdLgM8hN68PrsI3wU9aKORrXW99Xv98ggSMRtf5YrEnadg9uVKFVPaUIICRuhGhDW2dmpo+gjR46YEm96a+y0dnP2KclTpzEwtUxJbQLkPbfejth5bQoLJuCzD3tS66dOhtjeOc3nZf7s9m4UrZyHiXu7Mb1uHsbUHXFHlQXLURFklBl3DhbXG45irDqHOe17ooYbkmbXTkBmDmqZK9khqtcbejFBbzui5/d2prKvdgCletsejGv4bnS+cCnbuwVj9LuiSJp8aKr67uZ4t3QsNMe7iNOv9+r6sbbFuBIpxAlpVnoTuRFCSM4JlTgn83MG7sV3bFeqgd2YXd2Kg+tbMWi25p+f80X8sb8UXzKCk6sIcIwx0gDuwtgKXWSl2RN48I6pe8xsm4SCynkuJ6yIn64S5Akr38PnCbsGLuJCR9T04FjVQlzqMpt0ZPyeNgAZuX5sQggZfkIjzqn4Obu5A3eWmZfDRS79nHW6VoToVe3WY6e30x2cFQaunn3Pp2EhjY95GJt02ICVPbCiY2uxo2GJjGV9wjErtU2RJoTkAzkX53T8nN2cwL/Wq3/KijHFKlDkkZ+zpJgljVyxBdMlNVxhCVTFolTqaAT8l1P24D2Jy/t8BPhCB650RTMD3kjkjaTWjNrIv84doRNCyGglp+Kcvp+z81Gqv0fv5n/EC7X3mm2ZEmI/5wsf4pp5qT4piYg5GQH/5QQevEI0Db0G2O7uC9YD3GTbqqO4Za8xyZc+bF22Fde7tuKMvDYDySK+1Pp4stiDzxyDyNQi51CYUuOFEELCDV2pNCpK3vEr3P6IT/rag579O/Cr2x+NjuhOAXnOubNyZKwitT0lsrd5zG8kw9CJuX0bwFoihISJUA0Iyx0z8NAjpehtS32GsCNYmJYw29Q/6D0JSWCI/7I6PoU5EfYkJCsgPSOEEBI2GDkTQgghIYORMyGEEBIyKM6EEEJIyKA4E0IIISGD4kwIIYSEjJyKcxZj0YKHfs4hx8/+kRBC8o+cinP6fs4W3Y32RCQ3h59zkIKUyE/Z7xwyI10xTexKlRn0cyaEjE5yntZOz8/5E7y1fikOnl6PJ282P+c8xN3w8HelspiEsm3x05dKYyP9xgv9nAkh4SYUfc6S3k7Jz3mwC2dayzB7S7VjPm0nGcytrSQ3lH7OZjpLMbyIToXp8Cu2p7vUiz2dpRUpRv2TrWhUi5fxPT63zzF9ZowHs7+fcyYk9lIWUT3TMR+lqUy36fBsjhXikrWWhaS3QNPPmRAyOgnVgLCkfs6DA7ik/jn/s02RtPaPss1JhtXPWbyaVSQZ8XHWbkz2HNVKdFf1olCXqSXipSzRpfgnW57LYkZxTe2ro01tpCH+0MD47Wa/djOvtY2Pn3Om+HkpizCfwx63N3UizLlLXcRjRdSFZ1UDJtIoiUI/Z0LIaCRU4pzMz3lw4Pfq/6fxh2n/Sae0l21WkWtNs6PPMN/8nH3oeQdXYVlJ6ohy06tmg6DEqnY+rqxKIzIdMazIfmiqamwE2AgQRISLsCbA/mpCCMkdoRHnVPycpxR/Vf2/DNNnW53D5ZXiZvV7fDyoV4Mnl37OyVipIk87cpYlNgpdudrDvjHXJI5ysyHtaJwQQkJMzsU5LT/nKcWYqCLn80aMuztager7cV+kAzqDPuew+jk7uH72I/PKMGMBxu+zUtfxSMr7KG5Z/gyKKo/ijIcIpu95bEY3B+QPHWyUO3zROCGE5IqcinPafs5TqlHbUo3eGqu/+WB9NZY1+w0OS5UQ+zkrChatVUJsexnbA8JmYdb2UlxaZdLakYFSIlRrcK3ued03HfFBdgh0yfItQGSAmXtAmD/B+0OLQE9XjYdeeyBXAj9n/YiXWncOjrMfB+vftRBXKk2/OiGE5Al0pdLkn59z0OSnP7RkBOjnTAgJH6EaEJY78sjPOWjy0h/anoSEfs6EkHDCyJkQQggJGYycCSGEkJBBcSaEEEJCBsWZEEIICRkUZ0IIISRk5FScsxiLFjz0cyaEEBIScirOafs5dzdHDC+ii3Nu7UwJr5/zSJJbP2cL73M4j5an7Lpbh5bhmq6VEEJCQs7T2mn5OZev14YX1vKPKJWyzXOznkCCfs5hZzJqfiD11oVGmamMEELynFD0OUt6OyU/ZyfdnehFGWb/5b2mQMgjP2eFRJEnDzt8mx3TcIrRgzUFpyz2NJzi3/wiTuptG3H6sOWDHI1ejd+z2c+eAtNmJP2c/Qj2HAghZHQSqgFhSf2cI3yCt34Ya3qRIWH1czZcbbB9m/e4zC5kbuqII5X4OUeE+1Vcm3oERSvfw6WOUkzfvjpinCHzUH/+sL3fHmCTPVe3YYT8nBMS8DkQQshoJFTinMzPOcJgF84obS7961jTi/zzcx5T9xhUAKq4C2Mr9AuNbQahF5ef82oUGhOI8Q877RNP4vI+Jfab7Mh5Da6aLYQQQsJFaMQ5FT9nm+6fNeMSqvEnwz1raFj9nC8cQG8DMHGvHTmvNhuSsRpFdrStlybtXkUIISRc5Fyc0/JzFgZb0VGvhGnnCo+BYPnp5+xNKb6khfUiTr/ujJz9mIUJK1/FUJqjpy2C9XO27SHTHclNCCE3CzkV57T9nBWDx99VUXMZps9O0dsxKeH2c/akYDkKldCe0+np7wKVqUXOJWv3YFzEy1ktKT82FbyfMyGEEH/oSqWhn3MywuHnLM87Pwc8+xJqsh0ISAghISZUA8JyB/2cfQmFn7M9CUkFattMESGE5DGMnAkhhJCQwciZEEIICRkUZ0IIISRkUJwJIYSQkEFxJoQQQkJGTsU5i7FowUM/59FLjxh82OYfhBAy+smpOKft5yzEeDr/KJBJq8Lr5yzlQc6kJW5WsW5UNn7nkBmZ+TnbuM5Ti681cUoQdRF0nZJU8Ps9mNnn9LIzAG92QvKDnKe10/JzHmxFY00rSlssT+cnd5aht6Y56z9o+jnnBl+RvHAAQ/1bUGQ7WolTVXs3ptfNMwUx6O3PGIMQg54i1DuaLli0FuM6OgJqhJDssMxq+vr2Y7MpIYSEpM9Z0tvp+Dn/YcChiNXFDmeqPPJzNvNPn2l4D9cjU246LB7NdqvcFiHj1xyxjxR/ZxOtmOjznMuZyi1eI+nnLJHxmY75KDUOWk76D2zFOJejlh9Of+oYIS5Yjgqx0vQU6FmYULIV52IzCFKnuw74H5NkQWb+3oTcrIRqQFhSP+cp1fhLFS1f2vC4Tmm/vAGYvSXWNjJNwurnLOJiosUxdUdiXKSU6K6yfZ7VIiKk09GTULbtCCb2W77PFw7vwjW1b4UIoIk+i1YC47fbrlQx0WbAXsp+fs4izOewB3O2eQmwWFuuxoSUfKDl+8r32IPxpsSFfJ+9pRhyNmoMJcu34NrrHin8fVsjntdFGRuFEC8y8vcm5CYlVOKcip/zYN9p80o4jeM/O2FeC/nn5+xJzzu4Ctv4Qi0uP2clWLXzcWWVf2SaO6xId2iqamz4NAKsBoXtYR0A0sjZa9WHq69dzENKjuJCrDpXRNPp46f6pNEJIWSYCY04p+Tn3N2Mg/VlmH082ueM+h/jrUGzPWjC6ucsrFSRpx05yxIbha5c7R1N5hQr0i08u9CRendyEucaSlEYZINCUtWrjuKWvfFRW8mcUlw64HUehBCSW3Iuzmn7Oato+bxLjL+KOyN57fz0c75+9iPzyjBjAcbvs1LX8UjKW4nR8mdQVHkUZzxE8NpH6aZqg/VzlvRmEdbEjwyXjMDKBcFFzdLPrtP/dndADDMei3QBEEJImMipOKft51y+Hss2A7011mNUL284jdKW9cjOdiPcfs4ysnj8PiVkOoVt953OwqztKupbZQ9csh9RkbTxGlyre16LUcGi55X4qH0dAi19rYgMMEt1wFPwfs4i0NNV46E30qerzv31XkxcHp/u1o94qfN1Do6zUtTWgLdjVWuiaX5b8CVi3gQUxfaru1CR/MOMngkh4YOuVBr6OSdj2P2cJco9tiDQAWmpIQK/C2P3+kTXZISQ7Ewn5vZtyLKxTUh+EKoBYbmDfs6+jJSfc8AjxVNnFmb5pb3JCGBPQrIC9aaEEMLImRBCCAkdjJwJIYSQkEFxJoQQQkIGxZkQQggJGRRnQgghJGTkVJyzGIsWPPRzDgXB2lYSQsjoJKfinImf82DLJoefc/Z2kRbh9XOOIs/jxkwaop2mgnNO8joHX1vHBCTaJ5GfdPBYc3nHn4v9+I4s9BAmhISPnKe10/Jz7m62nKj03Nq7Mbu6FQcbncYXmTEa/JwDN4QIKQWLmnzcqoKEHsKEkHATij5nSW+n4uc8OPB79X97Lu07cF+VGF90OiKfDObWVpIbSj9nFz6GEHeUYkxFaWAGF/7n0GGmyVSLc65u4xHtPRWozz7CR1Ev6mhUa0/FqRaPDIJE3PZnuSJh1znEWkPSQ5gQMjoJ1YCwpH7Omt/jY2N84baPzJCw+jk78TOEEDvEIKNMn3O43nAUY/ca32TbcCMyd7VxxYp4Sltcb+jFBL1N/KXXuFLZVzuAUr1tD8Y1fDc6X7iU7d2CMfpdUSRNrm0mzfFu6Vhojmfm49bnJkv8TF/0ECaEjEZCJc7J/Jyn1PwnzK4+jeOzrT7njtMqcnaRj37O/oYQI8UYY6QB3IWxFbpI1UsvrjsbDOKU1dWLq2Z1TCQFPwkFlfNcTljjH7YbFLMwYeV7+Dxh18BFXOiIGl4cq1qIS11mk46M39MGICPXj00IIcNPaMQ5JT9n3IE/b7a8nGWpLFORc3UxIo6RQRMGP+eeH+NSydpRPffz1bPv+aSWL+KP/fMwNqnZyDxHdGwtdjQskbGsTzhmpbYp0oSQfCDn4py+n7NhsBUd9UDpX1c7xDmDPueQ+zn3H3sV4+ekGzWb0cgB+S97Iv3d+96J9DPLgLWrnv3fJ3F5n48AX+jAla5SfClhw0MibyS1ddQWlHXuCJ0QQkYrORXntP2clSA32o9RzW7GbS1t+E7Wnhsh9nO+cABD/VtQlHafafD+y3EULEdpXa/loayWMw2lKHL0f0fT0GuA7e6+4KubrH2OrTqKW/Yav2Xpw9ZlW3G9ayvOyGszkCziS62PJ4s9+MwxiEwtcg5xg+YIIWQUQlcqTTj9nGWE8uU5mQ1oGnb/5bxAMgz0ECaEhI9QDQjLHeH0c85opPFI+S+PauxJSOghTAgJJ4ycCSGEkJDByJkQQggJGRRnQgghJGRQnAkhhJCQQXEmhBBCQkZOxTmLsWgjytAvd6doDyk2k7vTdqoiZHRhPV/O2dgIGT5yKs6Z+DkLtqfzj1wTYH2Ct9bbPs9qCcBKUnPqDbz2YSmqnY9NqTJ7YpIdu52PXxXi/qWl6P2J214yKebxJ+0v/FRLzMQhfp7EHv7O2SCTgPj6SfudQ6Zkc3NP8Xs73KpSP++A63Q04br+1vXR9ef7m0gDuRaxzmShw/s3ef7gOuP7na7bHSHZkfO0dlp+zoruxqV4eUO8G1V34+M4jvV4UubdPr4eE+v/Pka8M6EHb8SZXqjo+DiwUHyen34U9+IEWp1R9R33o/obl3Fkf5rKs7QRXeIx/IOaOPermw9/kUzZ11octtqtKT3jELHwFJ1ZKKrrxeV8jQgTiGT/ga0Y5zAk8XMIs7C2xz6DL5PmeDaEZjyGif3RqV5HE5OXvaT917uaqkwJISNDKPqcJb2dip+znk/7tBJgEV9TZHEC/1oPTKyqsObZHhzAJfVPb4cjejbRaSqTf0TQdpLfjJk1TEXHjz9kLCYLMePueF+qwj/7ps983ZkQ70lseRuvwVW8Gpk+03nT9fY+tiKDyLqZLvNkjxUVu6bNdO0nBO2LLO5WfvNty3nJlJ9mWk8XHr7WLj/nFKNeJdzTK4/ijIdAF5TPx7XX48vFtvLkYTPFqCyhjwTdyPkfE4tPL1tSVeepThOrj2PqIDbKLFlr2XnGC7TMj96LIQ/h7t+1EacPZ5LlCJoEv0lCckCoBoQl9XOeUo3aZqfRhUGJ8R/UP7cVq7+s7ma88MNizN6sCk4PwFg/Z0TP7wZQ/LVEd6wh9Hz4GSYUxM4UNhm33zqA06fMapbEzhRmOTHtwXisjvopm5uuv/exRDvin/xjLWA6Utoux52Esm0mSqrYgunmeBUxc1RnNFuZL/KZ8d7LWpj1fNs+nxXray3vT+ApnYiCRU2Y83CvaozECHrBchSWbMU5j5bV1YZeFOrPcvhajwLkN3GmY766tl4NHrW9+yhQWZmSL7iuN1UHRStNgQvrt1R4dmFc46Vg0drIb8/Ne7jUUWr97tRvEJ7vGQl8fpOE5IhQiXMyP+ekDLSisQZYpgT8TlMUYUoNXupLfV7rVOjZ/xpO3LbQw7WqEIW3mZcjSiLvY0EJtAiY2nYOewIU2wCQCHiViJ/fDdLD1zqJp3RSJPWt60NFbw6hLVm+BdeOxUfGUY9qh691yJEsypmzazHHYUrixiMbkSXSkCvCmpiuA/8ug4i/d8HdGKdLCCGhEefU/Jx9mFIM0cLeDQOoHFiPcnyCj6Vbumz4vJ7F+OLIH+7Foyu8FG4IQ3+4FcPsJumDv/exzZiVq336EnOICOXeUgzFCGWE4fC1lgaBjrxjGgQFlbilf/RExokQoZw+dZfvwK6U+/DTQBoE0viLbRD4dRkQQuLJuThn7Ofs4l78iaSxq40YD3bhTCtQWnmvrFlk0Oc842vFGPhdfFNfHq3Swvy4c6CYk/P49LMJKBz2/qte/NF1p0vifWzSwIVrn1HnvSa+fy+dqNNgjWZdh5Zs+g9sCpajYu98XFkV35/p6Wudsqd0PLrv9HVJp3qleieh7OHSpB7SowVJRes+9rg+ecm0ALeUBxU1W+MXdLeKV992gi4DQoibnIpz2n7OOIEfGS9nPeCrRh6baoYMyi6v3Y3ZaMbLZjt27s7e63lmGYrP/sr93PIn76L1g8+Az07gNftxqh3uR6eGfvkrDEwtM4PGhgtJEyohVkKmU9imjy+h9/Eq6We2xKhkrfQ/OwbvyI1zZXSAWaoDcyYXS06/HQMfW+tZIwLdvgfY5BASvwFL6r1+ntL2wKUzDdE0f0TwVcSs+2B9U70KPcI4P6JnQfcVSwrf2Rfsl42QRpzUqYe3tj3Y8Nw+25c7muno37UQVyqPxI1XcKK7DBg9E5IUulIlQ55pPn57gig5BiXeu3/yKb75tD2iOwUkqv8HYNtofIxKzn3OISw59hJqhqkPQQQhU1/rbNADqaS/1isKHPVIlPtdoHakB0HJ5y7E5w+P/PXMBskQPYdteGkZH3QkI0OoBoSFkpkP4dG7e93PMvsyhHfbelH6SBrCbNNWiwrPSUjCS3eTOt9hFmYh2JHiqaOjzbwUZiFXo5OtEd2jRZjtSUgqNrabEkJGBkbOhBBCSMhg5EwIIYSEDIozIYQQEjIozoQQQkjIoDgTQgghISOn4pzFWLQRhX7OhBBCRpKcinOwfs6CmaRkfWtWhhcuQuvnHEWex3VvT75PeqR/vPhzSo9s9xcyPYbsFz/d5Xm0PGWuUVAzohFCiA85T2sH5ecsdpKNxX+PXrMaDKPBzzl44wLixWTU/EBdn74uqJ8gIYQMK6Hoc5b0dnZ+zkq0f9aM21rasEzm2PYij/ycnXgbFwTtv+xzPJeXspnG0Uz96Jw20z3Fo3PebPGYdkzT6Tie7O/EnjZSlmg0rPZXEe7pyLbUzsH6XK/jWRTcVQqU3O0/tSchhAwzoRoQlrGfs6K8ti37ubRjCKufcxR/44KgZ9WKP95Fy8Ix4oBlZpvSc2N3Y3rdPIyps32lU5iJyphy2N7Msr+NpJm9PaoVXVtxxWybLnONi1lFknOwGjR2ebx3tXbIytuZwQgho4FQiXPWfs6JyEc/5+GwUUwZiabf08YbsQ5SmaAN/z2tC5N5VK+OpPR1xJsC8j59PKcJBCGEhIjQiHNWfs45IPd+ziZyXZ67CE+iaYk8Jxyz0sNBiLQ3yT2q00IiYznOnHcswadIE0JCRs7FORg/5xTINz/nCx24gvkoSDdqNvWw7mBw9hoi0pJCvvaRu+/2+tmPzCs39vv6d62J+EfraLajwxohfeEAeiN9zkk8qpPgdw4aEem9WzCm/0NaGBJCQkVOxTlIP2f78aqD9Wql1fJ1bmzJ8oHjEPs59x/YinEPJ/Aj9mNKMbQDc9+AtZ4x7kFV4qXsHDFesGgtxu+zfaWjg7HEzxcmRT00dQvGW8WWfzKMd3AjUOjoc/b3qE6M3zk4B5eJZ3FG9UgIIcMIXamSEUY/Zxk8pQSsdFsmoiLP61bg0OIuetNmhNTfc8Czw2uTSQi5uQnVgLBQEkY/ZxmNnIkwv78T06ZRmDPDnoSkArVtpogQQoYJRs6EEEJIyGDkTAghhIQMijMhhBASMijOhBBCSMigOBNCCCEhI6finMVYtBGFfs5kpPG2rSSE3CzkVJwD9XPWlpEyKYm1xHs9Z0ho/ZxjHJ2yRZ6d9hWDoP2hrQlMMpvuM8Xv7XC4Sv28A65TF4mOPYyfK/WQ4fSk9LUmJHfkPK0dlJ+zWEZi5268MNCGJ3eWobfGmjksO0aDn3M+4i9W3haZHpj5s53uVhFEsDwbIrNQVNeLyxk1GgRpxDitKaOkfN6GgkVNmJPGs+wy65lnI0RmXut/J0Dhp681ISNBKPqcJb2drZ+zWEbW1liTWU8p/qr6/+/xsbNVn0d+ztb0kzIv9as4Z09D6YiOfL2PnevG8/hkjxUVyzSW17vM9Jmu/YSg/aHvwtiKeRjrNfe4Pq81wPZnPITsJM7FTBPq9pROMfpUwj298ijOeAh0Qfl8XHs9vlyiyJOHrTrTnxUXjUr9LsSVyuc9XMI8zttkI6zzjs4xbl8nXe46Pyl3C7+ck32dStZaVprxAi1zk/diKK5cfifqeIf9Mwz0tSYkd4RqQFg2fs5Oujta1f+/ijuznF4xrH7OlhvUHozH6oj/se0/7O99PAuz1D7jGn6sBUzPzb1djjsJZdvUe8UAomILppvjxXocx/s5Z4N8pofHswjzqqO4Za/PZ/W8g6srF0RFW97v8ICesx0455uad6Mj04d7VWMkRtALlqOwZCvOebSsrjb0olB/lqr7fbscQinCKQ0KD29oIfa8Ff27RMjt6yTX0kaukyqT62FKLCSqB6502wIa6+VtXcfCs/FWmDLHuH3d3byHSx2l1jVXn4fY99DXmpCcESpxDsTPubtZm1+UtqyHa96yfPRzjiOZ97G68YuAqW3nsCdAsQ0AiYBXifh5iLZGRZqxFpmf9OK6U/RmLMD4rl5HFJoEER9dH+6IVMw5rh2L76cdE0lLS+SvX1gNhKpdGOvXoPA6byXml/dFfahTRaJ6RJy7vF3JpBFVhDUxUbd/un68bfpRcDfG6RJCSBgIjTgH4ueshPmFmlYlzG34zjDPKJp7P2c/knsfj1m5OiYqCwHavrEUQzFCGaHnx7hUstZHuDNEGgQ68o5pEBRU4pZ+Z2ScAJnnvH0tPl/lM8AtyPPWUf1RXFDndaH7qKeblnRpSMMrtr/aL11PCAknORfnwPycZbS2EuaJO3d7C3O++TlrevFH1902ifexSQMXrn1Gnfea+P7JdKJOw/mD64IbtStCt3c+rngIXf+xVzF+TkyK9Y5SjNkXHewkg66uVpQ6UsT+6JHIr0tK16tvexLKHi5Nw0Pa6jLApvh+W8/z1pH3q5FI1ulrnYySOaW40n1SBc6lmOBqdFl92LpLwysVnSBdTwgJHzkV5+D8nD/BW1utsksbHo88TpXPfs52H+QlJWQ6hW36Gf29j0/ipHgXm4FWJWul/9kxgEhu3iujA8ziBxZ5M7lYu0Nj4GNrPWt0JCpC5+gLVo2Kof4tKIqtUPXe0rreyDmLp3SRiRi1+OqyaJo/IvgqYj7TMR/TE42G1qOcU4yeNSLQ0sf/3eg+fuetxX81rioxl/O6PMfR56zT5KrcOUDP2Yc8Y4G6bmtUNO7dh+3Z523Q6XpGz4SMCuhKlYww+jmHCTn3OYew5Njw+RtLqvbynCAHpKWGCPyZs2szHhSVq/P2R6Lrhfj84SDOib7WhAwnoRoQFkrC6OccErqb1PkOszALwY4UTx09ojuL0cq5Om9/rBHd2Z0Tfa0JGQkYORNCCCEhg5EzIYQQEjIozoQQQkjIoDgTQgghIYPiTAghhIQMijMhhBASMkaVOH9+9f/Fez/4Of75776vl4sffmS2DA9n/6//W3+efK7NlaFP8c7/+qNgP/vjf8FTD/xnTH+gDa4JzH7dpsqk3Fr+91+bckIIIXnNqBLnseP/LeY99S3MfWKFKckDRID/Z+CFvXdjkSmK8O+W4swv/oO1qO09fxsj3oQQQvKSUfmcs0Stna/s1yI96e67TCnwm0P/J37/L9Y5ffVPy/H1Jf8e/+3/u44TbxzFv/m3YzH0237810ufRbYJzn2EL0+8FTNr/hSnWv5Fv9eJfN7Yr3wJx//zP6No1lcj+7nPoxs7p63AqaYuvLQsjfm+JHpe9f9g7S+WwtM4S0R8z1fQ+f0/HX2ziBFCCEmLvOlzlhT0Hy9fxZ9vW4/Fz/21EvBzusxGhHn2f/gLLaTnTv5ep6dF5OX1n9X9ld5nYvGd+Ma3HsAdZdOw4G+/g3tXLtBlsu0v/pe/cTUE7M8Soe8/3qMbAcPB+QOvW2ntv72Chv+JwkwIITcDeSHOIowXfv9f8NEHv8VbzzXj7W0/xKUYJwaJdG8pvN2sRRn3lS9j3Pgvm7XUKZk9A1/8N17Gi+XY0NeXXtScgMnLHzZp7SloX/U6/jkogwlCCCGhJa9Ga0sUKxGuvUz9H/8Hs8WbW+6wHHxEzGX58qQJuK142H0eM+POr6Hq63/EwPCOgSOEEBIC8kKcJYL90oTxkXR1qnz8mw+1IEt6WsS8/OFFPtFwOkif8zSsOxiwfcXHv0P7bwox59+ZdUIIIXnLqBJn+zEmGQwmyL/2o05fe+CbmFgyBb9s+D9SftTqzq/fjf968bJOhdv7yAAxG9kuSFQ9bI9u2Y9RrfoQhzGEv5TXjSf0pkh/s96eYLAYIYSQvOKmdqUSIZaBXfc+NF9HzDKA7OyvejB7zV/ox7YIIYSQXHBTi7P9SJaT2MezCCGEkJGGfs6EEEJIyMir0dqEEEJIPkBxJoQQQkIGxZkQQggJGRRnQgghJGTkVJyzGItGSAwy+ctO9f9USOe9hBAy8uR0tPbFixfxve99D+vXr0dJSYkpTUYP3thxBAP6dTEWPv0QZujXwNAvd+O1DywnqVu/8Sge/7NC/bpn/w4cOatfapzbMkPO4TTKHJ+dCnIep7/2NB6aaQqGhSG8u/s1nNDVcCvufeRx3B+ZkdS/7jLl/MF1qNgINB57CTVTTOGIcx4tT1VgYG0fNjhmaelumoYVDdbrzW+6t+H9nZi2qxhdP6ihmQghJHTkPK39wQcfYN26dWhpaTElqSDC8jSe9hAXEd6n1bZY8S1+QN6vlkfuVR/ainc/MRvyjkLc/7h810dx762mKMIMPKTrbaGqwSA4j863Z2L/mzNxqCvg6UrT4PzB51B7z36X+EqjYQX2o6+vTy37gQfVb2zQbBTu24D999TiuaCnWSWEkAAIRZ+zBO/Nzc3YunUrhoaGTOkwcccMlN76GT7V92SJJN/Auyri3rFjh17eOKXfpZAI1CqTZfcvrfOS6HeHjj4HcMRs27G/R2/z2wen3tDrEr0P/MLe/ob6dOt4kfcJ8t7d76ojWZmAN375Lnab40U/R/GJo9wcK1sk0pz2VIuS3BQZ7MShe+ai/E4l9W93RveTqLSpRUWz6njTZImmkEU01x1s0fOP622Rz5Po136/s1xS0G5hlfOMzl0uDQQVuX/Lmb2JKRscwCm0xzUgyr/V6D5vQggJCaEaENbZ2amj6CNHjpiSYeCTHvR+VoyySGp5AL2ojkTVl49bwtiz/zX03m1F4RKFln74mhbuGSvsyNOO3tWyworf/fbBzId02cKpjgjeRP0z/r2K5D/s0Z8p9PxuAMWz71fxr8XAB5/im+Z49/7hiGk8qEbFT+xytTwAHDGCPpKc7zqEmZVKAKfMxRIcQqczMm04BDwrUWsfuppO4RVHhNq+cQBzdUTbp6PXn74vpZNR8wOrTO+z+JCJasvx7SY4hLUbnQ2b8YRtySkNBPXpc10pddV0apuJYimThsKcASxpqrI2OZlSjJltMedNCCEhIFTi/JWvfAVPPfUUFi5caEqCIxKx/qQXpY840+HF+KadAr/jfjz+uAjjEIb+cCtKv25LZCFm3H0rLl9IJH+Z7KOQSF41D3p0mr0Hp/9wLyodfdK3fqPSnKvjeKdOuyP3X1i9yNlSvlEJY8p9sFZ0WnynvJ6MuYudAqqoeyLSBz152Usuf+uqpm8rybWQz7TT0TpyN5FzxcZ2q1AxuWJJNMJ9vxOnHPsnxO5X7tuAuabIjWpiLTUvCSEkRIRGnOfNm4eXX34ZCxYsMCXBEo1YnQOkwkAh7p89Ab2/sUQXjqg5lvOfWoPdNFMXmu9jFt2oGEEkYm1rR+2cqJi2Z5MiVkK6QkXE++3I2RnpTqnBE/dYEW53B6JRsy8iuvVY4RjwNdAXFfsojgibEEJCRM7F+Ytf/CI2bNiAZ599FpMmTTKluaYQhbd9ZgmmpgcdH3yGCQVO+buMIdegslT2UXt5RdIzyzDhwx68+zs40u2xqKj6rInM1fuLz/4q8EFt6fQ5S0obTV2RNLQMutrcJvF8FiyVzgKhGz91RM5CeaUMOmtBp4qBXVGzV0pdR/JVqFo818oCDLbglYYqLKmIEXXpi458JiGEhIecivPVq1f1QLDq6mpTEh5mrFiICR+8ZgZcHcHlbzzqeARqBiq/AZz4iUkrm4Faifcx/cuR7c5BXDNQdtsJnECZI91u8ZnjeHjAjvpn4KEHJkQ/Xy2uQWXDjqS02zGz2Cl25ZhbV49O3X+cAfd9G42oRYVOa3eiOLaP+L65mLmxFpA+bhdWSr325+6nlicv24Ylb1dYafI5tZj5ZvyjXt0/V8ezBZwQQkLEKHSl8n/GWEY3t6I6y2eYc4GM8m5VkaM75Z7d9/E+pkVmz2nnFBX9rvsHYJtnn7j3c84Jsfuj+ZwzISSEhGpAWOrYg6HiHyGyI82RjSQzxX706jV8OjuovvDoMa2JSJyIKMs2eyKSUYCIso5+B/CEr5DKSG95ljmNGcIeBPZTmAkhISWQyJkQQgghwTFKI2dCCCEkf8kqciaEEEJI8DByJoQQQkIGxZkQQggJGRRnQgghJGRQnAkhhJCQQXEmhBBCQgbFmRBCCAkZFGdCCCEkZFCcCSGEkJBBcSaEEEJCBfD/A6LPZOPxWgZ1AAAAAElFTkSuQmCC;" vertex="1" parent="1">
          <mxGeometry x="430" width="487" height="287" as="geometry" />
        </mxCell>
        <mxCell id="b_LKB6QUHwTkPTV8HH8e-4" value="模板" style="rounded=1;whiteSpace=wrap;html=1;" vertex="1" parent="1">
          <mxGeometry x="-160" y="10" width="120" height="60" as="geometry" />
        </mxCell>
        <mxCell id="b_LKB6QUHwTkPTV8HH8e-5" value="" style="shape=image;verticalLabelPosition=bottom;labelBackgroundColor=default;verticalAlign=top;aspect=fixed;imageAspect=0;image=data:image/png,iVBORw0KGgoAAAANSUhEUgAAASsAAAFrCAYAAACJ/K/YAAAAAXNSR0IArs4c6QAAAARnQU1BAACxjwv8YQUAAAAJcEhZcwAADsMAAA7DAcdvqGQAAABhaVRYdFNuaXBNZXRhZGF0YQAAAAAAeyJjbGlwUG9pbnRzIjpbeyJ4IjowLCJ5IjowfSx7IngiOjI5OSwieSI6MH0seyJ4IjoyOTksInkiOjM2M30seyJ4IjowLCJ5IjozNjN9XX3RrRgxAAAtNklEQVR4Xu2dDWxc13Xnj7Mf2TL1jEhLlqDumGQUCrG07jTKBlpWoeVUgQyuZAPproOGAQFtPmpUQNrtogayWSEwCm0awMLuJgEE2EkDAUTZhQ00gEOVMBHVlrm2oC0sd2JIXUhRNMxktZRlU5qxQ8QIYu099943c9+b9z1vPu7j/wc8ie/NmzePM/P+POe8e//nrtHR0TvUI8bHx+n69ev03nvv6S3pyOo4AAB7+ID+HwAABhqIFQDACiBWAAArgFgBAKwAYgUAsAKIFQDACiBWAAArgFgBAKygp4NCAQAgLYisAABWALECAFgBxAoAYAWoWYH8U56iuYMl8UODKnMLdGJVbQZ2gcjKYfuT9Mljp+mBj+n1Dtj65z+lP/jOX9GH9Hp3+RJNfEe83p9/U6/7ofc51Vo+/jn9kEGm5/25JfVaPXsfQqgs0+xT83TygtCt2Rk6XtbbgVVArHLPN+njp75GH7/1LP3PIx9uLj+//x9oYp/eJVP49YRI3X+TXntHbxoQzp1ZkKJ1rKI3AKuAWOWdz+2hCZH+vPbCV/UGxY2v/w5deUWvZAZHcJ8lekEI4tdf1NsAyIa+1aw2z5ymyQ/rFfoFvfH9z1L1ul6VfJEeOPb7NKbX2vbhtO0Lu+jn3z9J9O+eoAeKevtP/4Z+OP+XekUx9PCzdOATZjLSOlb7YyZX6dzxP6a39Fo4HFF8VgiDP2+9/g360be+p9cEnCY9/BG9IviZiHy+7haUtn0EV4QQvPbX4od9f0Wf/vIkbVab22jup4/RXG8j/nl/6E/+gR75yEX64Vdq9FHjOW2/m4SFS0R0dE7s/3nxjgPQGX0Qq4do7CssLqYQiG0zD9Gb80/SOq9KIfoE0d8/Rf/rhZfkHo6oVE8fojdeb+0zLH5sbvvYt+mRQzta64zcts1HDD3o49XN56aEaz+fGg6+SOVF/7E36cUjB+mG3KIvbE7VHMHSYnQrUGQcfJ7rQj9+t/jxnXDhiHfeBfmzWwzvpde+643UIFYgW3qeBg49fFQIFUc2ZsTyElUdoRJsfkiIUP3v6YIWKmb9hZP0Rp1o7P4v6i0KlzC9XqGq+K9470NqXTB07zbx7yq9GyZUPeWb9FFxwV95wREq5nt05dWfEN23h7bqLXTfFhE1NajxM72eGnHsr3yYfvh6g+juSXpEFtg7qVeJlPK7hoD+7Kb4HAtUuE+vZ8WXv02nT5/2X8R3pfUJg41C78XqHpFy1S/Rm4Hi8RD95j1Ety6/1BQvxUv05mXx9/meEg3pLXFYf+EFIWA7aPLYaXrk2LM0tl0/0C/2lWQ0OPGwuivXXGS6dy8VHBH562fptXcK9PEvq8f97t4l4Rff+h1dXH+Wrghx4eOmO+ab1DAjqFc+Tz8Sxw2P/lLw3T+mQ4cO+S8zT4pvA9hobIAC+1/SG8cP0Q+PPyUisw/RA19g0cpmiEIncBpl3p1Ti5lKqYiIt78ooitH3D79J1/Sj6flq/TakW/IO3UTvzsAwwoAiEnPxWr9bREdFUdCoqOX6N23iYZ3PuTZ5yG6d6e4tN6ueSKuuIhU8zuOaLWnkz3jlRrdEv8N3xtfdG58vSVamz/yqY0hMEgDgYfei5WTln3lSUOMuMDeWn/rH68KQfsE7XnYqD05ta6X3Hf6krOD7i6KNPNt8Rom12skNCwTEXv3ba4P7abtvnWhr9L/eb1Bmz/2tYRp2JeowPnjrZqnWP09arD6mfUuAy6Kt73O5z4rC+5XXnUXvsPPu8cgDQQe+jR0wbkjqFfFJdN2t86426fwDCPwvXunhjsUjbuI7iESilvG4y6iXjMB8s6aUXT23t4376w1MYYvRD3uxrjjpzGHKnjPRRXJ/cdZhZ13+13MdnzPWxM8fAKAaDA3EABgBRugwA4AyAMQKwCAFUCsAABWALECAFgBxAoAYAUQKwCAFUCsAABWALECAFgBxAoAYAUQKwCAFdgjVtt209NP+HUmKdCf/eEMzfk+BgDIC4isAABWYM9EZo6sZst0cwmtlADYiAxAZKXSuKcP+NuK9ITAFBMAMCj0N7LS0dJQvUInn7lI5/RmBYvYYSo3Pa8UK83Iyvu4T2tw2Ta82L5dvy5dWKDHzzTkpskDh+nongKtG9sAAIND/yIrFhIWquoyzbYJVYmOPyGE6JZq+y2XuYrHzrhBJ57Rjy3V9DYPlSqtCFErT5X0BsXk7nEaohqdNURJdusVxxnac5jm/nA3TertAIDBoC9iNfPYjIh4SjJKmn2uXWgmD5RpVIjJos9jyajR6QtCkMbGaEZv4Yhs3w6RclarNK+3NKmwOC7TSrFMR5+YMp4DAOg3PRYrVZ+aHuOULbhQPj4SICYpOHfxmojISrTLqUdtK9FEUbz+cpAQ1ujYUwtUqZdoGnUsAAaGHouVSt0WqyI1m+2REKxepLNVotGdKhWUKWD9Gr1i1rBc6BS0KCI7kWLiziMAg0Ff0sD551SdafSgSAcfc9eTmgwX3HWjrWHtu8KZvyyiKJkKqhRw5by3RqaRdwWnaJQL/iIdzCKyAwBkQ/8K7Fwf4qL52FRbQVuKS7FMh5zIS97VCxC1OMhCu0gFD3AKWKNLPtES3w3kgj/fIWwv+AMA+s0ADApVQxAmrrqHDDhDCSRyaEODDomoh5pDFzhdE1GQ3MED32H0FOdDhyZgwCkAAw9acQEArKB/aSAAACQAYgUAsAKIFQDACiBWAAArgFgBAKygp3cDx8fH6e2336Zf/epXekt++MZf/Ff5/9f+83+R/wMAsgWRFQDACvoSWTUa+fOL+u//47/J///0P/4n+T8AIFsQWQEArABixfDcwydUhxy5BE2uBgD0DYgVI0332HWUfaz0NgDAQAGxAgBYQb7ESqZz3bIjVi6nSBEB6A+5EauWr3u7aZ70quq4JtWgE8/7+28BALpPDsQq3NedRezonrq0KFZ1qWVaSSs4qxfp8WZDicP0Z9v0dgBA17FbrKQN8WEqE9sQe3oDMuLx/WPca9CMtmp0jFt3FcdpXyqx4YYSPfaRBwBYLFahfQc10rfdx8ZY9xPctFWvp4B95E9eaIT7yAMAMsNesQrxcO8FKr0sBPY+BABki91poKwhLYgkMKCGdGPN3TPQoTxGo9Sg2zf0eiLi9T4EAGRLDgrsIb0IV2t0pU4iVTOHM5ToOHfKqVbaa1xRRNXIAABdI18TmWXLLqJFT88/Ttmmx/SKwNvhxtVJxwVHT44oqS485VvtnXMYTGQGoLvAdSEjIFYAdJccpIEAgI0AxAoAYAUQKwCAFUCsAABWgIYRGYGGEQB0F0RWAAAr6Hlkdf36dXrvvff0lnR85jOfoRdffJFu376ttwAA8g4iKwCAFUCsAABWALECAFgBxMqLnKys7I+fPuA3X5DRfuy8n40Wx/p3HHTjQGlVLT+LEF99o40ajBDzDcTKRYmOz4pv/IUFaYFsTnY2mXnMcV6Y9zX+44nRTaHrpImFJaLSRkbnzQaH/DksVks0HfRHwWmjtlSj0YOwms4zECsT6XNVo7MBIqUo0S62Sj4f4E4qGB9pRWSTm4tE9TW6ptdBcuaXK7QeZUNdqVClXqCJ3UHRMLAdiFWXuPlW/pwlAOgnGGdlEuCH5UakiiKtoyX/Tjqmb5YX00er3UOr5Z0V7K/F1FrnJ8+3aHhuCTgFE6nsTdf5aS8uEeSZsCWz+Tt4z9/9uDrGxNUFOkUPGufXOp/Y5y1R7+OoXpOwn76fRbT8ncbpivl7ttE6v6D0HdgNxMqkQ7FSmI8HXEB+IuOHr/AYxBIrLQqmELTto8XMNBYM2ocFr3ksn2MzUeft93phyONBrDY6SAMNZnay3XE1RKgEuq7V1jHHRbi/u6xjUZ2uhwlVRkweKMvzXQwThXJZiJBnn9WLdLZKNMrviYlLmMT7IPah4ULCO6JF2iTegvW1ul6PQNpTF4Q2h3URatArVxs0tKfcpY7coN9ArATOLfJdl0M61XAUw7fId1Zlo9RAQdtWoC36R+ei9Navzp2p0IqISqb5eF1uliqL/RECrMTTOZ/WIlPCxEIUhxqdvsDCojtlR7YyUz77J9fKcv+gISXnzizQ7Nwa7edjomt27oBYCZxb5Jd2hnzJnVvkl8fEBeMjMJyq8EUi0p8hkZJw8woessA1GdlbUPzc+ouvGqXOcmcejhjkvv0eosA1JfU+uJagnowdIoWFj88NZ7mdWqjAcLo5Q0foZfmc4CEl4hiPEp3q4nmD/gGxMpi/LC6c4giN63VfghqkyrZg+uKr6zFY3NdQFs7Fz77RmIoYlGj5pFxZ4Y2OZPPXFufe4nSsSNv7MUbJGCcV2CVbRqsNunIxrBZVoO3DIrW8WoNI5RSIVcaolEojRSFObSqghrPaoJviv0ARk30RDeHUhW1TiJQAl+mQE7XJorzneHqMUnk25eBVL1Hn7UMv63jATiBW3eBWI/Sve2saibNM0RZPezCFSBedrtPGvk1BEdHcKaeFPT82O0JnRQS3oh+WiMil2eae99m7JqI+zz4ywuPorr1ulS41jThvJ2U2lqN76hF3YcFGB0MXTGTU0enQBZA5GLoABIisTHS7+f2BE5iZOt3m+tJe3G3qFZO7x6PT6W0lmvC58wryAyIrL0ZNx9u5uYUeDMk/cjEdd566QmtEvdkZ20OszwvkAYgVAMAKkAYCAKwAYgUAsAKIFQDACja8WHEd7YMf/KBeAwAMKoisAABWALECAFgBxAoAYAUQqz7A9r/mvLjgll8CHvTI+8GfCWxwIFZ9oOnl1DahGAAQBMRq0HH8njClB2xwIFbdRqZxGflEtcFOAyJFjLQFBsB+IFZdRPpWHSzRylIKnyanVuUsvoLUoBPPa98o1LRAzoFYdQUV8UyPKUvjVL5XTvqnLY8DkXbKy7RSLNPRLjefAKCfQKyyRrpgHqYysQ97RF/AzFANKBarqvlEfxtPANAdIFZZwqkbe6Bzb70+FMS5S0/Twhh1LJAzIFZZwqmb4z3ehxoS18i4fTu3fY/V6RgAi4BYZY2sIS2IJLCXNaQMamQADDgQq66g+gH2pIbUlxoZAL1nw9saZ3VOgUiPcHfHnJa3uBfuiqz24yk5nNK1Y/qRq44u5Vsi/UTaB3IOxKrbYgUAyASkgQAAK4BYAQCsAGIFALACiBUAwAogVgAAK4BYAQCsAGKVEWjpBUB3gVgNOOxlZeJddwjaHkaa54D4ZPlZRRHnmFm9Lh8naukGEKsBhz2tzA/fu56Ebn2JQG9xBMFcnO1J8R7HWaJQXmv+S7eAWOUA/nJ180sCkpPFZ2KKh7mYwuC8hvlzEszjpD1Gr8B0m4zOqV/Tdpwvbxy8+yZ5rguePM2+XeLH9QsL9PiZhtruQs9bLIof6xU6OdANL+Kda2tOZ2sOpx/8vvrhvNd+jwd9DnE+s7ifY5z94u4TRZzzSQrEaoDFKs6Xwg+/L0rSYwV/2Up0/Ikp2hIoUgp5YQ8Pukh5iTcxPOp387vgnW1hjwXhfdxcj/NcP/yeE3UshzivGec4SYFYDbhYJf3Qg57jtz3Vl8rHRaIdJWi0ZKG3VpzfT0aW43Sl6X7hJuy9TvI58PY0BB3L2Z7kHPyI2jfJsZKAmtWAkuYDD3pOt748IBlpPgfe31z8tplLr+DfJWjpFoisBjiycoj6AoR9Sfm5QY+HPRZIp5FV8/lV2iX2GdWb22tfRh1JY+4j/b52XKPFq+M0zb5fXGt6nuiIrKV5akpGjU0SVkPrcmTl/ZmJ2t8kaDsT9zHnZ/4/jKBj9QuIlQViFUTYlzMOqZ6fiVhxM4uWiaAyGiTDVJDrQodp+7IhBvp57C/Px2yaE3JzjuWCFA+q1+nsM0oEmzU1+byi59ghNaeMxMoP87023/ugzyHoOEGEfZZRrxd0Dg5Jz8Uk7LhJgFhZKFbOFyfJlyDJly3suPJCpwhn0rAL3kc8nMjnZmiNy13YdwkcqeeTfKxo7EcyOpu42orIJKFiE+cGQnghPo4YmOt++/sRdz8vcV4r7bGZTp6bBIjVgIoVfwHSEveLk+RL5ty2dyIbX3T0I6OdIDGLK1Z6WzN10zipoBKruhJE1/NNsVHC5aSaXsJ+lzi/rxPdeVNYv/c17L2O+zmEfSeinu+8RtBrxT0Hxrtvkud2AgrsAwp/+EFLnMezhnsS8rEv7ZwJbjPmdJG+PCa+wB109nGEikWv+Xst04p+OCksJq3jtBZfEeLXFhffrssh+8joa4aO0Mtyn+AILDtMQXDO31niwPt1U1T42N4layBWIBHzl0XEVByhcb3uS6UqhKVAm7bq9aRsHRERVUNoX0iqGYs63a4TDY0YVfoo5GvX6FJANCXZVqAt4vyuXOy+SDF84Tsi44iOg/lYGM5+3RARho/tXbIGYgUGjxtrtO4SO5XaBaVzwTToxHkheGNT9PQBv05B3YNFwVzSws/1Xvi87hw3jiiY+znPTYtzrE6OkRaIlUWk+YLwc4KWOI/3hdWLdMppgy/Phe8sLlBFREmJ4dR0qUZDew67frdud8zmC9pcvDjvL//v9zjj95hz/s5xnfUg/I5hEvZcL+axnNfuJSiwD2iBPYioL1/XiXNrP2zowqAT5/eTNbXgoQtxiftZmqIQtH+cfYKIcx5B+5ivG0TS8wkCYmWZWPUdXfxWwwQibu1zl2ir5gZGjMHSuO5E6m2g+yANBMkQKdrjRlrlXwvi9vnLtFIs01GxT7dTrs5hcVXp1PRYjRYDhIqFjPdR47sgVL0GkRUiKwCsAJEVAMAKIFYAACuAWAEArABiNYBw/QttvQBwA7ECAFgBxAoAYAUQKwCAFUCsQGx45DYPinSWXk8OBhsbiBWIzbkzji9Uem8pANICsQIAWAHEagMi07luzdfTTpvHy3odgIyAWG0o1IRdORH3ee9k3dZkXmdJJTiGFxVqWiBLIFYbBvaY4j583FPP68OkH+NuLbImJZalWmrBkbUtx5lh4B0XgC1ArDYCbCjHtsCyAUO7tcnkgTKNcmNQsyNNZZkWq0RDO0rpxEY2j3BsYqaot56SII9ArHKOrE8dLKkOLwHtscZHRPRUrbaJWKzmEKHU6JiI4ir1Ek2jjgU6BGKVc1wp2WPcCbmXmKmnhRbHYKCAWG0EnJRsTKWD3pTs2lqDaGysbfvMTiFu9TW6ptcTIe8KitSzXqGTsP8FGQCx2jCYKZm7Aem5i9doXURB02bkVZ5SHYnPJ/dQl6mn9mmftcyDHQwusDUeQFvjblsky4YHO655miJ4e/M13C3eBU5L9XY4zdPRk24o4WoFD0AGQKw2oFgBYCNIAwEAVgCxAgBYAcQKAGAFECsAgBVArAAAVgCxyjF8VxFdckBegFgBAKwAYgUAsAKIFQDACiBWIB3SIyvCUVRbHPM+iU38MrRH5mlCkSaA8vdxz5kMpuWq2l3bG8O9NeT85e8n3+d8+4ZBrEByWEgOlmhlSbmK+s8BLNFxZzKz2OfxMw29vQVfZM7F3lVfeGtp0Iln+D1eoAqV6WiAxc/8c+pzWKyWaDrH7yHECiRmcvc4DdUrdDpsonJ5TLqPnvURKUWBtg/rHwXSAPBWwxKHBkdEejVZW7ze+ZqvjY/J/HKF1ovjtC9WdGgfECvQRxp0+4b+EYAI4LqQY9eFLM/JxN9ixgPXgA5SyzqmCddh2D1Ur/rA6eWxG2w1M05X5l4merS1P9sze1NKeT57jJoYe80bFs7S2obEtstj0uJZ4bHAaZ5vlXYZVjnu1/Oee7uNThN5PCNt85yTxLuPQP7uftFa4PtpIO15+D0LOCfLQWQFeoxOoeZEyiIvdk6nVIfn9hpYgcqzh2nTebXdsWc2i9osREf31KVtstyHj8WOqN7aDW/bu0Yn9X6LVXHsR731HTYmLNNteU7O6z1oFN1b6R8/FoSsv0lh0ftyzWlYvL5Zc/LU/ZwFHmDBQKxAQgq0b0eB1q/WQutL0hLZpwmFmzpdj4gAXJFGpSpFbctmHUWJC34/u5kumdFGjY6xkHhrN2yvbESC/vUdT6RUqVClXqCJ3UnuZJbokIjy3OfkU3PaOkJDYnvsNFj+7iXaH3ZXdbVGV8T5lqfc0VpegFiBmDi30R8ket7/7h7j3EbfdVlECgHddCTyYtVsK9CWJBeugzxGjS55oxF5YRdo01a97sdqg25G7SPO6fotoqGRkJzVi/xdSPZcVMMJ9CLTvSJtd8RRC2F5Vj0ePQSCbann6eyIiNoC91eR38m1stwnb01mIVYgJk4KxDUkcYFF3Ea/tFPs43cbnWsvzYtXtehiv/YhmfIFPKcbaFEJx33HMgne9E4tZi2plVJyf0ZH3AIFRo87k38ExHP800W2pp6hI/Sy3CfoD4qtQKxAQhr0ylVxEQwXQkUlsOeg7LQj/vpfEMeQTVfFxSfrP6pdV6IGEzfWZKOLXd4oQw6biIjUYqVhRdokgqr1tbpej4GM2IxUNQatcVIhTWWDokgTHaFeuZgvkXKAWIG+IMdVaSY3C0VI0/JL1mg4KjFHbovogqO2aiXkjlicfTil5buCYWPF/KjRaSHE3hsB0egozpqxZr0HYgX6RqKIxReVSsmR25xOymWKtni6T8u+iLKNffA+Kkpr1ZB4mR729jxUaZZ8XKaxxv5GWsyNZTlybKtbGfvIO4bmY9wM9pbP8AbQBOOsMM4qMZ2NswKpwDgrRFYgOefeEhGRiFQOhaU5up4UeqsdxCZOd2w5DSrGcBBbgViB5FSWXWmOb21m9SI9rgdx8j55u43eG1quC9NjNVoMiGSd4SJH94iPZi6/kSzSQKSBAFgBIisAgBVArAAAVgCxAgBYAcQKAGAFECsAgBVArAAAVgCxAgBYAcZZYZxVtshpIa05cL52vk14rh1PFg6xB06C8dqB9sBySgpb0vhbJEchLZLH+Cd2iQgYgBnnPNLSNqUmgdWyoGkBHfq5DCaIrEC2aAsYaeXb6TzlJPBFLATC8ZEK9HuKaA8WRay2V857sFSj0YNxexHGY2ZKCK3LLaLlixVmtZwHIFagjyj3S7cpXTqyaQ8Wn1htr1LZIodRol1s48xeYSlhRwgpbBa6O0CsQAcoy5Rkvk3xkXPecty0042aBxg2h3LyQJlGowS5E7Qbabc+z06BWIF0cF2G603V5RQ1GcMXSi7+bc/nn1umFelDle+26EokDlOZKnQqMOqL16gjCK9/lq8orl6kU3qC+iBOPIdYgcSoVlMlWaBOl0446Z+2Nw6E9+PalzLXG9S/+B3Bos8Ffy54h/qDlalcTG9Z3Ez/uFWZ3uaH3M9xyxiwqBZiBRKgUhVlRdKrhgS6Y0voX/ws24PFJFbbK+VXP7Sn7BsZyjTXuSkQIfrq3MNtmDND3iAYvKgWYgViwqkb3yLnW/a9d6L0/4ufcXuwRGgRjWh7Jc97bo32c/rlOe/pMdXkNTKNFmmi7I/YQWE9OYMX1UKsQEzML2+2t+Pj4Eo9m+mSc9u+w/ZgqVB1t6i2V1IoHyU6xSmY57xlV+jZaCGIdaczc8w/ThmPFUsJxAokwEnJSF5kvSrC8gXPAxk5XfIXhQ7bg6UhVtsr1bEmKD2VIirHYgULbdwUN1NkwX9K3nl0N8zoLxArkBhXShZ4kWWBil6kpW+v/rrr2/fcbaYn0SPXh+YqtD425R/1ycJ6NmPD4iAjWGfgbFjBvw9ArEA6nCKsuMjMNKZ1i1xPAeGL0HvxNwVBRUwsSk4rLTNak337ev3X3Wxr3yvYr55TbCrTEU+0Gn1TwBgGIqf4+LcHc+p2criJWHe88V3DRsTnciQ0gu0vmBuIuYG5gEWyp+3BWHAj216peXsTV5PPQZTI1yjTzaznF1oKIiuQC3rdHixW26ttJZoQ0eXNt9JFKf0prA8uECuQD0Ra2ov2YE46Fdr2So7uF/vp2k/aqEjWBgesbtRPkAYiDQTAChBZAQCsAGIFALACiBUAwAogVgAAK4BYAQCsAGIFALACiBUAwAogViAdzsDHoAGYjDEHMHIApty3ff5gFj5KciBnlDWM/H3iTl52fLS67fPUep2w8zfn/eXZ/hliBZLDQpJx26v2FlOg5delJjkfjfDrCm0PlgMgViAx2be96rzFVG9xRKRXE4zF650X783YWGjkFKs9mMVArEDf6XqLKZALIFagz4Q5YTbo9g2jbiMWv9pXy0NLL37p0q0GnTPqbP71KXZRMPyhxOJ+Pfe5hNa4XK8lFr9z8u4jlu7WwOwGYgX6S2iLKTaSO0ybzquUy3EnNS9oZXlcl06ich9tCNhWkOZte9fopN5P+p8/6q3vsAlgmW7Pma/3oCFIrfSPHwtC+cWzb5bel2tOw+L1TcHy1P2cBb5VwUCsQEKybXsV1WKKL+bmBVypyp53WzbraEdc8LLry5Jp1VKjYywk3toNO44adiv+9R3uNmOY6aVq/16iQ9Jt0zwnn5qTdCTlyFGvRyF/9wgvrljtwewFYgVi4qRAGba9csQmbWFdXvA1uuSNRuSFXaBNW/W6H6sNuhm1jxCT67eIhkbYnzkmspEENX21mou0HC7SdkcctRA6FsTR6Z9qDHt2RKW8/vuryC+qPZitQKxATJwUKLu2V311wtSiEo7qTpMGb3qnFtMCuZVSLlZb4hYoMHrcmfwjIJ4TOFxE7BPVHsxWIFYgIVm1vcqgxZS2Kd7ljTLksImIFCtWGlakTSKoWl+r6/UYyIjNSFVj0BonJaK4HSX/9zUoijSJ1R7MXiBWoD9k0WJK1mg4KjFHbovoglOu0AGmcfbhlJY7wSQ9xxqdvsAt4903AqLRURzftVQbgAeIFegLcQvw4ahUSo7cFumPrA09MUVbeNS8US+7tibEplimoyH7qCjNaGMllulhbxswY1iDrEEZ+xtpMXunm37wzcXYp224xROHqXxrOcP29vkDHuzwYE9Mx22vuP6CFlPJCHs/HeT7GtUezF4QWYHEdNr2Ci2mkiMj0foaXdPrfsRqD2YxECuQnA7bXqHFVFxaI+ZlC/2A9yxWe7AcgDQQaSAAVoDICgBgBRArAIAVQKwAAFYAscox165dQ70K5AaIFQDACiBWAAArgFgBAKwAYgUCUPPgkk3GFcSx8wUgBRAr4EvqJg6VZWl3Iq18EzirABAFxAr4kIHXFAAZA7HagEh7kjAXzyy8pkLRc96QIoIEQKw2FEok5ITX54MnEod5TcVqexVJg048X6F1vy40AAQAsdowcMH8sIyYFl1e4B5CmjjEbnsVB3Zl4OdLU7yQ/nsAaCBWGwF5h26KRqtc/A63EAn0mnJELE7bq9ioji2yh98sGnyCcCBWOUc13CzRutfG1xfV8863sN5J26sIuGFC0x8LdSwQAMQq50ijO8cEL0oIZFeYbhbW/VHpJTcGFaklPMhBABCrjYAc+6TrSyIdbHWCcRPaxKGTtleBqIL/9Bh3QoYfOwgHYrVh4PoQD9TkTjA+BW1ZkxKisRwQ2aRuexUANzfggj9xB5l8NjgA2fJPNm3a9KT+uesMDw/TO++8Q7/+9a/1lnTcf//9IgCo0i9/+Uu9JT1ZnVNWx2GyPJab9+jV196g1d/YSY9M/jNafe0m/Vw/Mrl3L/3u0DX6m7OtbW7Uc3/jtz5J04ceoN/fx8so/fMLC/SFBW7rqeAa2V/8+38tHttJ2/6F2LBptLnvjp9eplff5b1ERDXzIJVWRcQ395OA1wPADTzYc+zBHh8e1qB66eWt5TjID0gDQd8K6wAkAWIFmgX4vLZwAvkAYgUAsAKIFQDACiBWAAArgFgBAKwAYpURWba9QgstANqBWAEArABiBQCwAogVAMAKIFYDAtukuCxcErW0Um2z5uC4CXIMxGoQ8HM8QEsrAFxArAYAZSV8jV5JbZOi7IFZ2GC1AvIKxKrbaP/zIMM7x0p45Xxwt5nOQNsrkA8gVl1E1qEOljxNFjxox4M2b/NYOLUqZ/ETRbS9AvkAYtUV4tr1iv32hlgJR+Kkf6rhQiBoewVyAMQqa5LY9W4r0UQxxEo4U9D2CtgNxCpLuD41W6Yh7s/3THQNamZK7NtRYT05aHsFbAVilSU83GAubn2oRLu4aWjXCuv+oO0VsBWIVdbI+tCCSAIj6kMdFdbTgLZXwG4gVl2hQSeeCasPqcL6+oVKb6yE0fYK5AB0t+l2JxmuYx0kWjQ9zlk8ZsfpylywcHBLK07X2uHISD9PHqdMQ+oBF9wuXnWq4YhKCNUtkaIi7QMWA7HqedsrVTeaHhZRTowiPABAgTSw5/SnsA6A7UCseo4a74QCNwDJgFgBAKwAYgUAsAKIFQDACja8WKGTDAB2gMgKAGAFECsAgBVArAAAVgCx8iLn0SnnzacP+E13YdSkYOnOGcNdgd08B8o/Sv+Og+5pJZ1W5WcRYgttdAGCR1e+gVi5EMIyK77xFxak+6aaW9fOzGPOpOD5SN+qyQNlGq1X6HSaQaCWiEobGZ03e2/x57BYLdF00B8FpwvQUo1GD8IFNc9ArEy0bcvZAJFSJJkuU6B9Owq0frWGqTUdML9cofXiOO0LE6JKhSr1Ak3sDoqGge1ArLpJuUzlYpT4AQDisOFdF1z42bm0wTWoKaKl6Pl90l2B/K1Z2i1gWtYvwfYwTK11fvJ8iy3LGEbbxtx0nZ+2iSnqVQ27hZq/gzxfETU6uB9Xx5i4ukCn6EHj/FrnE/u8Jep9HNVrEraD9rOxkb9TuKWOeX5B6TuwG0RW3UJcYPs5Xbzsc/EJkTm6R2Quc6omo5bWhXjujKqZSYtksS4tiJv7hQmpHywK2s/KOYY+bgt1w0AKq7HPloPtdaehPUKQRip6v2VaEcef1l7u8c+bX08IFYtT83GxwG8LhACxMpjZGaMtVkw7YtVl2b+wPrmZQ5w6XQ+MErJDFvg5qgkTAp2uuvZZvUhnq0Sj/J6YuKIf8T6IfWi4kLAfYZE2ibdgfS1mX/zVGl2pF4TGhzW4aNArVxtCTMshDWWBzUCsBM4t8l2XQ/66O7fId1Y9UYIfqstyUGH93JmKikj4eF3u4zc+ItKyCAFW4umcT2uRKWFiIYpDjU5fYGE5rF4rssuOsok+uVaW+wcNKZGR3dwa7edjoqFr7oBYCZxb5Jd2hnzJnVvkl8fEBRMhMJF3FZ3mpAvyDhb7tPNF2N8hClxTUu+Da+mSm2kzZVwSfxy4G1CowKixakfoZfmc4CEl4hiPEp3q4nmD/gGxMpjn+lJxhMb1ui+VqoiKCrRpq173IVY6KVERgxItn5QrK7zR0dYRl2/7ubc4HSvS9n6MUTLGSVHQ8IRtBdoi3qsrF8MK5wXaPixSSwwTyS0Qq6yRhfWkXZYDajirDbop/gsUsRtrtG4Kp74TaAqREuAyHXKiNnkH0XM8PUapPBsyUjwJUeftQy/reMBOIFYZowrr4V2WW9NInGWKtjS70ZiIdNFpmmrs2xSU1Yt0yumuzI/NjtBZeYfOQEQuzQ7MvM/eNTrp3UdGeBzdtdet0qWmEefNomq8Bi9H99QjhoyAjQ7GWZnIqKOTcVbqMX/hAanBOCsgQGRlItOqEu0PnMDM1Ok215f2+hSDY03XAUmR0WpUiritRBMik7z5Ft77vILIyotR02k1CvVijL6uo/9ft2iNqDcau3qJ9XmBPACxAgBYAdJAAIAVQKwAAFYAsQIAWIGVYvWDH/wA9SoANhiIrAAAVgCxAgBYAcQKAGAFVo6z6hQ52DDAbjgYYyCoxGvTCwDoJhsvskrlisA4HlTzcmIwAKC3bDixiuOKAAAYPPIlVjxPzLQiaUPZDcfr+ZcOaf8CS10AMic3YiVF4mCJVpZC6khhzR6k0BkeSykFZ/65ZVopluloqGgCAJKSA7HSbaS4DjUX1stP7Le35Gs3zP3uVP89VZOSNsOUVnC4ttUysrOu9TsAA4rdYiUdJw8LWanQSaPvni/S78ivsK470Vx42Xh+g048z73vSrQrldjobizaoTOoGwsAID72ihWnbew3zn3sYvhJzUyJff0K60HNCGSvOqItm9MLjezgslRTLadQxwKgI+wVK+6K4vh8RwqBiJC4O3IXC+t+qPSyJE3h0BoKgM6wOw1cvUiPN+tLIb38wgrrshNLgSZ2eyKoDm1yueB/lO88LgX3uQMAxCcHBXZVH1qsqmah7QVtVVhfv1AJuEuoWqAP7XnQEDvxnEc5bfRv/x6Oasg5PaaahgYX/AEAScjXdBvpx+3pThOrM4pK2TgSasK1MHM6jjyOuyefg+n9LafyDMOXHYCsyf3cQIgHAPkgB2lgGP0prAMAsmdDui4AAOwj55EVACAvQKwAAFbQU7G6c6dnGScAIGf0PLK666679E8AABCfnhbYWagQXQEA0oA0EABgBSiwAwCsAGIFALACe8RKG+0FOitI1CRiP7M7adfCdsWPlfQWAIBNWCNW0jyvWgl3AwUA5BZLxOpf0kfvu0Mrl5P2+mshXTvZXz1RY1MAwKAwAGKlGj5w6vaBgCFY/+b3yjT2zhu0+EY/x2ip80QaCUB/6Ok4qzYcj6h6mIVLgf70i/+WPrqySH90pk7ve85WWsCM6RWN6S/l9akyH5Poc7i55DXK0+3iTV+rWOcLAOgG/Yus4jZ8eOBf0QOb3qWfXHqHyCVUKtKRXlW6rfvsU8u0oh91aKZ/Po9JdGOI0b0eH3dphezphiNtlJ2+gFHFfgBAlvRFrFoNSaNrSH+w8z76pz/7MX37xh16X2+T/PZv0wOFBv144VKHEU6DTpwX51Acp32G+MzsFOmeb5t57gsYZqMMAOgGPRYrHQ1FNiTViLTrwbG7qPaTn9OvPPnf3nsKdFejSq/+P5HL6m2pqVRF1GU2jYg27Zt/rtUXEHUsALpPj8UqqrmDm8nd43T3Oz+mhdffJ+9MHTXP0JMZpqZGp4XwDO0oqVQwrBuOxuxegzuMAHSfvqSBHJVw88/wqKRA+3YUaP1qTUY3XlHieYZ3CsM0boZV2+6me1LOPzx38Rqt61SQU8DgbjgJo0MAQCb0r8Ae1aS0XKZysUZnA3ru/e9/XKFf3PktmvpUUQ152LqLTn6+TL/JFjRpbGhkoZ1Twd0iBfTp0MzoUfSx2tUDADKlv0MXJBypHKaJq+4hBXJIAnnaYXn4QPmT9P1Pc2TGv8L/pR996w3a9h+maeKnf0t/9HdqmIPf0AYF9/UzWnYxspWXOJ63DZdEnWf5Vvg5AQC6wwCIlQ+BY5/a+YCOovi/O6xOHGaJVNCpx8NDC4B80L80MAQurMfthvy+FKY79GuhTjy04X3+39AmCBUA+WAwIysAAPAwkJEVAAB4gVgBAKwAYgUAsAKIFQDACiBWAAArgFgBAKwAYgUAsAKIFQDACno/KNSZf8cunHOYDAwAiEffRrA73ujsBwWbFQBAFJhuAwCwAtSsAABWALECAFgBxAoAYAUQKwCAFUCsAAAWQPT/AREr+BHwHZm0AAAAAElFTkSuQmCC;" vertex="1" parent="1">
          <mxGeometry x="-30" y="10" width="299" height="363" as="geometry" />
        </mxCell>
        <mxCell id="b_LKB6QUHwTkPTV8HH8e-10" value="tokens[0]" style="rounded=1;whiteSpace=wrap;html=1;" vertex="1" parent="1">
          <mxGeometry x="-220" y="440" width="60" height="40" as="geometry" />
        </mxCell>
        <mxCell id="b_LKB6QUHwTkPTV8HH8e-11" value="tokens[0]" style="rounded=1;whiteSpace=wrap;html=1;" vertex="1" parent="1">
          <mxGeometry x="-120" y="480" width="200" height="60" as="geometry" />
        </mxCell>
        <mxCell id="b_LKB6QUHwTkPTV8HH8e-12" value="tokens[1]" style="rounded=1;whiteSpace=wrap;html=1;" vertex="1" parent="1">
          <mxGeometry x="-230" y="620" width="60" height="40" as="geometry" />
        </mxCell>
        <mxCell id="b_LKB6QUHwTkPTV8HH8e-13" value="collector=nestedTokens" style="rounded=1;whiteSpace=wrap;html=1;" vertex="1" parent="1">
          <mxGeometry x="-100" y="410" width="160" height="60" as="geometry" />
        </mxCell>
        <mxCell id="b_LKB6QUHwTkPTV8HH8e-15" value="collector=nestedTokens" style="rounded=1;whiteSpace=wrap;html=1;" vertex="1" parent="1">
          <mxGeometry x="-100" y="560" width="160" height="60" as="geometry" />
        </mxCell>
        <mxCell id="b_LKB6QUHwTkPTV8HH8e-16" value="tokens[0] tokens[1]" style="rounded=1;whiteSpace=wrap;html=1;" vertex="1" parent="1">
          <mxGeometry x="-120" y="640" width="200" height="60" as="geometry" />
        </mxCell>
        <mxCell id="b_LKB6QUHwTkPTV8HH8e-17" value="" style="rounded=0;whiteSpace=wrap;html=1;" vertex="1" parent="1">
          <mxGeometry x="120" y="410" width="60" height="130" as="geometry" />
        </mxCell>
        <mxCell id="b_LKB6QUHwTkPTV8HH8e-18" value="tokens[1]" style="rounded=0;whiteSpace=wrap;html=1;" vertex="1" parent="1">
          <mxGeometry x="120" y="570" width="60" height="130" as="geometry" />
        </mxCell>
        <mxCell id="b_LKB6QUHwTkPTV8HH8e-19" value="" style="endArrow=classic;html=1;rounded=0;" edge="1" parent="1">
          <mxGeometry width="50" height="50" relative="1" as="geometry">
            <mxPoint x="210" y="640" as="sourcePoint" />
            <mxPoint x="280" y="640" as="targetPoint" />
          </mxGeometry>
        </mxCell>
        <mxCell id="b_LKB6QUHwTkPTV8HH8e-20" value="collector=tokens[1][2]=[]" style="rounded=1;whiteSpace=wrap;html=1;" vertex="1" parent="1">
          <mxGeometry x="290" y="610" width="160" height="60" as="geometry" />
        </mxCell>
        <mxCell id="b_LKB6QUHwTkPTV8HH8e-21" value="tokens[2]" style="rounded=1;whiteSpace=wrap;html=1;" vertex="1" parent="1">
          <mxGeometry x="-230" y="800" width="60" height="40" as="geometry" />
        </mxCell>
        <mxCell id="b_LKB6QUHwTkPTV8HH8e-22" value="collector=tokens[1][2]" style="rounded=1;whiteSpace=wrap;html=1;" vertex="1" parent="1">
          <mxGeometry x="-100" y="740" width="160" height="60" as="geometry" />
        </mxCell>
        <mxCell id="b_LKB6QUHwTkPTV8HH8e-24" value="tokens[2]" style="rounded=1;whiteSpace=wrap;html=1;" vertex="1" parent="1">
          <mxGeometry x="-120" y="820" width="200" height="60" as="geometry" />
        </mxCell>
        <mxCell id="b_LKB6QUHwTkPTV8HH8e-25" value="tokens[1]" style="rounded=0;whiteSpace=wrap;html=1;" vertex="1" parent="1">
          <mxGeometry x="120" y="740" width="60" height="130" as="geometry" />
        </mxCell>
        <mxCell id="b_LKB6QUHwTkPTV8HH8e-26" value="tokens[3]" style="rounded=1;whiteSpace=wrap;html=1;" vertex="1" parent="1">
          <mxGeometry x="-230" y="940" width="60" height="40" as="geometry" />
        </mxCell>
        <mxCell id="b_LKB6QUHwTkPTV8HH8e-27" value="collector=tokens[1][2]" style="rounded=1;whiteSpace=wrap;html=1;" vertex="1" parent="1">
          <mxGeometry x="-100" y="910" width="160" height="60" as="geometry" />
        </mxCell>
        <mxCell id="b_LKB6QUHwTkPTV8HH8e-28" value="tokens[2] tokens[3]" style="rounded=1;whiteSpace=wrap;html=1;" vertex="1" parent="1">
          <mxGeometry x="-120" y="1000" width="200" height="60" as="geometry" />
        </mxCell>
        <mxCell id="b_LKB6QUHwTkPTV8HH8e-29" value="tokens[1]" style="rounded=0;whiteSpace=wrap;html=1;" vertex="1" parent="1">
          <mxGeometry x="120" y="910" width="60" height="130" as="geometry" />
        </mxCell>
        <mxCell id="b_LKB6QUHwTkPTV8HH8e-30" value="tokens[4]" style="rounded=1;whiteSpace=wrap;html=1;" vertex="1" parent="1">
          <mxGeometry x="-230" y="1150" width="60" height="40" as="geometry" />
        </mxCell>
        <mxCell id="b_LKB6QUHwTkPTV8HH8e-31" value="collector=tokens[1][2]" style="rounded=1;whiteSpace=wrap;html=1;" vertex="1" parent="1">
          <mxGeometry x="-110" y="1090" width="160" height="60" as="geometry" />
        </mxCell>
        <mxCell id="b_LKB6QUHwTkPTV8HH8e-32" value="tokens[2] tokens[3] tokens[4]" style="rounded=1;whiteSpace=wrap;html=1;" vertex="1" parent="1">
          <mxGeometry x="-120" y="1200" width="200" height="60" as="geometry" />
        </mxCell>
        <mxCell id="b_LKB6QUHwTkPTV8HH8e-33" value="" style="endArrow=none;html=1;rounded=0;" edge="1" parent="1">
          <mxGeometry width="50" height="50" relative="1" as="geometry">
            <mxPoint x="-280" y="550" as="sourcePoint" />
            <mxPoint x="1230" y="550" as="targetPoint" />
          </mxGeometry>
        </mxCell>
        <mxCell id="b_LKB6QUHwTkPTV8HH8e-34" value="" style="endArrow=none;html=1;rounded=0;" edge="1" parent="1">
          <mxGeometry width="50" height="50" relative="1" as="geometry">
            <mxPoint x="-280.5" y="710" as="sourcePoint" />
            <mxPoint x="1230" y="710" as="targetPoint" />
          </mxGeometry>
        </mxCell>
        <mxCell id="b_LKB6QUHwTkPTV8HH8e-35" value="" style="endArrow=none;html=1;rounded=0;" edge="1" parent="1">
          <mxGeometry width="50" height="50" relative="1" as="geometry">
            <mxPoint x="-270" y="1290" as="sourcePoint" />
            <mxPoint x="530" y="1290" as="targetPoint" />
          </mxGeometry>
        </mxCell>
        <mxCell id="b_LKB6QUHwTkPTV8HH8e-36" value="" style="endArrow=none;html=1;rounded=0;" edge="1" parent="1">
          <mxGeometry width="50" height="50" relative="1" as="geometry">
            <mxPoint x="-270" y="1080" as="sourcePoint" />
            <mxPoint x="1210" y="1080" as="targetPoint" />
          </mxGeometry>
        </mxCell>
        <mxCell id="b_LKB6QUHwTkPTV8HH8e-37" value="" style="endArrow=none;html=1;rounded=0;" edge="1" parent="1">
          <mxGeometry width="50" height="50" relative="1" as="geometry">
            <mxPoint x="-270" y="880" as="sourcePoint" />
            <mxPoint x="1230" y="880" as="targetPoint" />
          </mxGeometry>
        </mxCell>
        <mxCell id="b_LKB6QUHwTkPTV8HH8e-38" value="tokens[1]" style="rounded=0;whiteSpace=wrap;html=1;" vertex="1" parent="1">
          <mxGeometry x="130" y="1120" width="60" height="130" as="geometry" />
        </mxCell>
        <mxCell id="b_LKB6QUHwTkPTV8HH8e-39" value="tokens[5]" style="rounded=1;whiteSpace=wrap;html=1;" vertex="1" parent="1">
          <mxGeometry x="-230" y="1350" width="60" height="40" as="geometry" />
        </mxCell>
        <mxCell id="b_LKB6QUHwTkPTV8HH8e-40" value="collector=tokens[1][2]" style="rounded=1;whiteSpace=wrap;html=1;" vertex="1" parent="1">
          <mxGeometry x="-110" y="1310" width="160" height="60" as="geometry" />
        </mxCell>
        <mxCell id="b_LKB6QUHwTkPTV8HH8e-41" value="tokens[2] tokens[3] tokens[4] tokens[5]" style="rounded=1;whiteSpace=wrap;html=1;" vertex="1" parent="1">
          <mxGeometry x="-130" y="1390" width="200" height="60" as="geometry" />
        </mxCell>
        <mxCell id="b_LKB6QUHwTkPTV8HH8e-42" value="tokens[5]&lt;br&gt;tokens[1]" style="rounded=0;whiteSpace=wrap;html=1;" vertex="1" parent="1">
          <mxGeometry x="120" y="1320" width="60" height="130" as="geometry" />
        </mxCell>
        <mxCell id="b_LKB6QUHwTkPTV8HH8e-43" value="" style="endArrow=classic;html=1;rounded=0;" edge="1" parent="1">
          <mxGeometry width="50" height="50" relative="1" as="geometry">
            <mxPoint x="210" y="1380" as="sourcePoint" />
            <mxPoint x="280" y="1380" as="targetPoint" />
          </mxGeometry>
        </mxCell>
        <mxCell id="b_LKB6QUHwTkPTV8HH8e-44" value="collector=tokens[5][2]=[]" style="rounded=1;whiteSpace=wrap;html=1;" vertex="1" parent="1">
          <mxGeometry x="294" y="1355" width="160" height="60" as="geometry" />
        </mxCell>
        <mxCell id="b_LKB6QUHwTkPTV8HH8e-45" value="" style="endArrow=none;html=1;rounded=0;" edge="1" parent="1">
          <mxGeometry width="50" height="50" relative="1" as="geometry">
            <mxPoint x="-270" y="1470" as="sourcePoint" />
            <mxPoint x="530" y="1470" as="targetPoint" />
          </mxGeometry>
        </mxCell>
        <mxCell id="b_LKB6QUHwTkPTV8HH8e-46" value="tokens&lt;br&gt;6 7 8" style="rounded=1;whiteSpace=wrap;html=1;" vertex="1" parent="1">
          <mxGeometry x="-230" y="1530" width="60" height="40" as="geometry" />
        </mxCell>
        <mxCell id="b_LKB6QUHwTkPTV8HH8e-47" value="collector=tokens[5][2]" style="rounded=1;whiteSpace=wrap;html=1;" vertex="1" parent="1">
          <mxGeometry x="-110" y="1490" width="160" height="60" as="geometry" />
        </mxCell>
        <mxCell id="b_LKB6QUHwTkPTV8HH8e-48" value="tokens 6 7 8" style="rounded=1;whiteSpace=wrap;html=1;" vertex="1" parent="1">
          <mxGeometry x="-130" y="1570" width="200" height="60" as="geometry" />
        </mxCell>
        <mxCell id="b_LKB6QUHwTkPTV8HH8e-49" value="tokens[5]&lt;br&gt;tokens[1]" style="rounded=0;whiteSpace=wrap;html=1;" vertex="1" parent="1">
          <mxGeometry x="120" y="1500" width="60" height="130" as="geometry" />
        </mxCell>
        <mxCell id="b_LKB6QUHwTkPTV8HH8e-50" value="tokens[9]" style="rounded=1;whiteSpace=wrap;html=1;" vertex="1" parent="1">
          <mxGeometry x="550" y="440" width="60" height="40" as="geometry" />
        </mxCell>
        <mxCell id="b_LKB6QUHwTkPTV8HH8e-51" value="tokens[1]" style="rounded=0;whiteSpace=wrap;html=1;" vertex="1" parent="1">
          <mxGeometry x="643.5" y="395" width="60" height="130" as="geometry" />
        </mxCell>
        <mxCell id="b_LKB6QUHwTkPTV8HH8e-52" value="" style="endArrow=classic;html=1;rounded=0;" edge="1" parent="1">
          <mxGeometry width="50" height="50" relative="1" as="geometry">
            <mxPoint x="710" y="459.5" as="sourcePoint" />
            <mxPoint x="780" y="459.5" as="targetPoint" />
          </mxGeometry>
        </mxCell>
        <mxCell id="b_LKB6QUHwTkPTV8HH8e-53" value="collector=tokens[1][2]" style="rounded=1;whiteSpace=wrap;html=1;" vertex="1" parent="1">
          <mxGeometry x="800" y="430" width="160" height="60" as="geometry" />
        </mxCell>
        <mxCell id="b_LKB6QUHwTkPTV8HH8e-54" value="tokens[10]" style="rounded=1;whiteSpace=wrap;html=1;" vertex="1" parent="1">
          <mxGeometry x="550" y="615" width="60" height="40" as="geometry" />
        </mxCell>
        <mxCell id="b_LKB6QUHwTkPTV8HH8e-55" value="collector=tokens[1][2]" style="rounded=1;whiteSpace=wrap;html=1;" vertex="1" parent="1">
          <mxGeometry x="650" y="570" width="160" height="60" as="geometry" />
        </mxCell>
        <mxCell id="b_LKB6QUHwTkPTV8HH8e-56" value="tokens[2] tokens[3] tokens[4] tokens[5] tokens[10]" style="rounded=1;whiteSpace=wrap;html=1;" vertex="1" parent="1">
          <mxGeometry x="630" y="640" width="200" height="60" as="geometry" />
        </mxCell>
        <mxCell id="b_LKB6QUHwTkPTV8HH8e-57" value="tokens[1]" style="rounded=0;whiteSpace=wrap;html=1;" vertex="1" parent="1">
          <mxGeometry x="870" y="570" width="60" height="130" as="geometry" />
        </mxCell>
        <mxCell id="b_LKB6QUHwTkPTV8HH8e-58" value="tokens[11]" style="rounded=1;whiteSpace=wrap;html=1;" vertex="1" parent="1">
          <mxGeometry x="550" y="810" width="60" height="40" as="geometry" />
        </mxCell>
        <mxCell id="b_LKB6QUHwTkPTV8HH8e-59" value="" style="rounded=0;whiteSpace=wrap;html=1;" vertex="1" parent="1">
          <mxGeometry x="643.5" y="740" width="60" height="130" as="geometry" />
        </mxCell>
        <mxCell id="b_LKB6QUHwTkPTV8HH8e-60" value="collector=nestedTokens" style="rounded=1;whiteSpace=wrap;html=1;" vertex="1" parent="1">
          <mxGeometry x="810" y="780" width="160" height="60" as="geometry" />
        </mxCell>
        <mxCell id="b_LKB6QUHwTkPTV8HH8e-61" value="" style="endArrow=classic;html=1;rounded=0;" edge="1" parent="1">
          <mxGeometry width="50" height="50" relative="1" as="geometry">
            <mxPoint x="720" y="809.5" as="sourcePoint" />
            <mxPoint x="790" y="809.5" as="targetPoint" />
          </mxGeometry>
        </mxCell>
        <mxCell id="b_LKB6QUHwTkPTV8HH8e-62" value="tokens[12]" style="rounded=1;whiteSpace=wrap;html=1;" vertex="1" parent="1">
          <mxGeometry x="550" y="955" width="60" height="40" as="geometry" />
        </mxCell>
        <mxCell id="b_LKB6QUHwTkPTV8HH8e-63" value="" style="rounded=0;whiteSpace=wrap;html=1;" vertex="1" parent="1">
          <mxGeometry x="930" y="930" width="60" height="130" as="geometry" />
        </mxCell>
        <mxCell id="b_LKB6QUHwTkPTV8HH8e-64" value="collector=nestedTokens" style="rounded=1;whiteSpace=wrap;html=1;" vertex="1" parent="1">
          <mxGeometry x="650" y="920" width="160" height="60" as="geometry" />
        </mxCell>
        <mxCell id="b_LKB6QUHwTkPTV8HH8e-65" value="tokens[0] tokens[1] tokens[12]" style="rounded=1;whiteSpace=wrap;html=1;" vertex="1" parent="1">
          <mxGeometry x="630" y="1010" width="200" height="60" as="geometry" />
        </mxCell>
        <mxCell id="b_LKB6QUHwTkPTV8HH8e-66" value="nestedTokens" style="rounded=1;whiteSpace=wrap;html=1;" vertex="1" parent="1">
          <mxGeometry x="570" y="1240" width="80" height="170" as="geometry" />
        </mxCell>
        <mxCell id="b_LKB6QUHwTkPTV8HH8e-67" value="" style="endArrow=classic;html=1;rounded=0;" edge="1" parent="1">
          <mxGeometry width="50" height="50" relative="1" as="geometry">
            <mxPoint x="650" y="1320" as="sourcePoint" />
            <mxPoint x="700" y="1270" as="targetPoint" />
          </mxGeometry>
        </mxCell>
        <mxCell id="b_LKB6QUHwTkPTV8HH8e-68" value="" style="endArrow=classic;html=1;rounded=0;" edge="1" parent="1">
          <mxGeometry width="50" height="50" relative="1" as="geometry">
            <mxPoint x="650" y="1330" as="sourcePoint" />
            <mxPoint x="715" y="1380" as="targetPoint" />
          </mxGeometry>
        </mxCell>
        <mxCell id="b_LKB6QUHwTkPTV8HH8e-69" value="" style="endArrow=classic;html=1;rounded=0;" edge="1" parent="1">
          <mxGeometry width="50" height="50" relative="1" as="geometry">
            <mxPoint x="650" y="1324.5" as="sourcePoint" />
            <mxPoint x="710" y="1324.5" as="targetPoint" />
          </mxGeometry>
        </mxCell>
        <mxCell id="b_LKB6QUHwTkPTV8HH8e-70" value="tokens[12]" style="rounded=1;whiteSpace=wrap;html=1;" vertex="1" parent="1">
          <mxGeometry x="720" y="1370" width="120" height="60" as="geometry" />
        </mxCell>
        <mxCell id="b_LKB6QUHwTkPTV8HH8e-71" value="tokens[1]" style="rounded=1;whiteSpace=wrap;html=1;" vertex="1" parent="1">
          <mxGeometry x="707" y="1295" width="120" height="60" as="geometry" />
        </mxCell>
        <mxCell id="b_LKB6QUHwTkPTV8HH8e-72" value="tokens[0]" style="rounded=1;whiteSpace=wrap;html=1;" vertex="1" parent="1">
          <mxGeometry x="707" y="1220" width="120" height="60" as="geometry" />
        </mxCell>
        <mxCell id="b_LKB6QUHwTkPTV8HH8e-73" value="" style="endArrow=classic;html=1;rounded=0;" edge="1" parent="1">
          <mxGeometry width="50" height="50" relative="1" as="geometry">
            <mxPoint x="827" y="1320" as="sourcePoint" />
            <mxPoint x="910" y="1220" as="targetPoint" />
          </mxGeometry>
        </mxCell>
        <mxCell id="b_LKB6QUHwTkPTV8HH8e-75" value="tokens[2]" style="rounded=1;whiteSpace=wrap;html=1;" vertex="1" parent="1">
          <mxGeometry x="917" y="1110" width="60" height="40" as="geometry" />
        </mxCell>
        <mxCell id="b_LKB6QUHwTkPTV8HH8e-76" value="tokens[3]" style="rounded=1;whiteSpace=wrap;html=1;" vertex="1" parent="1">
          <mxGeometry x="917" y="1169" width="60" height="40" as="geometry" />
        </mxCell>
        <mxCell id="b_LKB6QUHwTkPTV8HH8e-77" value="tokens[4]" style="rounded=1;whiteSpace=wrap;html=1;" vertex="1" parent="1">
          <mxGeometry x="920" y="1230" width="60" height="40" as="geometry" />
        </mxCell>
        <mxCell id="b_LKB6QUHwTkPTV8HH8e-78" value="tokens[5]" style="rounded=1;whiteSpace=wrap;html=1;" vertex="1" parent="1">
          <mxGeometry x="920" y="1295" width="60" height="40" as="geometry" />
        </mxCell>
        <mxCell id="b_LKB6QUHwTkPTV8HH8e-79" value="" style="endArrow=classic;html=1;rounded=0;" edge="1" parent="1">
          <mxGeometry width="50" height="50" relative="1" as="geometry">
            <mxPoint x="980" y="1320" as="sourcePoint" />
            <mxPoint x="1030" y="1270" as="targetPoint" />
          </mxGeometry>
        </mxCell>
        <mxCell id="b_LKB6QUHwTkPTV8HH8e-80" value="tokens&lt;br&gt;6 7 8" style="rounded=1;whiteSpace=wrap;html=1;" vertex="1" parent="1">
          <mxGeometry x="1040" y="1240" width="60" height="40" as="geometry" />
        </mxCell>
        <mxCell id="b_LKB6QUHwTkPTV8HH8e-81" value="tokens[10]" style="rounded=1;whiteSpace=wrap;html=1;" vertex="1" parent="1">
          <mxGeometry x="920" y="1350" width="60" height="40" as="geometry" />
        </mxCell>
        <mxCell id="b_LKB6QUHwTkPTV8HH8e-82" value="nestedTokens" style="rounded=1;whiteSpace=wrap;html=1;" vertex="1" parent="1">
          <mxGeometry x="520" y="1650" width="120" height="60" as="geometry" />
        </mxCell>
        <mxCell id="b_LKB6QUHwTkPTV8HH8e-83" value="" style="shape=image;verticalLabelPosition=bottom;labelBackgroundColor=default;verticalAlign=top;aspect=fixed;imageAspect=0;image=data:image/png,iVBORw0KGgoAAAANSUhEUgAAATkAAAB0CAYAAAD+UEX3AAAAAXNSR0IArs4c6QAAAARnQU1BAACxjwv8YQUAAAAJcEhZcwAADsMAAA7DAcdvqGQAAABhaVRYdFNuaXBNZXRhZGF0YQAAAAAAeyJjbGlwUG9pbnRzIjpbeyJ4IjowLCJ5IjowfSx7IngiOjMxMywieSI6MH0seyJ4IjozMTMsInkiOjExNn0seyJ4IjowLCJ5IjoxMTZ9XX1UkUEGAAAhg0lEQVR4Xu2df3QUZZrvvzO6ssovERKBuU0Sz7LgJguSe4M3WXJmECJhiUYCrj9GXYfDIkiGIHLOnT/AmQv33HP3iJEEXNRB1lm5Ol4hJAwMgSg4J26zkrH5scmCwxyT0GuAJMCAy8zFy9j3fd56q7uqu6pT3anuTjrP55yCrrd+vfXmrW89z/u+9bzfCgjAMAyTpnxb/c8wDJOWOLbkzvz7H9UvhmGYwQO7qwzDpDXsrjIMk9awyDEMk9awyDEMk9Y4bpPLf9KnfjEMw7iH79189SsxsCXHMExaE7Mll2jVZRhmaJAsTUmhJefD1uyt4l8nxLLvYIPLQYPLQSP55XDxd9/gN13fyLGw4Qul0/bBTIpEjv44b8JztBK6hvfsXY7s7Gy1LEfDebVBko/HaltRURvbn9N4zuV7e1Sqhq+W0lP9oESWA843YHmwHMLzF185RGOglkMi6kM00q0+GMtv63GVaAEJ2JX/COCbb6wdOkqn7YNa6MhddcKMJz6TC9Hb2xt1+UaUjD3dgfrnnwvUd6lVCz6ryQo819Ct1nQ+C2zJ2iL+dQ6dZ4tPrRjpqg9safisz3wkFqtyMKe5VQ62DNhyMDN0y6H/9eGzmuj39PmXfwyc9t+MWE6c/r1pnfZzG6OmJJK4LLnr16/jmWeewfe///2I5eWXX8a3vvUttWckPXvX48C8jSifoBIi8MFbXYr5BRlqXccDz4JW+E1v9GjQedaiaIZaNeD74AA8BfnwTGmE/4JKlG9R8aY8vjX4Bgxaf/Q2XdkAn+XbkY7T37S0aG9b+SY1vGEj163KIQPlr70epWyIWMvBnoFbDkbcqg/2JKMcyFI0ehPh64mpD1R2efBEOd7Sgvu9F2+seB3/elOtC+wsvcFAXCI3adIkrFixQq2FIHGzSg/hw/urYFFhBcHKROa61R82I6wS9sF5P1oXiAqgVoOICvomlgXP3+rXK67YH5tQ0VyEjo4OdOxZi8YOv7btgh+N+6vEcRvltpbaUnUcVegKYI/Yn445WoNSdc0MTx7wuR96NfZ3NGJtse6ERCkHHcqn5cMdYznYMdDLwe36YEeSysGTXRo6XpSG/3Pj3zZB9cHuGYjCje4z+PWZ2/DQllX4y1tV4iAn7ja5srIyzJo1S61pLF++HFlZWWrNAlno81EUUWEFMyq1itGxDP7C8DYYQqsYnvFqtS+oIk7xiCpgpAcN/+MA5j+qPWRU8YLQ/gtq0LJKPYCUH/W7x98KrKnD6w9rZ8t4+HXt93EvNon0SmUt9rQcCF1zRhHW7vdDVmuqoJ/X4DHdqoxWDoTYf3lhFfL2WD3cMZaDJYOgHNyuD5YkrxwyCuajVBf74++jakpIWBNVH+j6mFcU9gxE4zou/cdwTL3jNH7R0t+3x8ChXx0PZLWNGDFC/i4qKkJ5ebn8bYul8DjkvBeiOtpXhDCoIoYsBgVVrv2NqCrUXImCVY3BtyvtX2pTIczWRwh5TLb+nuyB96BxP/EGVW4EuUPz15WHzh2tHMiCKRT7H+0IPiwmYiwHSwZDOfTFYCuHCR7kSbEXwrodqNPFk0hQfaB85nliKd3hmHiPByO+voIbt49UaYOffonc2LFjpdDdcccd0opzg569b2KTxVvN90FVDG8lqmDi8TK93ahytaJGVBbNQhCLcEF0V8q+QjizGHy1BeKBUSsS5UZ8sBXe4r7aVTRke9VC8QB02O9vXQ5aO5CxjceegV8ORmKrDwO5HDSx99a+D6wz9J5GIf76QMRv6XZ1XMCU7OFqbfDTL5Ej5syZI4UuMzNTpUSBXJdqr6iKRrSKqbW/iLepcE86XjO87QnxNqsQbs5G5R70jXhj7g9rcKW3dvgbb7wHmoMSrUJYnEtBLghWFch8v5ldh5oF5nOQ+7MJRZFvYKtyEC7JemFJgNqBguWhNVoHibkcLBjo5ZCQ+mBB0stBE/vW7MciBSsR9cGhpfvtb1t0Et7yNX69vxa1jV+oBJv9Bguql7VP3Orute4Gj0JXfeC5WIcK0DE1ie+ajk5fXfsuloPclsrhD9HgcpBQ3p6vD9jdqevPhW9LIMvBM3DhivUQkvCF9nObZA0hSbrI9VXpzcQ3Fqq74blAVlaWXCzHySUSWfno2n3l251yoIcjayA+2FwOGiQ2VA5RBE7DnXIw1n2nokkCZjdejtITIXBEskSOv11lGCYlDIFvVxmGYRIPixzDMGkNixzDMGkNixzDMGlN0kTOYf9Gcrh4BDt2HEG3Wo1K625srmtTK0xyuIQz6/PRcuiSWmeY+EmayF2+fBk/+tGP0NnZqVIc4NuGn3gWqOVF/NIy0kKstGH3e+3IWTAboeHL3TiyYzM2b9aW3a0qmchbhBI0YcfHjiQxiBafTFvC43n1HlqFo+vr0avWdSjdzQe7c3s+Ttnos10e4qN/ouT2fRtJ5Ln7zymcKs3HUVoc/y2orFfhjDt/uARhVx+MA723whDkJKEk1V09ceKE/PyroaFBpUTh/D7UlO9DTsN+/MS/Hw+vPYNjG/ahvzrXVteEq/eVYfbdKoFobUb7PU9i9erVWD3XA/+Hu4UUhsitKMHoE/tw5KJKcMhaFY3C8pvDIUZsYjMWUzf6UPDgWLXeB731aCl9FVavz3EPLsWw5maXxNwhba/i6PZTaiUa0zCt0YfCnS8hIuCH7T2Jsnk8B1/5BqpwRyMflfITujqsVSnJIOltcuS2btu2DRs2bEB3t711dP7YEVxBGf5SDqG5iAtnxH/7juB4UOVi+U5Rpw1nznlw//fCPkET1toSPS1vqkVomlwU3we0n47NmrNj3HdygKx7ME6taxU6H2erP8HN6hLtzV5qeFur7Vq6XvG1t2XoYdKsAikk9JCJ3127gOsvhh+nEZGHfjEWt2cBw75jLUpkUZ5tfgA5RtFSeaSF7juIId0oitLyNAkH3a+6p3GPoOAVoMtSFKZhdNYGdIVbtFSm2+u1MrQon3iR+XwRmLh0mkohDBabWOysaxPR7il3DoZV/1NEOl371CFDXXEktIkgen1INinrePB6vdKqa2pqUilmzncIVSvzYIIQuF+uWIKe0hUYgzPo6Y8p13oG/klThWRFgfYZdVfEB8+Z40bj2hdtztrx+iL3BRQaHwKq0OKNPnnNLNy6pgmF9HZvrMVUqUDiAXmqHZkyTSxU8aVrQ9ZOE8Z0bpdi2HtoO26IY6X1Q+cX+05cDAx/RR3X+AJMQbDC89BPspb6MM2iYEnguvA2Cjc+YhZ1EgJ1T3TfQVTeTWkCssiG7/oo9GC3fYTri+eE7omO25mDbuPLQZH1yEu48XMLd3DXBnz9uJaHiYvfQXc/3VoSGRLzyaayppfRs0Dw7/A28KJDd9P2nqZh4pp2y/xer9brytuivLS6kQrs6kMqSJnIUYimlStXoqSkRKVYc7xmCc6W7sDfzlQJQTTTV4/p5QrUIfHhVUw3tdcpMu7CKPUzqdDDjHfEG129nV98R20ghNBVPYCvnrKwlFKOZml2TxKiHSamvb7DwJpnzKLbJ8IiE0J0VVlBnUffwfDCMJGml8VOrTxM1pJIz8w6jN7wB77gJUxUD+LwSWZRjRVprZ5bahZzyZf4uuVpjA4+8HQfn+Brp00fNvdk54bfGizX7+C2AvljyJMSkaNgm2+88YaMYGLHhOypwj3dhrPZO1BVfrcw7fzCfZ2KjD6iKsQNCdx7JzF67hJze51Oz2VcuzMzUvySwWJhCcm3s1rCH6TFT2PgBcbR2tUyzwn32yW3SVpkR+lcp3C1MyRQQchCfOowRu6MtCKyCnNwpT5x7htZLpMnbXexM0dhe082bjgTQVJF7pZbbkFlZSXWrVsnY9FFY8LM2cI9Be70aIrja94n3NfZmBEUuTja5Ki97dwZU6eCBvW4ksCtxqI8lRRGd+9VjLrLRavRhpvnvlS/FLlzorgd5MqKB+CRFzCx+DDOWojJjS9jdcFUD5jFDFDxQA//RDxrevipPfCmboWIh7jd2CYXjXHFGNkpXFZh3d4oLjYLPbXlSbded/PDyH0m6NoninEP1mIy/R1M7WhkUYUsULrf7l2zcJvVizScPu7J1g1nTCRN5GjyG+pwoLDpjphQhqqGMrSXa0NI9m4qw8PbytA/Qy4XUyf58WnYcBDqcaV4sP4PQ8NIzENG2tB8Asi5N7F2nNbuJARBuqZ6O8w0THtFWCHCXdEbrrUGea2t58aaH8sHYNyDPxYPsTjWIHT0ECDYkeG0YZ2CO4r/VPBIN5BWjnj42/U2JBIcbBBiIPJVA2Qa2t9kw71IN3bChNy0sULn2tH1YjtG5hteksE2vrB2RxNar2QirTmChE62mwb/DtSkIMRI7wB6agOGvaJEi/Kt0m62qPLQj3NyT9INZ2uuL4ZgFBJhtW3+FHc9YeOWWtBWtxmf3vVkqAfWATROzls8OIePUN4rUBec0yB9oF7O7bhtp421Nxgha+/nOZgc0RY4kCFvwYs3i4rk0BmOQuI6uVj0RA7a9zv/4qEJJTEJnM6mhdaDgQcsNGGKyG96ChxB49LSSOAI6oEdNAKnDwauwCaVkgw4nhzDMCmB48kxDMO4AIscwzBpDYscwzBpDYscwzBpTdJEzmH/RnLgeHJMWkC9lWFzsdoSy77pRdJELq54coLzDS/KwcA/c+2vYxFPjoRMDQJOdTw5OfCVBoKGb5fROdyJlEHY5cEeQ9SPuOjv8US856DjHEb/cICc2T57ORpciW8YLz1oWFkB7DHMxn98a7DOyWVlg2FAdz4q9wAVpjQN7X60Y2KL6jM4SKq7GlM8OYGvZgHeqKQYS+5hGU9OCJmMJUfLE9NxNdXx5C6246ZrYZAYd+mB92Ae6vbk4UBL6gShZ+96VE2pi6xba+pknZPLa+XmaDozKlE3pQrrw4Qs4+HX5f4ttaUqJb1Iepscua1O4slR0MzmMyvw3DEKsWSFNrDQlXhyRuhD/IhQSwmOJ6csDfqUScZ/o0gj9HmX0dK6Owe3FuS49iG+dTw5FaOOPi8yfGJEETaOlj5rjoaitpFFGIr7RscbwwIZz0fHGzDEjTPep7RmLWKiRcuDXb5D0PejDr8X7YvzXhyYUoT88R7goDdkFZEVVdsgrCvdkgq5hmQpLd/boAbCGi0sssb0/Y3pVLfNliJ5BqG6TkIL1Dwa+/iy/EdrzPkeCtBgYCf0d7br3t7ewLx580zLwoULA4cOHVJ72ND1i8Dm//TXgbcjLk2ziDufJVzyr7sCr+5uVStmLh55K/Dqq6+K5a3A4Qsq0Qgd+9bhwEW12hc0o3uss/d3/PSHgdM9gUDPwR8Gjh3sValJpLU64P3pSbUSzsnAyXnVgQ61pmPOa2/g9DrtHoiOn84wbDMc37MncGzdnoDaTZ5Dv678HbwOHRM6n10eoufbXWiGeu3v2h2of94wY7+cKT+0TvvpdVOb1T40471d3Qg/JlS3w2bM76oPPGc1I78+W79arOsfncuQbwPmayaeZM2gn7LeVafx5OxxN55c5veWKHc1B+3v7Yh0TRMeT+4S/tCZg9uVaZWSqKpkLYZbkHFzCld3PY1Mixh3FE8u+EG6WMiCNRJzTDRX8x0NzYLyjKffGSiaB7PLumYZylUECXIBjXWztPaxYNtZ/qpQE4ax7bZgVaOWKMgomB+yuI570Wo43hbhjgZd1aM1aF1o1W6oAjAMIVIick7iyaWMu3ORM+oaLofb84mMJyddtxJcadFcMd1tdT4ngkuoCMWFVcI1JwFKoGiEIiCrpT9RipOVb3JV9zeiqjAkSo39cf2Ei1tRvRZ1SphMbWITyrFsygF4hUj5moFlsb7MJxRhvqWY+eHfnwdPouIyDkCSKnKxxJPrmzja5GzjyRm42Ib2ax5MDYsrl9B4cjLk99sYXvASJjc2YUzBLIzZ6XQiF60c3Ir/JpGiIfLT0m5uR0M7/mChHnoMvN5D/10ItfwpMMdR69weapMbl/8AYDFHgTOs8yCxzbc9miXlbGhFT8sBoLYlZC3RhCz7hWio7XGxQFhW8ocP7xssOSK/mDo3GuBFkdmKIwGDJoC2HH8fVVZidt6P1uA1hwZJE7mY48nhJH5GUxHO3IYrYk2LK7fNUWW0xzqeXPfHO0JDSN67jPtXLwqbByIJ8eR6v8AN9VNcKei29o178d/ksBLlQlIj/w1TiHKaVwChuHaqcd8YA+/suQeEQMtkAcVvezo4kc7VQiE+aguJUc6a9lAHglicDe+wzkP0fEfHk03WUyv8fQ4HIVe1EXke44suH0VrNsEbb5SZGY+hBlUokO6qF57w3s0ZRchbJczT4nBHVXOVqz4wPw3GoSDZCyEsRMPwEoXvA3G+eUURc5ikNaptrk+S1UiYeFoDu+w6F2xo3f1q4K0jTrscNOLpeIgXulZWTTr8bVKAbKw3NOoPJOw6GCTU8RFjHaN7tT0fdzykEWkUTy7t478lEjV8w8biSSnq75pd6Mey8LFuQTJQ/lodsDCGLx7oXi3Op1uAxo6PdILjyTEMkxI4nhzDMIwLsMgxDJPWsMgxDJPWsMgxDJPWJE3kHPZvJAeOJ8ckHXfDPTHOSZrIxRNPjkItUSw5uazYhz7HazrCIp6ckLsjOwZGPDk3P+WiyB12D5VdHuJDiwISb96j5TOEMdKI85hybpepEftzh0djcZP+nNtaaDmenIvEFE+OQi3RrPn+/fiJ/38iZ982/J+GGAO6WWAZT661Ge33PKl9oD/XA3+q48mlIbaC0FuP7s6XMNH8iYkFYzF1I33navhyQkfORG8tfPRFxrDm5vjFnL4rjgjdRJxCV3WOZQACa2jOVx+m9XmfCtt7oi9JcvCVzz3h5nhyLkNuq6N4chPKUOVfoQZpjkdGGXCl44Jc03Axnpyw1oKDfen7Vu2XgQTHk5MVWvsw/2Z1ibJWDG9rtd1sxSjLJvgAam9pKSQqVlvXLgQ/qwq3fqzjycXLWNyeZR85hSy1s80PIMdCEDrrN2DY48bJkY0Wm0PrkL5ZfQXoshSFaRidtQFd4ZYilen2+qjWobR2XwQmWgQP6D20PeLzMS3mHS0UbEElCuR51P0YrSja33R/lCfduo52T7lzMMzi21+6jlUsvhAuxtUbRKSs48Hr9UqrrqmpSaVE4XwLzu4DxmTLGDfx03oG/klTw75LDYP2iQiaCWSOG41rX7Q5a8frC/og3/jgyA/LfZi8ZpYhOoc+07sQr6fakSnTxEIVXz4IZNk0YUzndimG2kPXpH3ULz/492HiYmD4K+q4xhfM33OG56GfZC21tlLoQe7C2zazvGvhmEYbjuvcXoKvivUyaMLI5hIHrqyA7mdnDrqNLwdF1iMv4cbPLVzzXRvw9eNa+Uxc/A66DYJDgkHCPDm83CSX0NsMjMwPiTbtL+9T5Tv0Da/48z5Yq66hEhSULxisTApBheLiUDnZ3hN9w9tuyq/O9Wq9rgiLd5dWN0JQndHr1dAhZSLnPJ7cRfxywzZcKVuBvyk3voLcjScnoQ6JD69iuqm9TpHweHI2tH1kjoZLUYODiEpb9QC+esreUkodmkXWPUkIlo2YRlpDFFNvlkE8xmJc8Szc+NKBNUfQy2KnVh4mYRTpmVmH0RuucgUhN3n4pFnaD4G0PM8ttRFmQds/4UrWUoNYaKI35pEYXxrjijESer4ihVNic092bnjMsfiGACkROefx5ITArViCY1iB57aVIaEhsEjg3juJ0XOXmNvrdBIZT64vFusWglrCH77FT7sWFt09tDa0zHPC/XalTcsB5O49dRgjd0ZalVmFObhSb5WPSMgqnTxpu03HjBDvn7fHLmiWGNrXhMJ9ZRJOhe092bjhTARJFblY48n5aoTA7SvDw5YC52Y8OepxJYFbjUVhceR0EhpPzoAemy1I7hwLt0OHXFnxADzyAiYWH8ZZCzFxbAUFcTc+HQnGRFhE7SULdfGcMFeQ2vY+MTSqkxB+4ixKMrVDSrfexh3LfSbo2juBXMzJVKbhbWIkRngA40zXMOfbHFevD6h9TVhkncJVHVYYJpx93JOtG86YSJrIxRxPzrcNezfRj33Yqw8jSVA8OepxpcCH/g9Dw0jMQ0aSEE9OYIzNFup4mIZprwgrRI+hJhatsZrcQYqd9mP5AIx78MfiIRbHGoROtvkEOzKsGuWtcC8+nY60jIRgtAfbkOytoaylb2NYMM90f03KgtE6VkyT2ejCSdYOdRBYtp/paFaTU2uOkG1p1AZqKNPIjhINY1m3Y6mpTU7vkAh1BBnb2JRFJqxaY9uko3uSbjhbc31CUUicwPHkBm48ObdJeHy6JE48YyZ8YpwYCZuAZ0BAZelSnjieXNqQRvHk3CZZ8elc7tl1Do1V60fvInUC2HVGpAoqy37miePJKTieHMMwbsLx5BiGYVyARY5hmLSGRY5hmLSGRY5hmLSGRY5hmLRmwIrc19f/Lz557QP84kdb5HLpi7AvAVzm3K//TV6PrqvzVfdlfPT3P3Px2ifxD3P/EZP1peakSmcYJlEMWJG7bfifYtbKR1G0rEKlpAPT8fyHP8BZuZSi+rc+/MNnahPDMAlhwI+TIyvK+2adFLux93xHpQKnD/wzfvsrLU9/9t183Dv/r/DH/3cTJ3cfxp/86W3o/rwTv79yLbiNMB5D3DFmFPLKv4vWhl/JfY3Q9W4bcTuO/eMvMHHanwWPM+eDvvOsQGttSxzRUMiqOw3PzsfxUD8jSDHMYITHyUWBXMs/XL2Ov964AvPW/50Qwi6ZpkMCN/MHD0lB6jr1W+l2kljS7++t+b48ZoxnPO57dC7unpqNOf/tbzF98RyZRtse+l8/NAmqfi0SzM5jbVJM4+bCr7BSuqs+tFV+lwWOYRLMoBM5Epje3/47vjzxOX65fhsObvwprviNEYMhLa+RmXeptRDDRtyBYcPvUGvOyZqZi1v+5Fa1ZiSOmHbjv4vXlLta+lEjVta7M3MFwzDWDNreVbKqyOLSl0n/5S/UFmtG3q2F6yFRpOWOsaNxpyeVcaAn4L/OuR2HOt0Jqc4wjDWDTuTIorp99PCgG+qUC6e/kMJGbieJYv7jD9pYZ7EQzzwTOufxLx/9AS/Mmq7WGYZJBANW5PThG9TpQND/+hCPP597P8ZkTcDH1f/b8RCT8ffeg99fuipdXP0Y6ojQoe0EWXkJG7ISbI+jpRH+Z3+A5/+z2sYwTEIYMlFISNCoA2H6ogekBUcdFec+bcPMZx+Sw1UYhkku3LvqMplTsoOdFWSpndz1Ee6dX8QCxzBpDseTYxgmJbAlxzAM4wIscgzDpDUscgzDpDUscgzDpDVJEzmH/RsM4wAahL3V4Ry8sezLpCNJ6129dOkSXn75ZaxYsQJZWfZTAJtpw+7N2sTPNOlxyepF0Off7f54B949oUUOGXXfk8EpA9vqNqPpnPwpMW6LD8rDGUw1XNsJlI8zf24/I787dOPIjndxUhbDKEx/YglmB79Usy+7eKGp6wpWATVHX0f5BJWYdHrQsLIA/qUdqJyhkgS+2mxUVGu/1+4xb8Pxrcje7kHLa+WINVYMkzjSsnf1xIkTWL58ORoaGlSKE+gBXY3VFg8pCdhqsS1cxDxzaX+xPDFdXHQfjlxUG9KOTMxeQvf6JKaPUklBcrFIlluJKEE36IH3YB7q9uThQItbc+vHTs/e9aiaUmcSMRJfOVdsR4dY6oCFoo4Z4x7MqETdlCqsj+vzO2awk/Q2OTIct23bhg0bNqC7O8Efp9+di5xR13BZ1m2ybHbjiLAAN2/eLJfdrXIvAVlEWhotOz7W8kXW2GZpDfnRpLZtrmuT2+yOocmoaZ2sSf+H+vbd4ura+YL7EbTvDm2Sa7JMd398BDvU+ULXEVw0pKtz9ReyfLJXNgjpcsh5Lw5MKUL+eCGZB72h48hKqm0Q1pU2kXa2wTUk8Vm+t0F+3yu3Ba9H1pi+vzGdXEuzQFE+Q98Gk9AKS/JR45s/LO28H61ojBDi/EdrzPlmhgwp63jwer3SqmtqalIpCeBiG9qveTA16DL60Y6yoJV39ZgmMG1176L9Hs0qJKso54t3pQDmVuiWkG5NiqVCsyftjkHeIplWMslgUSorNPevhGX5RZu8JtH2Gz88M2cLe0zDf+Iy7lfnm/67JiXCQpzf09PFMhdoUsKYTHpaDiCvWAjJhCLMxwF4jZZS9QFgHVlRHWipbcWbBoupcZUfRdLC6pDW1PvHKTUD5a9pafKYeQeUlZWPx2phECgfvNVrsUwPZUVCK65eZHKVxStofx48lEaCW+jH/NpSbZORCR7k7Q/LNzMkSJnIjRgxAitXrkRJSYlKcY+gBfVeO3KeMLq5Htyvu7Z3z8aSJSQw3ej+3Sjk3KtLTSZy7xmFq73RZCSeYwRkWQqZbZPucxvO/G46ig1tdqPuK1Z5NZyv9YzZkvxQa2XrL/mrhMA4bqPSrCWPDPCZgaJ5RiESrFkWbKPLePh1U3y90trHhHRp0DV1N1NaksqSK1jVqCUKMgrmhyyu4160Go6Pit7u1lGJIpVkRryqFqifzJAiJSI3a9YsvPHGG5gzZ45KcZeQBWVsiB8IZGL2zNFoP62JFwxWXDg9lw3h2CeVqPtRixTnJEIW1P5GVBWGRKmxP66fEKQKYaHV6Zac0fKaUI5lUzSLy9eMkBVnC4nXJlQYOhb8HSHRDGGw+JghRVJF7pZbbkFlZSXWrVuHsWO1IJapJxOZd17ThEfShuYT1zB6nFFGrqLb1Hnh5BhxlJVllzcVo4XLeuQ3MLjR4Qgr75yyFMX+nnOfut55EkubHLmqqG0JupfUuL92P9mX/WABNQIQPrxvsOSIfGHeHmhpgFfYZCYrzspVlpZlKUrnFWlW6fkGvFldivkFYeJIbXXBazJDiaSJ3PXr12WHQ1lZmUoZOORWlGD0iXdVw34Trt73pGHoRy6K7wNOvqfcRdUhEP0Y1f4W3G7sLMjF1DtP4iSmGtxojWuG82GuboXmYtHc0aHri8XUeZFwyFVtRJ7HKBr5KFqzCV7ZvhYHMx5DDapQIN1VLzzhbWgzipC3qgqgNkATmqtc9YF51FvGwxsx/2CB5v4WViFvT+QQF98H4ny6EDJDCxon54QZT3wml+TSGtj16i7xbyQXj7wVeOvIRbU2mLgYOPzWW4HDF9Sqon/3Y31ODfsyHLB01Qeee74+0K1WzXQH6p/PCmzxqVUn+LYEsmzPx6SKZGlKyjoenKM3ukcOndAtn+RaNvGiDzl5F5dnutVWGDqnNiDYCA2ZoW36gOBBgHA1l0trzI9ltp0i1DNLY+Fi+OJhIVDHA4GHLDF/8cAwDOMmHE+OYRimHzi25BiGYQYjbMkxDJPWsMgxDJPWsMgxDJPWsMgxDJPWsMgxDJPWsMgxDJPWsMgxDJPWsMgxDJPWsMgxDJPWsMgxDJPWsMgxDJPWsMgxDJPGAP8f0MpZA26ODXQAAAAASUVORK5CYII=;" vertex="1" parent="1">
          <mxGeometry x="650" y="1542" width="313" height="116" as="geometry" />
        </mxCell>
        <mxCell id="b_LKB6QUHwTkPTV8HH8e-84" value="" style="shape=image;verticalLabelPosition=bottom;labelBackgroundColor=default;verticalAlign=top;aspect=fixed;imageAspect=0;image=data:image/png,iVBORw0KGgoAAAANSUhEUgAAAcUAAADUCAYAAADtPDgOAAAAAXNSR0IArs4c6QAAAARnQU1BAACxjwv8YQUAAAAJcEhZcwAADsMAAA7DAcdvqGQAAABhaVRYdFNuaXBNZXRhZGF0YQAAAAAAeyJjbGlwUG9pbnRzIjpbeyJ4IjowLCJ5IjowfSx7IngiOjQ1MywieSI6MH0seyJ4Ijo0NTMsInkiOjIxMn0seyJ4IjowLCJ5IjoyMTJ9XX2PeEZEAAA3J0lEQVR4Xu3dD3RU5Z038K+vVqsgyL8IuEMST63pJguS3eCShdMiRJISiQZd/1vLYZGUlGDkvNuzB9ou9rxn9xUjSbFBpVSrq3UrkWAwgajYE3d4Jdvw501WLB4TmJVIwh/BQ127vifv83vuc2fuTO4kM8kkuUm+n54r9z537szNJJ3f/J773Od3SZcCIiIiwv8w/xIREY16DIpEREQGgyIREZHBoNgX7dVYtboanWazRwe3IKWiyWwQEZGXDWhQbK9+DD/1LcELCYoJTRUpSEnZgqENMU3YMrcWeesLMMW06MCXIudmLVsOmnYxuxhVKMSqXTGFUCIiGkK9jj49c+aMWXM3ceJEXHLJJWYrpKl8CXZtstZTq3fje5nWet+pYLQ6gOzFtfD7tqJ4tmkeZBKYn01pxNalwZAYTrLIuQGsbCtG6EdW557yLHz7t6JgmmkiIiLP6TVTvHjxIh566CHcf//93ZYnnnjCNSCivQYNR4vwyIEiTDBN4SRIpMSXPR30o3lxNjJ9GdjU4MgVdfdkNapX25manUl2qrZVqN4VyuKCryeBy7R1b3dmovIczsyvCf6ydVgZLSCKTwOoW+KDz2xaMnF3BVDbyGyRiMjLeg2KM2bMQFFRkdkKkWDo1q5Ny0dJZT4SmRQ1NTQjL0sFo9nZWFfmdwQupawWWN+GtrY2NFY049lgsK1DSVu2bm9rq0LGmlet46YVYKtuk6UReXs2oLrdal9Zugl+Owi2+1GLctxtZ6UqMG8qVYHZbDp17lplBdk7mlHu7Fo1pqhgXrfHH9t1SCIiGhIxXVPMz8/HvHnzzJZl1apVSE5ONlvxykSxCkhRuyC7kQwtAz4dZTOR7QxconRlsFtyytKtjufNRflddgiT17S7NK1M1coUs1CyWzdqmfPXBTPRzsZaZKzoHuDcyOvqILs/D7VzVYYqQdZpqk+dDREReVnMA20kKxw7dqxez87ORkFBgV4fFJKhqf8VmkBWWIbwLtQ4NVUUqoyvKpgpli8xO8Tsu1H+oWSinfC35YWyxFhNy0bekjoEPjXbNulWvdEXU4AlIqKhEXNQnDRpkg6MV111lc4S+ye+a4pNDZuw7nW7u1OysXLkfhjoV1dkboq56nfw1bBMUeV8yF7cDP8uPwIp2eFBzK3rNpJ0ue5eh+yIYNoZaA69JhEReVLMQVEsXLhQB8akpCTTEs1hvOBbgp/OqcQ5tdVaoNZ9lT0Hk6ik6zQXvqlmU0g2hlr4I7soY5R5VzmwJsvqPm3whWeKypSsPDSvqYVPrmGGsbpuQ9csLcHribJ0G3kqmvDqGljXRImIyLM4IbgbGdHakI22NW5DauK/vaLX2ziIiMgT4soURzz7JvxtPjS6BkSRiWIZTPOz2Ge0KUQVAyIR0TDATJGIiMhgpkhERGQwKBIRERkMikRERAaDIhERkcGgSEREZHgnKDZV6tqL1vIY3uzjjfm249sysX/bEaDlKezPfQrHTbs4vXcNjrTIyk40btiJ01azbt8v29KeuwZH7R1ERDQqeCMottegvKBG1138aWA3lq47igMba9DPuIjLZlxn1qI41Yqvkq/HZLOpRW4TEdGo4Ymg2H5gH84hH3+h75c/hU+Pqn9q9uFgMCr2of6i7dpUXJaVijF64wiO5GbiWNl7uPiYyiQfexF47WErO9T7jcnX4wqk4kpGRyKiUcUTN+/rKv1SlLgyCweLlqMztwifFVfimmDFfgmKhWiuSMxUace3rcEXt1dgctMatOInyLp1ktlDRESjmacG2hwsX45judvxvTmmISje+os9OYMvjoeywCuuY0AkIiKLJ4LitJQ0oKYSx1K2o6TgWqA9gHNIw5RElu4XetBNDs41voiTjm7Uxr1nzAOIiGg080ZQnLMAE9S/1/hUQFSaGmqA/AWYHQyK/bim6JT+KObWPY8xWT/GDXX1mJA1DxNeamL3KRERad7oPp2Wj5LqfFN3cQl2bcrH0sp8JDpR1E5/jC/NKjiYhoiIHFglg4iIyPDUQBsiIqKhxKBIRERkMCgSEREZDIpEREQGgyIREZHBoEhERGQwKBIRERmeCort1Y/pm/dfaDIN/dBTPcXopIpGrI9109/jRR+eI1j/8QyObuC0dUREfeWZoCiVMp4plppRidNrPcURhbPzEBH1lzeCYnsNGqR01IEiPQdqd4mqpyisbGp/rlkkm1R0Zpn7MC7CmizcuU8q8oeyLzneWZXf+XxyvIPOUs2+iAr/R/ZKdmf2xXAO0c473CRcmczKH0REfSbTvHnGyTe6Nv/Zd7ue/73ZDvp918+Tk7seqe4w2/3QXNblf+6w2Yh0uOvw4rKuNrNl69zzw64De06brdNdH6z/YdcHndZW23OzHfscx3e+3nVg/etd5mH6OezX1evB15FjQs8X7Rx6Pm8iIkqEYTLQJoH1FCVzdKu23ydHcP61B5HkUmXjdNM7+KpxI46ZzE7KVDldVvoQVFKnXIfLs/RKzxJ63kRE5Gb0jT6dfDuy6powtwRolYA1gEHmstJ6zJXXspcVM82ePhjE8yYiGq2GSVBMUD1FJx1knseYxtbw64BoxRcu0earE5/of0/v/Ueca9SrimR5L+J8i7V1fFvomuLkzFuAsl/3cSSq+zloUc+biIj6yyNB8TBe8C3BT+dU4pzasuoqVqpQmHgyyCU4WCX3YXwZ7MYUMzG9FDj3gNlvBrNMvnUFxkjXpWo7duIWTAh2d05C2j0P6ur9su/8XBWszB4JXqmlraEBM2o5YoJnz9zPoefzJiKiRGA9RSIiImP0XVMkIiKKgkGRiIjIYFAkIiIyGBSJiIgMBkUiIiKDQZGIiMhgUBwM7dVYtboaMU09cHALUioG4g5NIiLqjWeCopSOklqKeimqQbtp74+mihSkpGwZkEkAYteELXNrkbe+AMGZWyXwpci5mcUZMGcXowqFiZ29h4iIYpLwm/fPnOm5wO3EiRNxySWXmC2jvQblcwKYHyhCpp7d5h/w2ZbtKCm41jygL1QwWh1A9uJa+H1bUTzbNA8yCczPpjSGT2YuQbEhG21rMk1DJJnW7ln49m9FwTTTREREAy7hmeLFixfx0EMP4f777++2PPHEE90DopiWjxIdEMVUTMkHzrV9qrcsfZj79KAfzYuzkenLwKYGR66ouyerUb3aztTsTLJTta1C9a5QFhd8Pen+NG3d252ZqDxHCrYcNJtqj79sHVbGXd0jE3dXALWNzBaJiAZTwoPijBkzUFRUZLZCJBi6tXfT3ohjNcCElKmmoW+aGpqRl6WC0exsrCvzOwKXUlYLrG9DW1sbGiua8Www2NahpE1lcKq9ra0KGWtetY6bVoCtuk2WRuTt2YBq6d9V7StLN8FvB8F2P2pRjrvtrFQF5k2lKjCbzTBlhcEgGwqiIVNUMK/b44/tOiQRESXEgFxTzM/Px7x588yWZdWqVUhO7m0K61N4c2MlzuUX4W/Duk7jracoGVoGfLrrMRPZzsAlSlcGuyWnLN3qeN5clN9lhzB5zWIT0KxM1QpiWSjZrRu1zPnrgploZ2MtMlY4rh1GM7vYBFi17C9H8x0qQ428iDrVp86GiIgG04ANtJGscOzYsXo9OzsbBQUFej06FRCLluMAivBIZT76dSlNMjT1v0ITyArLEN6FGqemikKV8VUFM8XyJWaHmH03yj+UTLQT/ra8UJYYq2nZyHM+n+3TAOpu9PUeYImIKGEGLChOmjRJB8arrrpKZ4m9aSpXAbEmH0tdA2J81xSbGjZh3et2d6eVjeV+GOhXV2Ruis9aOfhqWKaock1kL26Gf5cfgZTs8CDm1nUbST+fndWGdAaaQ69JRESDYsCColi4cKEOjElJSaYliqZK7NokKzXYZd+W0ed6itJ1mguf85KkZGOohb+P93lk3lUOrMmyuk8bfOGZojIlKw/Na2rhk2uYYayu29A1S0vnrlWmK1YtdwBVwW5aWxNeXQPrmigREQ0a1lNMhB5vsYj/9grX2ziIiGjADWimOOLZN+Fv86Ex6j2HmSjer/LUn8U+o00hqhgQiYiGADNFIiIig5kiERGRwaBIRERkMCgSEREZDIpEo8T+3NBgMOe6za3Nqbf9RCOBJ4Kip8b6nNqH7dv3ocNs9qh5BzZXtZgNGhxncHRDJhr39lyNhbqbW9cUDGzOdSHr0haJgZBGG08ExbNnz+JHP/oRjh8/blpi0FQZqr/oewxvJqIAI1qw45VWpC5ZgNB0Ax3Yt30zNm+2lh3NpllkLEMO6rH93ZhCaJBV59FaIicDP713DfZv2InTZtsm7YkMBMe3ZeJIlHge7Rz6Jt4gdgRH1AexfBgn5BxansL+bUfMxuil308T4GJZ75tov2vn3MFDXd+UqGee6T49dOiQng6uurratPRA6i8W1CC1ejd+GtiNpeuO4sDG/hcmbqmqx/mb8rHAORd5cwNar78Pa9euxdpFPgTe2qFCZ0h6YQ7GH6rBvlOmIUb2NHRDVefRS8ID/kzMVBnL3Jd+jMtMS7hJSHu8CVm3TjLbFgnyroE3/SFMOP424vi6NWJJJtjb4sYtcDrbemdN6C+VZ9aZFiKv8tQ1RelGraysxMaNG9HRET37aj+wD+eQj7/Q/588hU+Pqn9q9uFgMCr2of6iCnVHT/hw83cipqRT2eByuy0jDd1nI03H/JuA1g/iyxajmXxdKpB8PSabbZzeiUb14XOs7D18VZZjPozW4KidQpn9VvtT5sPf+sYeypCs7EsHDcmc1PrJ14CLj0UeZ+l2Dv0yCVcmA1dcFx7EbBLMjjXcgtSIIOfKnLsskQEweUU9rm7IcQmMkzB5fis6XALm8W3qfdwb/TlHEjvg2T+r2yKcgVHaIgOmc9tuC+n5d000HHhyoI3f79dZY319vWkJ196momC+D9NMZY3O3CJMwFF09idVbD6KwIw0FeJ6II8ZN7Fb5YqkyeNx4eOW2K5D9ib9UcxdMdNsKJNvR5b68LmhdB4uK603H0YVSNMRSwW7B1qRZH9IPQmc1F2Okk3Vqwxpmw6ep/duw5fqWJ1dyfOrx06/ExjzpP3h9ijCinpFnkM/Ja9owkyXN1YC4kk8j7mP3x5bADbnLu9Fd1YGmXRCfXGI6C6dfOsKXFH2a5ds8T2ca0jFDfIeqMwUro8ZWazfd/hitzvZATFe0X7XRMOFJ4OilJxavXo1cnJyTIu7g+XLcSx3O743xzQExVt/MQYyAOet85gVdr3RmDIR48zqoGp5GxfxIk7a3/Yfe9HsECpIlNyCzx+IIxMbNFYm2zFDBfkEBl8hH8rT8XDE9ciZmF7aivMu11DH3GMC8uTrcYVuGV2iBb++BESikcBzQVGKEz/zzDO6wkY001LSgJpKHEvZjhIpRtwewDmkYUq/ijD2QALiK4cxftHy8OuNts6zuHBNUvdgORjuVJmW+gALLpFZ150PYoxZ9Y7oWV1/Rcs+J2fegi9/k6jBQ8OP/tLksrjtc4psj9wmGmk8ExQvvfRSFBcXY/369boWY0+mzVmACerfa3xWhGpqqAHyF2B2MCj24ZqiXC88cTRsEI1FRqRKQFyLZRmmKULH6fMYN3HgJ/D+6sQnZs1IX4gxr1ldpN1J1+o7uPr2RzF9/js45hJ8vvwk3mtoZhRhRWKyCPesrq96yT4n346k5I04OUrvoAn74mSWntptke2R20QjjSeC4sWLF/UAm/z8fNPSi2n5KKnOR2uBdUvGrk3RihPHIx1pMwJ4P+L2ChmRGlD/Bt4K3ZYRfgtGCxoOAanfGtg8Ua6LjXlNBRD9Ld0eaDMTM59MxbkHQt/ercEiEiAexpelP9HXHiff+hNMOK6OdQTG5NvlGpo9cCd8oE10Pqi3G+hnwWYnCYw3qKDdag9ysQcOPbARXzVuxDFZN+etbxVR285BR/ZtJce35eDz+ea6aRTyM4/mbJGIescqGWFUVrj5fUy8N0o3qYuWqs14f+J9oRGqMZD7FP3zh+ftGHLuUtrKvXak18mXhRz86R4OBhHypSKejC/ex3cnPQ1+ZHcrqk3kHQyKkeT64W4gf7nLgJpIMqPNH9KwtjC+T1gdWMqsdblfcVgEx/ZqrJpbgrrS4RoQySbBzRYtyDkf05veA6UEw0Js0uvrUMWgSB7GoEhERGR48pYMIiKiocCgSEREZDAoEhERGQyKREREhieCoqfG+rCeIhHRqOWJoNineopKe/Vj+ub9FxI2uYZ36ykOpqGtpzgQop2DmaFHL6zzR0Qe6j6Nq56i0lS+BM8US82oxGE9xdGGdf6IKJynrilKN2os9RSlyHDD0SI8ckBKRrnpw9ynKtR5sp6iIpnbkb2OuomO6dpkAmzdphd7ujapn/gUjuh9oZqBoUzJypzs4yIr8A9GPcXotQzDzy2UsfbyM7nWlbSxzh8RxcaTA216q6eo5z7t91ynEbxaT9G4WGbXTXw+bBJwmTtUZhTRi9RTDAbMF/HljHpMv9PUDHzyweCE4jJPqEx1Zh33PPCYPZeqMSj1FKPVMrQqaNg/U9i8qFF/pmh1JUPcz4GIKJwng2Ks9RSjG3n1FC8rfcgUAr4Ol2fpFc2eJFsvYfUUH0SSmRw7WDNQO4LzYVX3H8ZFs2ewRatl6Mx+ZfLvkCg/U491JYmIYue5oBhLPcVB59V6iqd3orUMmPCSnSE9aHb05kFMt7MqvdiV/D2g5SmcfC10fu5V9l30VleSiCgGngmK8dRT7F0frikOg3qK7lJxpf70P4Ojv4klQ5qJ8Xe+iI5uIzFjYUZrJqieYlRZqaYw8hGcDMsUo+ixriQRUew8ERTjrqeIw3jBtwQ/nVOJc2rLqqtY2c8h9d6up+hKCueqAGd1G/4jMD+2TDF5xfO4IlhLUS0x336R+HqK3aQ/hAkwdRRz38blMWWK0epKEhHFh1UywrCeYm+Gdz3FaCQDZp0/IvLoQJuhk45l96aidXfsM9rUIyeugGjbdIf7zfueJfUU1fmOrIBo37xv1/ojotGOmSIREZHBTJGIiMhgUCQiIjIYFImIiAxeU6QhI7dOyI32Tm5t0chjIzmPjee5hNvz2eJ5HiIavjwRFOUULrnkErM1xGT2mt1A/nKX6dwiST3FP6RhbSEn1YxXtIDl1h4tWPUWqJzP5fYcbq8T6zkR0cjkie7TvtRTlNJRUktRL0U1aDft/ePdeorSnsgb0mV+0cjqGLaBrqdoByj5116cItvtgCT/OtedIp8jkn2s8zncOF/bXtwk+vdBvWhxq6jSG6uySnxVWqn/5H3v/vnSuWtV8HMvvgpGg8sz1xTjqqcopaM25WNpYDd+GvhfSK2pxL9Wx1nQ0AXrKQ4etwAlH3hu7UK27QDlXBf2cTbZtvc7122Rj3eS9sjFzeRbV+CKhoYEfXEYxSTYOUqhRSWVW9TvwnUuXHkO1y9xMzG9tBXno3z5o8E1ZelW/ZnXWJFrWrzJUwNtpBs1pnqKUjoqUGRmH5mKKfnAubZP9ZZlBNVTNHUCpVrEV8Gp2RylnlzrCJqahMEPG+ubm/6Gbb5xnwyrlBH+bXow6ilG6ilQWefYPchFW7efxy2oyWOivY6wn8e5uJuJ8ckbcTLyA1d+H9t2OmpCMlOJRvdIPAZMd5Ypc2SEMb93KmBKibFjLoFxcuYt+PI33duj1/Ok/pNKPvNweYyzgnmOXFMcaqdPn+5avHhx2HLHHXd07d271zyiByff6Nr8Z9/t2rzzU9Mgft/18+TkrkeqO8x2DP7va11P7Wg2G1HIY375TtcpsxkUrT2K35cnd/28yWzEqHPPD7sO7DlttmyHuw4vLutqM1tdzWVd/vWvd3XqjdNdH6z/YdcHasPt2LbnZncd7uXHHSj+xbPNmsW57bbe0+OdenseEe3YPul8vetA8P02pE29hv3eyvvc/fdG8jcZ+ls19HsX7e/Z4v7/A0Me7zzecPtbl7bgc0e+Lg2ojupH4vtsHmSevCUj9nqKp/Dmxkqcyy/C3xY4v5aMvHqKrnqsIzgJaSW34PMHVJbZcAtSTR1CrwhlA+GZmGRx0dqcj3du20ssGaBz3W27tyWMTMie/A5OR6YhWT/GdDP2asyMGEtfjSJyPfvYiRXdy3udasVXdy40dUMVqX7S2Bp7vU/pYpUC086eFCX59h/jy/3du2ij1fOk0c1zQTH2eooqIBYtxwEU4ZFEV+GP5NV6iqK3OoJ3PmjKMHmL85xj4Xys81jnYpPgZW/b687H9LQdS7tT8txUnNsZwzUxCkpe0YQbZmxL4GAuQ7pepTs2sj7o5Pm4+jhLi1FsPBMU462n2FSuAmJNPpa6BsSRWU/xqxOfmDWjxzqCR3DkgXdw9e2PYrpcb3EZzPDlJ/FeRxmceopuwcfJmbnZi5McH9kWi8hjnM8f9fmk1BU/cOM2+dYK6zqg87rhtam47LW3g9un927DxWBtzZ7p65O/ScUNdY+GMs2gSUi7h19eKDaeCIpx11NsqsQuXdagBrvs2zJGeD1FGe045rWHzQe03T0UrY6gDLR5GF+W/kR/Y55860/UB7c61hEYpUsJwYE7sQ4GGYR6ij2Qc7UDpp25RQugdmCMtj8WzteI/jz8wO0rCYy6u9P+u5x8O1JLW4OXA46VpWK66fnQQU+3hQacBYf8qwxRLhHcENlL4sQvLxQrc22RtOau1576Zdc7zjE7vWje8VTXL/fFOsTG0peBNl4h555c/nuz1Tcy2CVyceNsj3xMrMe6Hecm8vHRHudOBjxZg5rIu/TgnucOmy0aKl4faMNp3iINwow2ulBvmbUu9ysOi3sVpZ7i3BLUlfa/nmJkBue2Lew2e7/dLtweL+zHRe53Hu/cJ9weH03ksUQUG7l5P2tNnV7PrWhM7EDIBGJQJCIiMjx5SwYREdFQYFAkIiIyGBSJiIgMBkUiIiLDE0HRU2N9ZPTp9n2IaXpvGX1axSn4B0Jiy1eNXDKiL7ZJKjpRvXoVqhNTY41oxPJEUIy/nuJhvBC8aT8RN+7bXOopSuAzN+0PdT1FfbOyVGGI3K8rCySuGoPbOUhbvJUEejqmp3qOide9pmP/DM7MPr06uAVZe/LweHBouwS+0N9WyupqxyQLU1CwPg+1c7e4/H/F/Dx6cdtPNHp4pvs0rnqKmIXv6VqKpp6izGxTftjs6zvXeooq8OlairLcOwvnh7qeokyanLCyTt6lZzvpaYaSoXTQj+aKKpR/6B/CAKIC2R3NKF9foMKdTQW+p62/K1mqbizBBmcWOa0Aj1c0o7BbMLcm0G9rq8I600I0WnnqmqJ0o8ZUT9HFhJSpZk30Ye5TFepc6yk6ycTf4yY6PoTEANdTNLUQZXorXf9QKmHIdG/OTE7mjIxxjshYRK+n2KDPRW5uDysM22MNvCjHiE9CtSBDWZz18+rHu2TMkmHarxWW+YWdQ3iVhFhrOsaqqaEZeVmZ8N24Cf5gpm+6J3dtCWZqwb8/ldGlVFQ7sjhHNib7zONlsXsOpDch7O9XHufM/FRg3lS6EgVRZ8LvROBD9Z3OF/7XOmXpSqwrG8pgTuRxcvP+UOtTPcXf/6LrJ3/2XWtZ9UbXSdNsSWw9xVP7ftn11FNPqSXKFHCDUE+x7bnotREHg54iKziVmWNasx5q4FnH2PukvmN4ncFQrTyXadJcahWG/+zO5wvVjhx46m/rBzu79F9W088dU951dO38gXMKPPkb/Ln6ryKPS36ka6f5I40+zZXjmJM7ux6xX0eJ/JuJ/jdk/e0ny+I6HZ91ntGPNa9PNEp5cvRpTPUUM4tM9+l2zEElnimqQWgMQWLrKSZ9Z7npPk1F6yvbu3eVDng9xTP44ngqrjSpW6IynnhdZiYYtypr6yarO7eHGniXlT5k9k3C5PnzwipzBOvZSRX7O9/Dn3rsgj6D0w2hyaD35+bgXKPZpTPB9/TE6AN+nVIytBt9Vm/B7OyIrCsX5XfZU8TJ32Cx+q/hyOqmLN0a+tuU6fOCmWIh9Dz3Ylo28lALv/6jboL/w3LcHVNXu90V2oYqFLpc95yiMlyzSkTdeC4oxl5P0XYtZuemATUBR1AcINemI3XcBZyN7JUdyHqKultQAoBVTNjuRk3coJHBc/HEe1ECugT9ebjcrVZlmHmY8FJ45YqZZtpZqdEn2+P3W12oAxUcmxpU2CpTwSYYxJxdqPHqRPXPSoCKRnMd0HlNbwoKVmSgtlH9salAjBXOa4exyZyvnq1bRRPpVs2Fz3m1gYiCPBMU462nGHIYe4uPAvk+R13FPlxTjFpP0eFUC1ov+JAWUVdxQOspSjXxuucxJuvHuKGuHhOyrMCQFVMl/UEYJRlzDbwjOP9alMB3ugGfN4YyYXeSaaLXEk26gG1peEbaI5Opxfa3ojK2snWoMpmYLI0VuWgOxPF35sK+7te569lQpihUJpqxx4/qBiA7IkuUgLepoeffqwTw3MXZEcE0gMDuDPgGtCo30fDliaAYdz3F9hqUB2/H+Ae05iei+r57PcWOd7eHbsl45SxuXrtMPdJpEOopnv4YX5pV9Uq9BA+nQah/2EMNPBHq7nwYeDK8IroeOCT7pBjyS6Y4rNxyots24qvGjTgm62aATrAupH4+WexBPY7BOWqRc0iK6UuDMs0H+Y5T1yZVM3shXadL1HtqNsWUrDxABa6+vb+SDargdofVfboBeRGjPzORfWMJSpAd6oa16a7bZyPuO3TeWpGCZ1O6VyLQgbfU5fmISGOVjDAt2LH5fUy8d3n4bRk9aKnajPcn3oflPY1ajSAjC/3zB6dklC5Thf6Xexq5ZNRoFmoXe7GUjZzbBmD9VvdRpjIidZsPjU/H2LWqy38FsNJ5rTOMBFU/sqPuJxr5PDnQZuikY5kMptkd+4w29ciJKyDa7Owg8ub9hDHdggyIPdC3Q3gxINo34WchsCJKQBSzi9G4uDb8XsSo5PplLfL2uwU8O8N0DPQhGqWYKRIRERnMFImIiAwGRSIiIoNBkYiIyGBQJCIiMjwRFD011of1FInCRCtnRjQSeSIoxl9P0WbXVXwMbyZkjjeXeooqPO7b7o16iomc2q2neoaJ/RDsXy3D2OouWq8RfkN/7xL9ng4fMtlB6H3Sv28z8UH/p8eT30VklRKvifY36Zz8gHUlRyvPdJ/GV0/R0lQus9mkYYLZ7i/XeorNDWi9/j5rQvBFPgSGup7iCBQ1OJ3eiY7jP8b08CmEXExC2uMy9+nz3aeX0zPkuAfKybeuwBUNDSM0A4oenGQqvi+DE7XL+1Ch542dfqdpiOBa21Lm5HX94qR+F/ek4vOm4fhlg3UlyWPXFKUbNeZ6ik2V2LUpDXP+boFpcLK+8SWknqLKBoM358v8qNaawwDXUzTTnslE4KEp0xwfdva0aHqxP/xN5hSsX2hNg6YDj6k7ePI1xzRrEUEjej3Fvui5lqFkgscabkGqy7Rsx3duxBXBShrCmRHGmH1Ovh1ZTwInXQPjTIxP3oiTkdmRvKfbdjpeyz2oepf8vnPw+Xy7qonTEZyMeRq8Hmpbpj+KG+a/g2NugTF9Ia4o+3W390y+/BzZ6/h7jayvOWgSW1+TRhZPDrTx+/06a6yvrzctkU7hzedqMGHL/8R3EzWxcfNRBGakRcxrGkEe063IMJA0eTwufNwS23XI3sgE4Ctmmg1FPtTVt3iZ5Pqy0nr9jX5unT2HqPrQeqAVSbpNLfLhrz+kJHOqx4Tj23TwtDKDemsScT3BuJUVjHnSHFdn5h21RZ5DP8kk3XY1CycJiCfxfJQK+zKB+IMY7zju+Db5oLffg3pc3ZATW3ef/DwvpaKjW/FhdW63/xhf/sblg/21jfjTPdb7M/3OF9ExbLpZJZDJPLNRJo1veRsXnaW+ejQTM+W9funHuMy0OOkM8p5WHOv2pWEmppe2ur5nF8vsv1eV1b9m/X0OhWh/k0SeDIq91VNsr/7fOFCTj/kF0SYoTWw9RU0G4Lx1HrPCrjcaA15PMQr5gINVUkp/85aq/EEqMJbcgs8fiJ6JDR0r4+uYoQJclOAb2cUnx0h5qasz7Z+je33GHsmXi5es9yMskKr2pOR3cDrywzkr1G07ZsY8a8XrdK/BNlz+UrQPfPW+/6YVE25P3Bce/YVDZ+LhXziidU2H6ms6anISeYjngmIs9RQP1h1V/63BLhlkM6cS53AUB+YswQsDdWVcAuIrhzF+UZSJwgeynmJv7lSZlv7mbZbIrOvOB13KOA016xpg0omcKF1o8XTxxUgChq7G0T1gJM9N7bUk1bCgexVW4E/Rii23/Brnkle4dKn2g3THPwZMD/Ze2KJ0TRN5nGeCYjz1FL9bKRX3zXKgCBOQhjkHduN7wZmO+3BNMWo9RRmRKgFxLZZF1FG0DWg9RYevTnxi1gypch+1C0q6VlUQuP1RTJdrPy7BJ+YsK8iMzktQfUbpwpqOh7tfr3Lt4rOq64cGcEjgjFa0OIJ8cOtu5sgPbiP9oWBX8/AnXZ7PAy6FqI/vfxFj5iYuS9SjVn+Tihsiu9+NqF3TRB7miaAYdz3FAeFeT1FGpEqlvcBbodsywm/BGIR6iop0R415za4laHdVqQ/AJ1WWozIDq93+IJTuyYfxZak10CJYh9ARGOUDC8GBO7EOJEl8fUZdFFgF7dbgB3j0Lr7kFc/jCkd9RrlOamV99oCQh0PdyXaglQxRZzLuH9wWa8TkiMgWNQmMcs31H0OBXr0P0UbyyrVdeU9Dg6/M35fujlXbLrUt5YuGdMvf4Ho92NBd08wWaXhhlYwwI6+eYqINeH1Gyer2L0zoQJ/YSGCV63FRsslhTgLf+blDMLhEfp+STfYUPD1HekRYV3K0YlCMJNcPdwP5y10G1ESSGW3+kIa1hfF90ujAUmaty/2KwyI46gK1JagrZX1GGqkkGNo1JdehikFxVGJQJCIiMjx5SwYREdFQYFAkIiIyGBSJiIgMBkUiIiKDQZGIiMgYlqNP/3Txv3Dg+TdwLvCp3s5eWYhJ11+n1wfCiX//D5x4vwVzHr4Nl4/5um77vOMsDvzqDdx016IEvfZh/GJRE54yW8CVKHvpHtw21WwSEdGAG5aZogSmeavv0sFwZEnCv771fRzTCwMiEdFgG9b3KZ75+BP4n63qlil+UPtv+Oh31vyc3/h2Jr6V9zf4f//9FQ7veAdf+/rl6PjwOP547kJwn3AeI66aMA4ZBd9Gc/Xv9GOd5PUuH3ulzhSnz/xG8Ljw87BuBG6uaIyxWodkiv+JuW8tAesOExENjRF3TVG6Or84fxHffbwIizf8nQqcJ3WbTQLinO/fpgPYySMf6W5QCa6y/p3S+/UxE3xTdbfotWkpWPj338OsOxfqNtl32z/9MCwA268lAfb4gRYdfPuuA3+76Fe4QZbyw6aNiIgGy4gKihKQTn/0n/jk0Id4c0Ml9jz+XPC6o00yu6uTJpqtkCvGXoUrxlxltmKXPCcdl37NrQRrvDUdZ+EHwa7TXJR91ITVO9vNPiIiGgwjcvSpZG2S0dnLjL/6c7PH3dXXWuWHJIjKctWk8bjGF+OM4ANiGv564ZVmnYiIBsuICoqSsV05fkywWzRWn37wsQ6E0g0qQTTznlujZH/x6ENNx6DD+O2WL5Dum2a2iYhoMAzLoCgB7+1/fkEPshHy73tP/1bfqvHNRTdjQvI0vFv2L3jjRz/Xi1wz7MnUb12PP545r7tc7WNk4I1N9gvJImN5vj759HdYbV9PXNQE/PP38YO/NPuIiGhQsEqGIgFQBszMWnaLzhDd7kskIqKRj0FRsW/tcIq8zYOIiEY+BkUiIiJjRI4+JSIi6gsGRSIiIoNBkYiIyGBQJCIiMjwRFDnWhxJHJk3Yov4bi3geS0SjgSdGn545cwZPPPEEioqKkJycbFp704Idm+sR0Os+5KxdhnS9DnS8ux0vH7IqW4y76T4s/06SXm+p2oz6E3pVc+7rGzmHo0hzvHYs5DyOfnMtlmWYhgHRgX3bX8Zh/TaMw6x7l2NBcOa66O9dX3XuWoWsNUD5/q0oGLKJeDpRvToLgRVtKHaUGmmqSEFhmbW+7vXwfTi4BSnbfGh8ugCxzlJLRCOXZ7pPDx06hFWrVqG6utq0xEI+0NdircuHugS8tWpfZNDzLZLHq+XeWepFa7DvlNkx4iRhwXL5We/DrHGmKSgdy/T7lqPewUTohH9PBqpez0BtY1+mtUuMzl0bUHJjVVjQk2BdiCq0tbWppQq4Q/2NOedZn12MqhtLsKFP0/ER0UjjqWuKkrRWVlZi48aN6OjoMK0D5Np0pI67gLP6s1Aypx3YpzLMzZs362VHs36UIhmX1SbL9net85Jsb7POtgKoN/s2V7XofdGOQfMOvS3ZauAte/8O9erW8wUfJ+Sx2/epZ7Iy3x3v7sN283yh11FOOdrNc/WXZFYpq6tVqItRux+1N2Yjc6oKsXv8oeMkC6uoVtmber4UWUJdlRKsVu2q1vPD6n3B15Nsz368s126OsMDmpxnaG5ZCcwqU70r02yLiLb2AJpR1y1wZ95VHn7eRDRqeXKgjd/v11ljfX29aRkAp1rQesGHtGAXZgCtyA9mkecPWAGppepltF5vZZ2SdaV+/LIOmOmFdqZlZ6tqKbTy1WjHIGOZbsuZ4chYTZab/jcqc/24Rb+maPlDAL45C1S+ZwkcOoubzfPN+qzeBG0VzF+x29WyCKg3gXQwdTbWImO+CjzTspGHWvidmVhZLbBesrQ2NFY041lHRla3JoBsncG16Wzt1YPSOgUFT1tt+pjFtSaLy8TdFXAEtCb4y9ZhpV2aSwKzevXssK5b9ZVldwb0vOoSoOcGkFeRa+1ymuZDxu6I8yaiUcmTQXHs2LFYvXo1cnJyTEviBDO0V1qReq+z29WHm+2u1msXYPlyCUgd6PhsHFK/ZYemJKRfPw7nT/cUdvpyjCKZqwrLLbo7twVHP5uF+Y5rjuNumm/O1fF8zUfDM9W3rKuE/ZW5RgWkmK+xWdmYb6qsT0H2YmfgUkpXBq8xTlm6Nay+ZG7F3SrUWeQ17W5PnamaTDFrTZ3VqEzJygtldAf9aHYc3yP7umFbMbJNUzj11WaJWSWiUc1zQXHevHl45plnsHDhQtOSWKEMzTnwxAuSsGDOeLR+YAU7OLLESJ1nrUFE2owc8/OYRQfzQSQZ2u46lMwNBbG6/nRFqgBWqDLAKjtTdGZ20wqw8kYro2tqQChLjEqC3SYUOgbSBNpCQTbEkVES0ajmmaB46aWXori4GOvXr8ekSVbR36GXhKRrLliBSmtBw6ELGD/ZGXbOoyNssE4sx6ij3DLHjDSM/7gF+/4AR7duJJVFnjCZqHq878T7CR8sFM81Rek6RUVjsLtTBrOs2y35az8skU5p0YRXHZmiyFTpc21jNfwq5wvLEt26bnXmmovcxdlW1ttejWfLcpGXFRFM5Vpj8DWJaDTzRFC8ePGiHmCTn59vWrwjvTAH4w+9bAay1OP8Tfc5bqVIx/ybgMOvmO5LMwCm52PM9cPgfufgmHSkXXMYh5Hm6Na1XHA8HxbZWW46li0aH3p9tYQN1hlw0nVahwyfM8hkIrt0E/z6+mAfzL4b5ShBlu4+9cMXeQ1wdjYy1pQAcg0zjNV1W/Lb8LsOpyx9HHl7sqzu2LklyHi9+y0jTb9Vz2cHTiIa1YZxlYzo9wjKaM0a5PfzHsShIKNWa1SmFN6127+fx/05LX27z3JIqWxv1c+Ax12vebrfp9gj+3oj71MkIsWTA21iZw8y6X4rgp1ZDW7m1Ff2LRwv4+ycRF3rDD2ndQO/kwRD2WffwD8MSDDU2V4AK6MGMBm5KvcixjGjzR1AFQMiERmsp0hERGQM80yRiIgocRgUiYiIDAZFIiIig0GRiIjIYFAkIiIyPDH69E8X/wsHnn8D5wKf6u3slYWYdP11en0gnPj3/8CJ91sw5+HbcPmYr+u2zzvO4sCv3sBNdy1K0Gsfxi8WNeEps4XbMnGsZJbZICIiL/JEpiiBad7qu3QwHDlm4QdvfR/H9JKLso+a8Ivfm11ERORJnrpP8czHn8D/bFW3TPGD2n/DR7+zbsf+xrcz8a28v8H/+++vcHjHO/ja1y9Hx4fH8cdzF4L7hPMYcdWEccgo+Daaq3+nH+skr3f52Ct1pjh95jeCx4Wfh9TzK0RzRWNYpYfYSNb4AXwv3YPbdDUJIiLyIs9fU5Suzi/OX8R3Hy/C4g1/pwLnSd1mk4A45/u36QB28shHuhtUgqusf6f0fn3MBN9U3S16bVoKFv799zDrzoW6Tfbd9k8/DAvA9mtJgD1+oEUH3z779HdYvehXuGFRE1qKv82ASETkcZ4OihKQTn/0n/jk0Id4c0Ml9jz+XPC6o00yu6uTJpqtkCvGXoUrxlxltmKXPCcdl37tMrPllInitrb4ssSp38bTpvs09+06rN7JKrZERF42LEafStYmGZ29zPirPzd73F19rVV6SoKoLFdNGo9rfENZPHEa/nrhldh7fDjMw0pENHp5OihKxnbl+DHBbtFYffrBxzoQSjeoBNHMe26Nkv3FQ64ppmDVrr6Uz23H/3n7Czw6j6NPiYi8zBNBUQLe2//8gh5kI+Tf957+rb5V45uLbsaE5Gl4t+xf8MaPfq4XuWbYk6nfuh5/PHNed7nax8jAG5vsF5JFxvJ8fRK8nihLHQIPfx8/+Euzj4iIPGlEVsmQACgDZmYtu0VniG73JRIREUUakUHRvrXDKfI2DyIiokisp0hERGQMi9GnREREg4FBkYiIyGBQJCIiMhgUiYiIjAEJihy7Q4kjkyZsUf+NRTyPJSLqbkBGn545cwZPPPEEioqKkJycbFp704Idm+sR0Os+5KxdhnS9DnS8ux0vH7IqW4y76T4s/06SXm+p2oz6E3pVc+7rGzmHo0hzvHYs5DyOfnMtlmWYhgHRgX3bX8Zh/TaMw6x7l2NBcOa66O9dX3XuWoWsNUD5/q0omGYaB10nqldnIbCiDcWzTZPSVJGCwjJrfd3r4ftwcAtStvnQ+HQB4q1lQkQ0YN2nhw4dwqpVq1BdXW1aYiEf6Gux1uVDXQLeWrUvMuj5Fsnj1XLvLPWiNdh3yuwYcZKwYLn8rPdh1jjTFJSOZfp9y1HvYCJ0wr8nA1WvZ6C2sS/T2iVG564NKLmxKizoSbAuRBXa2trUUgXcof7GnPOszy5G1Y0l2NCn6fiIaLQb0GuKkoRWVlZi48aN6OgY4Mmwr01H6rgLOKs/CyVz2oF9KsPcvHmzXnY060cpknFZbbJsf9c6L8n2NutsK4B6s29zVYveF+0YNO/Q25KtBt6y9+9Qr249X/BxQh67fZ96Jivz3fHuPmw3zxd6HeWUo908V39JZpWyulqFuhi1+1F7YzYyp6oQu8cfOk6ysIpqlb2p50uRJdRVKcFq1a5qPT+s3hd8Pcn27Mc726WrMzygyXmG5paVwKwy1bsyzbaIaGsPoBl13QJ35l3l4edNRBSjQRlo4/f7ddZYX19vWgbAqRa0XvAhLdiFGUAr8oNZ5PkDVkBqqXoZrddbWadkXakfv6wDZnqhnWnZ2apaCq18NdoxyFim23JmODJWk+Wm/43KXD9u0a8pWv4QgG/OApXvWQKHzuJm83yzPqs3QVsF81fsdrUsAupNIB1MnY21yJivAs+0bOShFn5nJlZWC6yXLK0NjRXNeNaRkdWtCSBbZ3BtOlt79aC0TkHB01abPmZxrcniMnF3BRwBrQn+snVYaZfmksCsXj07rOtWfWXZnQGftEmAnhtAXkWutctpmg8ZuyPOm4goBoMSFMeOHYvVq1cjJyfHtCROMEN7pRWp9zq7XX242e5qvXYBli+XgNSBjs/GIfVbdmhKQvr143D+dE9hpy/HKJK5qrDcortzW3D0s1mY77jmOO6m+eZcHc/XfDQ8U33LukrYX5lrVECK+RqblY35dEHkKche7AxcSunK4DXGKUu3htWXzK24W4U6i7ym3e2pM1WTKWatqbMalSlZeaGM7qAfzY7je2RfN2wrRrZpCqe+2iwxq0REcRjwoDhv3jw888wzWLhwoWlJrFCG5hx44gVJWDBnPFo/sIIdHFlipM6z1iAibUaO+XnMooP5IJIMbXcdSuaGglhdf7oiVQArVBlglZ0pOjO7aQVYeaOV0TU1IJQlRiXBbhMKHQNpAm2hIBviyCiJiOIwYEHx0ksvRXFxMdavX49Jk6yiv0MvCUnXXLACldaChkMXMH6yM+ycR0fYYJ1YjlFHuWWOGWkY/3EL9v0Bjm7dSCqLPGEyUfV434n3Ez5YKJ5ritJ1iorGYHenDGZZt1vy135YIp3SogmvOjJFkanS59rGavhVzheWJbp13erMNRe5i7OtrLe9Gs+W5SIvKyKYyrXG4GsSEcVuQILixYsX9QCb/Px80+Id6YU5GH/oZTOQpR7nb7rPcStFOubfBBx+xXRfmgEwPR9jrh8G9zsHx6Qj7ZrDOIw0R7eu5YLj+bDIznLTsWzR+NDrqyVssM6Ak67TOmT4nEEmE9mlm+DX1wf7YPbdKEcJsnT3qR++yGuAs7ORsaYEkGuYYayu25Lfht91OGXp48jbk2V1x84tQcbr3W8Zafqtej47cBIRxcFDVTKi3yMoozVrkN/PexCHgoxarVGZUnjXbv9+HvfntPTtPsshpbK9VT8DHne95ul+n2KP7OuNvE+RiPpgUAbaxM4eZNL9VgQ7sxrczKmv7Fs4XsbZOYm61hl6TusGficJhrLPvoF/GJBgqLO9AFZGDWAyclXuRYxjRps7gCoGRCLqI9ZTJCIiMjyWKRIREQ0dBkUiIiKDQZGIiMhgUCQiItKA/w/q9j9bU+f+2QAAAABJRU5ErkJggg==;" vertex="1" parent="1">
          <mxGeometry x="653.5" y="1658" width="453" height="212" as="geometry" />
        </mxCell>
        <mxCell id="b_LKB6QUHwTkPTV8HH8e-86" value="" style="shape=image;verticalLabelPosition=bottom;labelBackgroundColor=default;verticalAlign=top;aspect=fixed;imageAspect=0;image=data:image/png,iVBORw0KGgoAAAANSUhEUgAAAYcAAAEVCAYAAAALsCk2AAAAAXNSR0IArs4c6QAAAARnQU1BAACxjwv8YQUAAAAJcEhZcwAADsMAAA7DAcdvqGQAAABhaVRYdFNuaXBNZXRhZGF0YQAAAAAAeyJjbGlwUG9pbnRzIjpbeyJ4IjowLCJ5IjowfSx7IngiOjM5MSwieSI6MH0seyJ4IjozOTEsInkiOjI3N30seyJ4IjowLCJ5IjoyNzd9XX2q2ixWAABD+UlEQVR4Xu3dDXBUVZo38L+vDgwfgkCIgNskoYYxbrIg2Q1uMlAOQiBIJBhw/EIHKRaJiQkG6l1rC9SFra3dVwwk4gQVGVxZP3YgEgwmEAWtuM1K1oawyRIHyyT0mkASQLAyLrNs9Xuec8/tvt33dtLd6Xx08vysK33P7Y+bJpznfNx7nptcAhhjjDGD/6P+ZIwxxtw4ODDGGDPh4MAYY8yEgwNjjDETDg6BaC3DupwytKvdLp3aidhih9phjLHIFLbg4ChagpdsassuR6sq7wlHcSxiY3eif6taB3amVGDxpkxMVCUyAMTSuanNGDhm5aIUWVh3KKBQwhhjA5LpUtZLly6pR9bGjx+Pm266Se0preUomu3EXGc2klCLt21/g+937kF+5u3qCaEQlXKOE6mLKmC37ULuLFXcxyhAvRFbg11L3aFBCw7VqWjKS1IFvsS5x74B24ldyJysihhjLIKYeg6dnZ148skn8fjjj5u2l19+2RwYyOQM5MvAQCZhYgZwpemC3NNQZRkbXGv6lB11i1KRZEvEtmpD30EO25ShLEdvues9i3ZRtg5lhzytevfn0bCQKjOXG3sm9B6x2HlK7Yoj9sKNWGsMDAFJwsPFQEUN9x4YY5HJFBymTp2K7OxstedBQcGq3KS1BufKgXGxk1RBaBzVdVicLCrlWanYWGg3VOBCYQWwqQlNTU2oKa7DG+6gU4n8JtGiF+VNTaVIzPtAe93kTOySZbTVYPGRzSijcS9RvrZgG+x6MGi1owJFeFjvpYgAta1ABCi166Uwyx1sPMHEY6IIapVH7IHNUzDG2ABjOeeQkZGBOXPmqD3NunXrEBMTo/b8uYiPt5TgSkY2fuU1pJSEXFExew3NdIla7ImwySGZJKQaK3BSsNY9XDNx6S7D+6aj6CG9KqfPzFUVu9Zz0SrzZOQfloVS0tyN7p5Je00FEtcY5hb8mZWrAo3YThSh7kHRY/GdZJlkE2fDGGORye+ENPUSRo8eLR+npqYiMzNTPvZPBIbs1TiJbDxdkoEeDbVTi138l6Uq9KxCeA8tBclRnCV6AKXunkPREnWAzHoYRV9Tz6Qd9qbFnl5DoCanYrHx/XQXnKi809Z9oGGMsQHIb3CYMGGCDBAjR46UvYbuOIpEYCjPwFLLwBDcnIOjehs2fqgPA2mt8/SvnT0aokmPtWkPTn3g1XMQfQ+kLqqD/ZAdzthU78rcakjLl3w/vZfj0e6s83wmY4xFGL/BgcyfP18GiOjoaFXih6MEh7bRg3Ic0i9ntZV0Xan6RUNK6bAZpyyodY4K2EO8PjbpoSIgL1kbVqq2efcchInJi1GXVwEbzXF40Ya0PHMamvZD69QQldgeBErdw1c6Bz7IgzZnwhhjEYhXZSVdXpoa/GWplpe/MsZYBOmy5zDo6Tez7bahxu89C0nIPSH6LX8X+B3SWSjlwMAYi2jcc2CMMWYytHsOjDHGLHFwYIwxZsLBgTHGmAkHB8YixIl0z0UTxsc6qzKj7o4zZhSW4DCg5rQvHseePcfRpna7VHcAO0rr1Q7rG5fQsDkJNUe7Xv2XmaVUOtwVvPExocdU5osDAgtVWILD5cuX8fzzz6O5uVmVBMBR4sn/YNuAj8ORAAL1OPBeI+KWzIPntr02HN+zAzt2aNuBOlVMEpcjDVXY81lAocRNyzOhbb6L7nUczcOJzQfRofZ1VB7OCrF5dxLO+Ilr/s4hNMFW5mdwRlRIVCmF5Rzqt+PE7jNqZ+iS36eq6AN5HBp/f9fGtcn6O78K6ythG1Y6ffq0XGajrKxMlXSB8j9kliOu7DBech7G0o0NOLml5wmC6kurcPXuDMwzrvlXV43GaY9h/fr1WL/ABucnB0QI8UjISsPY0+U4flEVBEhf3qO/8kwMJN6BbwZmiBZsyr4XcIsq8TYB8VsdSF44Qe1rKNhZBqCEJzGu+VME0ewYtKhn0N1mxSqAGMu6py2cSSsdb1QlbPAL65wDDS+VlJRgy5YtaGvz3xpvPXkcV5CBP5O/mxdxoUH8UX4cp9zRIYT8D6LKbzhvwz2/9FnqQ/QOVutlifEwr3aUgLl3A41ng+s9+BN1RxwQMw1Rah8dB1Ej/hGeK/wCNwrT1D/KPDToTWp1XCvfripBrQXnaTFrrXFZeVJLWjxu2Q90bvB9ncZ0Dj0yASNigOF3eFfmOqrUz1Xfhzifyt6SOnfafANBzJoq3FqdZhEgJiBqbiPaLAJH827xPR71/56DiV7x6z+r1UaMAYLKfAOHcV8v8+j675oNMXQTXE91dHS4Fi1a5LU9+OCDrqNHj6pnePtqx/2uF9d95GpxXXAdXne/a+/Bj1w7/kT8+ZV6gusr16sxMa6ny9rUfgD+Y79r+4E6teMHPeetY66LatfNX7kfXxXFuF51qJ0AtR951nXySIfa09W6ahcVuprUnquu0GXf9KGrXe50uM5uetZ1VuxYvbbpzVmu2m5+3N5G52B/s1bt+Wj/0HXS/bN4s/4uNNbv6fM9KfK5+mfQ51k8ZyiwL5qlHnkEWhYc+nf5qvg/Gwp65WolWuo7JycHaWlpqsTaqaLVOJe+B7+erQrcgs3/EACaqP7kKmZ6zUcoE8djjHrYp+o/RSfeQYve+tvwjjpAJiA+/z78sDKIlnmf0Xo2bVOrkLJmhioLj5g1DkzBKp/5ihmYUtCIqxZzLKMeWab1kKKmYbgsGVr03oEvqzLGghH24EBJgl5//XW5oqs/k2PjgfISnItVeaZbnbiCeEzsURKILlBgeK8WYxes9p6P0LVfxrXbos1Boy+s2OvVzU/Zqio73YonMEo9HDi0eYPo82lhnyymYaoWiO/E53uISroP198P1yR75NGHjnw3q2NGvuW++4z5E7bgcPPNNyM3NxebNm2SuSC6Mnn2PIwTf95m02pqR3U5kDEPs9zBIYQ5B5pPON/gNdmsoSuYKDCsx/JEVeSjreMqxozv/YXybpz/Tj1SEuZj1P7dnvkHL2dwZuUx3LrsOUyZewznLCrh698FO8aurjopDk+r0rqVH6pueiNRyxAdswUtQ/TKY68GhNq6Ktf5lvvuM+ZPWIJDZ2ennIim9KIBmZyB/LIMNGZql7Ie2uYvSVAwEhA/1YkvfS5LpSuYnOJP5yeey1m9L12tR/VpIO6u3u03RC1cIwKBqEhlq02fkJ6BGa/E4cpKT2tOm1SlinIVrhe8iHjRfI5a+CLGNYvXGgJEzLIXAPcEt/eEtH82iK8b6GHiJCMKENNF8GrUJ4P1CfaVW3CjZgvO0WN13vISW7FvnJzXL8dt3p2GH+ZWma5iMqKfeSj3HhjrS4NsVVbRS9jxJcY/6mf4yEJ96Q58Of4xzxVNAaD7HOxzI/MyVjp3WlLcOnfFQEdBMw1/fMSBGQmqaAij4BpMDyDY55tRz9OOVFNyKzYYDb4lu2l+4TCQsdpi4tkX3SH9+3iszwquppEVbKH2mO53iIgg0VqGdSn5qKRc2hEZGJiOKnmdv8re+JzudB8wKChkQSZ7xEaLzIdsMOJ8Dowxxkx65VJWxhhjkY2DA2OMMRMODowxxkw4ODDGGDMJS3AYUHPanM+BMcZ6LCzBIaR8DkJr2QZ5E9zbYbtZc+Dmc+hL/ZvPoTf4Owd1x7fcOM8AY+EUtmGloPI5CI6iJXg9l9bqDh/O5zDUcJ4BxnpLWOccaHgpkHwOlOynuiEbT5/MlmssmYWwtpKo8gdkPgeBWvJnjhryNhiWwaCF5mSZ3PRlMCh/w3ackcc8OQs8LWetJa2/zjcjXF/kc/CfS8H73Dw9mG5+Jsu8FjrOM8BYX+uVCWm73S57EVVVVarEB62t1OO1lHzUNcA5NV5U9V2g54wZD98l9qKjxuLat/WBzVN0J+E5y4XjOgsbEV1JC57t9Vpsj9YmojtU5fYK0OIOHO/g+tQqTFnxBa5Ux2H6K0+4F+6jdYhoCQntdXuBDfpaTYqfcwgVnaN5uQp1XnQO+2idp39SFbq2Yqv+M3mtu+T3Z6JFBvXvR2z0PfgMi1mfA2Ost/RKcAg0n4N/gy+fwy0FT0I0foU7MCxZPpD0xejk5pXP4QlEq0Xo3DkLpDO46pUFbhU61ZG+5i+XgrE3RIvsefj5mbrMa8EY6w9hDw6B5HPocwM1n0PHQTQWAuP26S3mJ9SB7jyBKXorW27FcvXWAaF+O1r2e85vesEcdaAb3eW1YIz1qbAFh2DyOXQvhDmHCMjnYC0OI2QteAkN7wfSYp6BsSvescyp3D11dU+Y8jn4lRynEhSdQYtXz8GPLvNaMMb6Q1iCQ9D5HFCLt21L8NLsElwRe1peh5IeXoo4sPM5WKIENqKi14ZT/haYG1jPIWbNXgx353IQW8CXrYY/n4NJwpMYB5XHIf1TDAuo5+AvrwVjrL9wPgfO5zAIUI+I8wwwFk69MiHdfxKw/NE4NB4O/A7pKqQFFRh02x60vgluwKJ8DuJ8B1dg0G+C03MNMMbChfM5MMYYMxlkPQfGGGPhwMGBMcaYCQcHxhhjJjznwEJGl5zSDWtGVmX+0HN9GV8bzHsRq/fTBfM+jLEwBQd6i5tuuknt9TO6G/owkLHaYpkMX5TP4ffxWJ/Fi/YEy1/FbVXur9LursI2vpfVe1h9TqDnxBjrWliGlULJ50BLdlMuB7lll6NVlffMwM3nQOXhvLGL1i/yXY1V19v5HPSKmv7UNyPfcr1ipj+Nj41838OX/lrje1gxfra+WQn33wfrRr3VCr7d0VbyDS5LDOs5+t6TwjfnEFQ+B1qye1sGljoP4yXn3yOuvAT/UhZkQgULnM+h71hV1PQP36qc0L5eURsfE/11OtrXjxsf63yfb0TlvpuVqIVrMLy6OkwBdAijSt+wBL1ftFKw+LuwXGuL3sOyMTMDUwoacdVPI4j1rrBOSNPwUkD5HGjJbme2upt1EiZmAFeaLsg9zSDK56DyFNDqpDfcS14Ylti2zGOgciK4/9FpkVy2uFQLrMVrZVbv1lVf5HPw1VWFrZ2jubL391h/H6vKnZ7j73OI/j7GzdoMjI3Zghbfiof+PnYfNOSk4JarP7KHugGYYlwe3tBDCPi7E4GDlnY/ZxEgopLuw/X3zeX+84mwnqOVo0UQpzmHnuro6HAtWrTIa3vwwQddR48eVc/oQstHrh1/cr9rx8ELqoB85Xo1Jsb1dFmb2g/Af+x3bT9Qp3b8oOe8dcx1Ue26+Sv346uiGNerDrUToPYjz7pOHulQe7paV+2iQleT2nPVFbrsmz50tcudDtfZTc+6zoodq9c2vTnLVdvNj9tb7ItmqUca477V466eb9Td+xB/rw1J+4euk+7vW6Ey8Rn6d0vfs/nvjdHvpOd3VZHfnb/fZ431vwOFnm98vWL1u05l7vf2/VwWFr1yKWvg+Rwu4uMtJbiSkY1fZRrHggZfPgdLXeYxmID4/Pvww0rR66i+D3EqD8JA4WkderfMqVXvr8z4fOO+vgXSIzA+ttrvbvNCCx/GHEOHb7M0+QVMUdcojJoa4JLjQwjNd507v8a8rPrFRtxYMV/lLRFotd2axsDzjdDQEyV6MvashZhlL+D6CfPQlb98Iiw8wh4cAs/nIAJD9mqcRDaeDndWOF8DNZ8D6S6PwYon1PLXA4vxnANhfK7xtcZNR5W4vq8/Nj6nq/1Ayo1iUuJw5WAAY+bMjbLyTZ+6O4wXPSg0JEXDVL75SaLm4tZmXtK9r4UtOASbz8FRJAJDeQaWWgaGwZnPQU/z6dZlHgNKnXkMty57DlNoPNZi0u/6d8GOs/ZNPgerStjI2JLXNyN6vW9ZIHxfY3x/v+9HS4xzxRO0qIXF2jyBcV7h9jjcsv9T937H0d3odOf26Jqcv3if0s4+5+l5uIle9CMcxPtaWIJD0PkcHCU4JJfRLMch/XLWQZ7Pga6OGbV/laqo9G6zvzwGNCG9CtcLXpQtqKiFL4oKTLzWECCoqw33BHegk6Z9kM+hC3SueuDQW/L+AokeIPwdD4TxM/y/D1c8oaIA4ZX3PGoZ4goa3cOk5wrjMEX1hGXlL8s8F2a4L8UWPQYaOp3eVfY/DuJ9T809DBJ1rv3b33IdM85td6PuwHbXW8cDnYrWhDIhPVDQuccUfaX2QkOTwr6bFWO573MCfa3V66z4Pt/f86zRhQHa5D8buOQk+Ju1ao/1tsG3fEYf3CEtE+YUao/pfoeIuNeB8jmk5KOyoOf5HHxb9Fb7RC/Tj+vlxOr5RH+e73Hj643HiNXz/fF9LWPMGq+txBhjzKRXLmVljDEW2Tg4MMYYM+HgwBhjzISDA2OMMRMODr2BrgzKKQvsXoJTO3v9pjTGGAtWPwWHWrztvvktHDfAabQ8CzvD8l6hc2BnSgUWb8qE+55rCgAq/4MpB8SsXJQiK8gVaBljrHf1+FLWS5e6XsJh/Pjx3WSJo0DxN2jc+Pd4KX+mKguFqJRznEhdVAG7bVe/3XtAAeqN2Br/iwbK+w2cWNuUq5YsJ7SsxRuwndiFzF5dZIoxxgLT454DLZ3x5JNP4vHHHzdtL7/8csDpQ8fFTlKPSAhrK52yo25RKpJsidhWbeg7yGGbMpTl6C13vWfRLsrWoeyQp1Xv/jyqwFWZudzYM6H3MPYEHLAXbsTarlaTveBE5RKbT16JJDxcDFTUcO+BMTYw9Dg4TJ06FdnZ2WrPg4KCVbmbo0QNKYleg2nJ7uA5quuwOFlUyrNSsbHQbqjAhcIKYJOWua2muA5vuINOJfKbUmV5U1MpEvM+0F43ORO7ZBltNVh8ZDPKKI+pKF9bsA12PRi02lGBIjys91JEgNpWIAKU2jVqP7ROCzYP1qHIOOSkTBRBrfKIvV/WPGKMMV9hmXOgBfdoqW4jShkaE2NeX9EtKRsvyTShezAbJXjdK490sPkcqMWeCJsckklCqrECJwVr3cM1E5fuMrxvOooe0qty+kx9qEetXiq3ZOQfloVS0tyN7p5Je00FEteYK3or9Lky2JxYjIoU0WPxTZo9ySbOhjHGBoawTUhTL4GS/JDU1FRkZmbKx927HbPS44FypyE4BIla7OK/LFWh07pHXkNLQXIUZ4keQKm751BEK5nqZj2Moq+pZ9IOe9NiT68hUJNTsXhJJZzGrKiEhpvutAUUaBhjrLeFLThQDgcKECNHjpS9hsDV4mhug+h+2Ax5HYKbc3BUb3Mn/Nda50VI7+Gy1Omxalbg1AdePQfRB0DqojrYD9nhjE31rsythrR80VDU4Y1I9Qkq7c46z2cyxlg/C1twIJT9jQJEdHQ366G2lqPIfRmrNucQejY4GlJKh804n02tc1TAHmJXJOmhIiAvWRtWqrZ59xyEicmLUZdXARvNcXjRhrQ8cxoa93wDbaYrlYgDH+RBmzNhjLEBgFdlDQVdAVWd6mfp6+AvS+328lfGGOtjYe05DHr6zWy7bajxmxMhCbk06fx3gd8hnYVSDgyMsQGFew6MMcZMuOfAGGPMhIMDY4wxEw4OjDHGTDg4MMYYM+HgwBhjzCRygoN7oT7aNuDjkNfa0DTvTsKJ3WeA+u04kb4dzaqcdBzNw5l6enAQNZsPokMrluUnaJ/K0/PQoB9gjLFBJjKCA91RnVmOuDJaqO8wlm5swMktxoX6QnPL1DvUIz8uNuJGzDREqV3Jd58xxgahiAgOrSeP4woy8GfyvrOLuNAg/ig/jlPu6BBC/gfd7XG4JTkOo+TOGZxJT8K5wi/QuUH0LDa8A+xfpfUW5HElahqGIw4jOEowxgapiLgJzlG0BIcaaP2lZJzKXo329Gx8n1uC20RP4tcyYFBwyEJdcXiWoGjenYcflxUjypGHRryI5IUT1BHGGBsaImpC+lTRapxL34Nfz1YFbsHmf+jKJfzY7OkVDL+DAwNjbOiJiOAwOZbyPZTgXOwe5FPGuFYnriAeE0NbxtU/OTmdhis176DFMLxUc7TrPNmMMTbYREZwmD0P48Sft9m0VKKO6nIgYx5muYNDD+YcjBKeQ0rlXoxKfgHTK6swLnkOxu1z8LASY2zIiYxhpckZyC/LQGOmdinroW0ZWBpy/odudHyL6+oheNKZMTZE8aqsjDHGTCJqQpoxxljf4ODAGGPMhIMDY4wxEw4OjDHGTDg4MMYYM+HgwBhjzISDQz9zLwOu9hljbCCIqODQWrZB3gT3tkMV9IC/fA5UWQe7XEZXr6HPkbkhep22oix9lvtnY4yxEEVMcKCVWV/PpbW6w6fbfA59IGphMVK2LgtTjog5GKatMMIYYz0SGcGhtRzVtGT3yWy5xpJZuPI56KplK/wEbcYWuOxlqHKf7HF+X0O+o8xx2jFPD0Nr6cvnWwwryda/6TWC1zlYZ6MbNXXOgAh8jLEIRstnRIyWj1w7/uR+196v1L7bV65XY2JcT5e1qf3QtR951mVf9KzrbDvt1bpq9cftH7pOLip0NVExqSt02Td96JKH5Gv0Yx2us5tmuWrr5I6r6c1Z7ud5vZ+O3td9XEPvd/JIh9ozvh899nk9Y4z1gkEyIR3OfA7ALQUvIl6O89yBYcmySEsZumI+YtQuEuZjVE0jOtXuLQVPqmMTEDV3Dq5/52ntj3pEHzaagbErvsAfL8odPy6ho/oL3ChMU70DWkJcHRLvPSLmC1xZ2VfzGIyxoYqvVuoFnee/8JMkiBIJBTIvoC0VnlLp2WYkaEdi1mj7Y09oQ0scJBhjvWGQBIcw5XPoCs1N7P/UcFXTbnSa5irIGVzd7ycAdFTjh5rulgGnngdw5WDXVxtRkJhe4N1DYYyxcImQJbtr8bbtb9Co9jQZWOrMhkwhHcYc0nRZqidv9CU0bP5bIL9YDjPRMcoOp3kCUyqfk0NJ3uXAqFc8LX2aWG7Zrz3WegTae6HjIGpWbsEN7YBmxV6krJkhHtDnGoeT9M+iSexV7qEs4zkwxlg4cT4HxhhjJjznwBhjzISDA2OMMRMODowxxkw4ODDGGDPh4MAYY8yEgwNjjDETDg4DQWsZ1uWUIaBb+E7tRGxxGNYsZ4yxLkRMcKAluymXg9yyy9GqynvCURyL2Nid6N+q1oGdKRVYvCkT7tv3KADE0rlp285TqpzMykUpsnr3bnDG2JDX5zfBXbrU9XIP48ePx0033aT2lNZyFM12Yq68I1q7W/r7nXuQn9mT5AWiUs5xInVRBey2XcidpYr7GAWoN2K7uLObehUpTqxtylV3gxO6I/wN2E7sQuZkVcQYY2HU5z2Hzs5OPPnkk3j88cdN28svv2wODGRyBvLdS2VMwsQM4ErTBbmnCWFtpVN21C1KRZItEduqDX0HOWxThrIcveWu9yzaRdk6lB3ytOrdn0cVuCozlxt7JvQexp6AA/bCjVjb1ZIfF5yoXGKDTe1qkvBwMVBRw70Hxljv6PPgMHXqVGRnZ6s9DwoKVuUmrTU4Vw6Mi52kCkLjqK7D4mRRKc9KxcZCu6ECFworgE1NaGpqQk1xHd5wB51K5DelyvKmplIk5n2gvW5yJnbJMtpqsPjIZpTRuJcoX1uwDXY9GLTaUYEiPKz3UkSA2lYgApTaNWo/tE4LNg/Wocg45KRMFEGt8og9sHkKxhgLUr/MOWRkZGDOnDlqT7Nu3TrExHS3hNxFfLylBFcysvErryGlYPM5UIs9ETY5JJOEVGMFTgrWuodrJi7dZXjfdBQ9pFfl9Jn6UI/Wc9F6DsnIPywLpaS5G909k/aaCiSuMVf0VuhzZbA5sRgVKaLH4jvJMskmzoYxxnpHv01IUy9h9OjR8nFqaioyMzPlY/9EYMhejZPIxtMlGejRUDu12MV/WapCzyqE99BSkBzFWaIHUOruORQtUQfIrIdR9DX1TNphb1rs6TUEanIqFi+phNM4ikZouOlOW0CBhjHGgtVvwWHChAkyQIwcOVL2GrrjKBKBoTwDSy0DQ3BzDo7qbdj4oT4MRK3zIqR/7ezREE16rJoVOPWBV89B9AGQuqgO9kN2OGNTvStzqyEtXzQUdXgjUn2CSruzzvOZjDEWZv0WHMj8+fNlgIiOjlYlfjhKcGgbPSjHIf1yVltJ15WqXzSklA6bccqCWueogD3E62OTHioC8pK1YaVqm3fPQZiYvBh1eRWw0RyHF21IyzOnoXHPN9BmulKJOPBBHrQ5E8YY6wWcz6Ev0BVQ1aloyrOaeg7+stRuL39ljLEe6teew6Cn38y224Yay8BAkpBLk85/F/gd0lko5cDAGOtV3HNgjDFmwj0HxhhjJhwcGGOMmXBwYIwxZsLBgTHGmElEBIcBNWd+8Tj27DmONrXbpboD2FFar3ZY37iEhs1JqDna9eq/jLGuRURwuHz5Mp5//nk0NzerkgA4Sjz5H2wb8HE4EkCgHgfea0Tcknnw3LbXhuN7dmDHDm07UKeKSeJypKEKez4LKJS4aXkmtM0rl4PQcTQPJzYfRIfa11F5OCvE5t1JOOMnrvk7h9AEW5mfwZn0JJygrdfPwbhmVn/n/WCsb0XMsNLp06flMhtlZWWqpAuU/yGzHHFlh/GS8zCWbmzAyS09TxBUX1qFq3dnYJ5xzb+6ajROewzr16/H+gU2OD85IEKIR0JWGsaeLsfxi6ogQPryHv2VZ2Ig8Q58MzCj0oGUfS/gFlXibQLitzqQvHCC2tdQsAs+eGoLOtIKvBtVCWNDRUTNOdDwUklJCbZs2YK2Nv+t8daTx3EFGfgzed/ZRVxoEH+UH8cpd3QIIf+DqPIbzttwzy99lvoQvYPVellivE/eBZKAuXcDjWeD6z34E3VHHBAzDVFqHx0HUSNa0ecKv8CNwjStRZ2ehwa9Sa2Oa+XbofW9tJbyid1n5J7eGpeVZ/12+dyW/UDnBt/XaUzn0CMTMCIGGH6Hd2Wuo0r9XPV9iPOp7C2pc6fNNxDErKnCrdVpfgJE1+fA2FAUkRPSdrtd9iKqqqpUibfWJhENMmyYrFZybU/Pxjg0oL0nXYe6Bjinxouqvgv0nDHjTSulRkeNxbVv6wObp+hOwnNIWTND7QhRy5AsWtLTC+bgloIqpFCrurIY8bLmFpX+ykZEyzKxvQK0yKEYal1XYVzzbhlEOo7uxnXxWtnapvcXz52yAhj1inpd5XPwWkzd9xx6KGaNAzMsvlgKDC3Yi5StywILROrc6bsw03oU0edFAHUHRQ9/58DYUBWRwYGW+s7JyUFaWpoqsXaqaDXOpe/Br2erArdg8z8EgCaqP7mKmV7zEcrE8RijHvap+k/RiXfQolrTJza8ow4QUVnm34cfVgbRMu8zWs+mbaoIdmEMQoSCwBSsCuN8BWODU8QFB0oS9Prrr8sVXf2ZHBsPlJfgXKzKM93qxBXEY2KPkkB0gQLDe7UYu2C193yErv0yrt0WbQ4afWGFaHnrPQfafFvhK57AKPVw4Oi6ld8TQfdGGBuiIiY43HzzzcjNzcWmTZtkLoiuTJ49D+PEn7fZtJraUV0OZMzDLHdwCGHOgeYTzjd4TTZr6AomCgzrsTxRFflo67iKMeN7f6G8G+e/U4+UhPkYtV8bOjKjIadjuHXZc5gy9xjOWVTC178LdgJXXd1THJ7resLbyu+93ghjg1FELLx3/vx5+Sflnw4YXcqaKYKClIGlzmxDTgSqxLJQVxzcstf1pTvw5fjHPBPQApVVaafnNuZu43NE8NjxJcY/6qdXYYEuZbXPDfZKJZpUXoVO+XgOxu1T8w40SWsYTqJ5ieSFEBVlGn6Yq+YZZMWZhisxokWtV5w0kb1yC27InScwxXfewVI7ynKSkY8i1LwWWDrUQNDVSo14UTtXr/NSqHckzpueRxPzRjRvQnMJ1GOgwOB7FVNg6PfFjlRTXg3GBi9elTUowVf0VgGlO6EFh4GBzp2WFLfOXRGpODiwoSciJ6T7TwKWPxqHxsOB3yFdhbSgAoNu24PWN8ENWK1lWCfOd3AFBjVMJnqZMhEhY0MI9xwYY4yZcM+BMcaYCQcHxhhjJhwcGGOMmXBwYIwxZhIRwWFAzZlzPgfG2BAQEcEhpHwOQmvZBpnP4e2wLcQ/cPM59KX+zeegsT4HuglP/+7WoSwsOTwYG5oiZlgpqHwOgqNoCV7PpbW6w4fzOQx0E5H5Gn1vNRB//YyxHoioOQcaXgoknwMl+6luyMbTJ2mpbivazU2DIp+DQK3oM0cNeRsM6yTRshF6jgNPXgZaamM7zshjeWg4quVB8LTeVb4H9TrfjHB9mc/Bn/CeA2PMV0ROSHeXzwGTM5BfkoGwLsI6UPM5KJ2Fet6GvV6L7dHide4VWSmfgztwvIPrU6swZcUXuFIdh+mvPOFeuK95dxr++Ij+ur3ABkPyINJH+Ry6FOZzYIx5i8jgEGg+B/8GXz6HWwqeVAvj3YFhyfKBJMfm9Z6DVz6HJxCtFqEb9Yhx+eozuOqVBU5fzI8xNpREXHAIJJ9Dnxuo+Rw6DqKxEBi3T+85PKEOdIdWYdV7DrTpmeUYY0NFxASHYPI5dC+EOYcIyOdgLQ4jZMV+CQ3vG3sO/szA2BXvoC3Iq4c0aqG6MOVzkMtzi95LsFcyMcZ6LiKCQ2dnp5yIzsjIUCXdqcXbtiV4aXYJroi9xkzx2FYiqq6eSED8VCe+9Lksla5gcoo/nZ94Lmf1vnS1HtWnRRV9V5/3G2R+6WhR0WtpQv8WmBtYzyFmzV4ML0zzDEcFfNmqDeJrB752IpipfsbYwMOrsgaF8zl0Z2Dkc6D7HTYDm3Yhs7dSwzI2yEXkhHT/4XwOfg2IfA76TXDJyD+sihhjIeGeA2OMMRPuOTDGGDPh4MAYY8yEgwNjjDETDg6MMcZMIiI4DKg5c87nELnqaYFBffFBxlhXIiI4hJLPgZbsplwOcssuR3iW9h+4+RyoPJx3EtNqrr6rser8nUNoQsvnoPM6T1n5azfuheO7CPd3ygLh7/dB3X0vt509vKGVBSJihpWCyudAS3Zvy8BS52G85Px7xJWX4F/KgkyoYIHzOfQPv5V0x0G0Nb+AKfqKrrRSa6UD0wvmqAIf8vhzaoFCRS7RYd2biFq4BsOrq8MUBFnPaItlNjWVYqMqYb0rouYcaHgpoHwOtGS3M1v8OpFJmJgBXGm6IPc0gyifg1p/6FzhF7jhXvLCsMS2Oq6V65WgytfgXr6b8juo1ppqfbd4rczqXXn2ZT4H6hmcq74PcWoFWaPmg1sw3GtFWX+M+Sl8AkHUMiTTUuaWAWIGxsZsQYtvD4q+090H/b8n64HQ8nuw8IvICelu8zkYtdbgXDkwLnaSKgjRQM3nQJWbai3fUlDls4qqqPRX6nkexEaVoBwOmoD4rVUY16zlfeg4uhvXxWuTqQJWre8pK4BRr+irsvq0tsOcS8FfPgcKDC3Yi5StVgGAlhZ/AmMDygNBPy/9HHsxSpV4oZ9nXxzajEFViVn2Aq6/bzGEtn+LO+fFlJAXKmRWQsrvwcIuIoND4PkcLuLjLSW4kpGNX2Uax4IGXz4HS/WfohP6wnti88rnICrM/Pvww0r/LfP+o7X026aKYOcnCGkBTc9hEQYUZPdp34fXXAstXhhzDB2+0SHZM5w1aqqfYSzGIljEBYfA8zmIwJC9GieRjafDnRXO10DN50BWiJa33nOgzbcVvuIJ69Z0v9Ja+tHn07xSnnqcQUthnDtZUVjQUNHKY7h1n7nVGpMShysHrc6DscErYoJDsPkcHEUiMJRnYKllYBic+Rz0NJ9uCfO9UoZ6oyEnURkuew5T5h7DOYtK+Pp3wQ6VhDefAw0vTMEq85VR1CNaMT98vQaaZ5HDb36SGiU86R6CY2yoiIjgEHQ+B0cJDm2jB+U4pF/OOsjzOdCVNaP2i4pUDiHpY+czMOMV0epdqU+c6pcI0rDNKlwveFFWhlELXxSVn3itIUDQWDvcE9yBTriGP58DBYjpIng1usf0xbm/34hxy8zDTfISW3G+xsl5bYhIm3DXUp6qYTY94FCPYQMwxXdexYvoyTzCvQc2tPCqrEHhfA7d6fV8DtTKPzE/rBPigaEAsxvD9nHK1P5FvVM7Upty1dWIrLdE5IR0/+F8Dn71VT6HMF8pFTjRC+Nc2v1IvwkuC3JQgPU67jkwxhgz4Z4DY4wxEw4OjDHGTDg4MMYYM+HgwBhjzISDA2OMMZNBebXSHzv/Gyf3foQrTm0l1tS1WZgw7Q75uDec//f/xPkv6zF71QMYNuqnsuyHtss4+duPcPdDC8L02bX4zQIHtqs9PJCEc/kz1Q5jjIXXoOw5UAU9J+chGRQGj5l45pOncE5u6Sj8xoHffKUOMcZYmA3q+xwuffsd7G+UmnoOZyv+Fd98ri2m8bN7k3DX4l/gf//nBmoPHMNPfjoMbV834w9XrrmPEeNryMhxY5CYeS/qyj6XzzWizxs2eoTsOUyZ8TP367zPg27qyUJdcU0Iq8NSL+IsbPsewQM9XImcMcasDLk5BxoC+vFqJ+7fmo1Fm/9KBJAWWaajwDD7qQdkRd5y5hs5PERBhh7/suBx+ZpxtklyuOj2+FjM/+tfY+aK+bKMjj3wD896BSL9syjQNJ+sl0EoZBc+R86C32L6Agfqc+/lwMAY6zVDKjhQxdzxzX/hu9Nf4+PNJTiy9U33vISOWvq3Ro9Xex7DR4/E8FEj1V7gYmYn4Oaf3KL2jELIKTHpXrymhpXSP61EzsHwZMZmjDFfQ/JqJWrFUwtf36b+xZ+qI9ZuvV1bIpyCCW0jJ4zFbbYAV97rFZPxl/NH4GhzeFKPMsaYryEVHKgFP2LsKPdwUaAunP1WBgQaHqJgkvTIQj+9gWCEkFPCrRX/9umPeG4OX63EGOsdgzI4UMX/6T++LSejCf35xWu/k5e4/nzBPRgXMxmfFf4zPnr+VbnRnEJXJt01DX+4dFUORemvoQlqHR0n1KsI5P1C4p5voK0SzlVP4Zk/V8cYYyzMeFXWAFAgoInlmcvvkz0Gq/saGGNsMOHgEAD9klgj38tjGWNsMOHgwBhjzGRIXq3EGGOsaxwcGGOMmXBwYIwxZsLBgTHGmElEBAeeM2fhQzcf7hT/D0Qwz2VscImIq5UuXbqEl19+GdnZ2YiJiVGl3anHgR1VcMrHNqStX44E+Rho+2wP3j2traQ65u7HsPqX0fJxfekOVJ2XDyXjsdDQOTQg3vDZgaDzaPj5eixPVAW9og3H97yLWvk1jMHMR1djnntFEP/fXajaD61Dch5QdGIXMierwj7XjrKcZDjXNCF3lioSHMWxyCrUHm/80PsYTu1E7G4bal7LRLBr5zIWySJmWOn06dNYt24dysrKVEkgqGJbj/UWlRtV/OvFMd/K37aAni+2R2eKDy3H8YvqwKATjXmr6Wd9DDPHqCK3BCyX31ua+AbDoR32I4ko/TARFTWhLBcSHu2HNiP/zlKvyp+CVhZK0dTUJLZS4EHxO2Zcz3BWLkrvzMfmkJY5YSxyRdScA3VySkpKsGXLFrS19fKic7cnIG7MNVyWdQK1pA/guOhx7NixQ24H6uSzBGqBa2W07flMOy9q/e+QrW8nqtSxHaX18pi/16DugNyn3ovzE/34AfHp2vu5n0fouXuOi3fSekIHPjuOPer9PJ8jXDSUq/fqKWppx+aUiSo/QK12VNyZiqRJItQcsXteR63y4jLRmhfvF0ubZwiHKu11h8rk+lPymPvzqPWvP99YTkNA3hU7nadn7SoKUKLn8lCS2ic+Za1O1KHSFMCSHiryPm/GhoCInJC22+2yF1FVVaVKesHFejResyHePbTjRCMy3L2Kqye1irm+9F00TtN6IdQKj/v2XRk4ErL0lrfeexFbltZ/8fcaJC6XZWlTDT0Y1etJ+IXoyXxbLz+T1P/eCdvseaL9r3Gevox71PvN/L5KBS8R1N7Ty8W2AKhSAaUvtddUIHGuqIAnp2IxKmA3tswLK4BN1GpvQk1xHd4wtNAr85xIlS36Jtl6/+AUlU5E5mtamXzNogrVqk/Cw8UwVOwO2As3Yq2+JDoFKPHpqV5DWiJ0H06EjcooUKU4sbg4XTtkNNmGxMM+583YIBeRwWH06NHIyclBWlqaKgkfd4v9vUbEPWocjrLhHn0I6vZ5WL2aKuY2tH0/BnF36VV0NBKmjcHVjq6q31BeI1BPRoSnejnMVY+G72dirmFOYszdc9W5Gt6vrsG75/KJNovQU0l5omIOeAxea53bZGKiiUhdZKzAhYK17jmIiUt3eeW3SC9+WFT5GvpMfThI9lxUzyE5r1IrFCYmL/a08E/ZUWd4fZf0eYWmXKSqIm8ixC9RDxkbIiIuOMyZMwevv/465s+fr0rCy9NiN07QDgTRmDd7LBrPapU+DL0GX+2XDWlLp6apn0dtMqj1IWqxH65EfoqnMq/syRCNqMizRI+gVO85GFv6kzOx9k6the+ohqfX4BdV+tuQZZhwdjZ5go2HoYfB2BARMcHh5ptvRm5uLjZt2oQJE7TkO/0vGtG3XdMqbKke1aevYWyUsfq9ijavSe1AXiNeZdWTSIzH2G/rcfz3MAx3+RK9ivOqZyKebzv/Zdgn1YOZc6AhJRTXuIeBaNJ342Hqz/TAEhqsIw58YOg5kCTRnaqoKYNd9AG8eg1WQ1qyJ5OO9EWpWi+otQxvFKZjcbJPUKG5CPdnMjY0RERw6OzslBPRGRkZqmTgSMhKw9jT76oJ3ypcvfsxwyWoCZh7N1D7nhrWURPFXb9GzS+4jxsnkRMQf1stahFvGO7SXDO8HxbovZ4ELF8w1vP5YvOa1O51NKRUiUSbsbJNQmrBNtjl/EEIZj2MIuQjWQ4r2WHznSOYlYrEvHyA5ji8aENa+b/zvmth4tKtWHwkWRumSslH4ofmS20dvxPvpwcQxoYKus9hcKpz7d++X/zf7OLxt1xvHb+o9iLJRdext95yHbugdpWe/TzW76nx/x0OWC0HXU8/c9DVpna9tbkOPhPjetWhdgPheNUV4/f9GBu8InJCOnD6ZKz5Ek69pd23LelQ6Ze+vovLs8M1F+J5T+1GOCO6dJeO6TfCRYDWMqyTrX8n1vqdLKcrnehehiDukH4QKOUb4NgQxPkcGGOMmQzyngNjjLFQcHBgjDFmwsGBMcaYCQcHxhhjJhwcGGOMmUTE1Up/7PxvnNz7Ea44L8j91LVZmDDtDvm4N5z/9//E+S/rMXvVAxg26qey7Ie2yzj5249w90MLwvTZtfjNAge2qz08kIRz+TPVDmOM9a+I6DlQBT0n5yEZFAaPmXjmk6dwTm7pKPzGgd98pQ4xxlg/i6j7HC59+x3sb5Saeg5nK/4V33yu3db0s3uTcNfiX+B//+cGag8cw09+OgxtXzfjD1euuY8R42vIyHFjkJh5L+rKPpfPNaLPGzZ6hOw5TJnxM/frvM+D8glkoa64xmtl0cBQL+IsbPsewQNy9VLGGOtfET/nQENAP17txP1bs7Fo81+JANIiy3QUGGY/9YCsyFvOfCOHhyjI0ONfFjwuXzPONkkOF90eH4v5f/1rzFwxX5bRsQf+4VmvQKR/FgWa5pP1MgiF7MLnyFnwW0xf4EB97r0cGBhjA0ZEBweqmDu++S98d/prfLy5BEe2vumel9BRS//W6PFqz2P46JEYPmqk2gtczOwE3PyTW9SeURJym5qC6zVMuhevqWGl9E8rkXOQs8kwxgaGQXG1ErXiqYWvb1P/4k/VEWu33q4t+U3BhLaRE8biNlt/Jm+YjL+cPwJHmyNhnSfG2FAQ0cGBWvAjxo5yDxcF6sLZb2VAoOEhCiZJjyz00xsIBs05GHMWB6MV//bpj3huDl+txBgbGCIiOFDF/+k/vi0nown9+cVrv5OXuP58wT0YFzMZnxX+Mz56/lW50ZxCVybdNQ1/uHRVDkXpr6EJah0dJ9SrCOT9QuKeb6CtEs5VT+GZP1fHGGOsnw3JVVkpENDE8szl98keg9V9DYwxNpQNyeCgXxJr5Ht5LGOMDWWcz4ExxpjJoLhaiTHGWHhxcGCMMWbCwYExxpgJBwfGGGMm/RIceA6chQ/dfLhT/D8QwTyXsaGtX65WunTpEl5++WVkZ2cjJiZGlXanHgd2VMEpH9uQtn45EuRjoO2zPXj3tLaS6pi7H8PqX0bLx/WlO1B1Xj6UjMdCQ+fQgHjDZweCzqPh5+uxPFEV9Io2HN/zLmrl1zAGMx9djXnuFUH8f3ehaj+0Dsl5QNGJXcicrAr7XDvKcpLhXNOE3FmqSHAUxyKrUHu88UPvYzi1E7G7bah5LRPBrp3L2FDSb8NKp0+fxrp161BWVqZKAkEV23qst6jcqOJfL475Vv62BfR8sT06U3xoOY5fVAcGnWjMW00/62OYOUYVuSVgufze0sQ3GA7tsB9JROmHiaioCWW5kPBoP7QZ+XeWelX+FLSyUIqmpiaxlQIPit8x43qGs3JRemc+Noe0zAljQ0e/zjlQp6WkpARbtmxBW1svLzp3ewLixlzDZVknUEv6AI6LHseOHTvkdqBOPkugFrhWRtuez7Tzotb/Dtn6dqJKHdtRWi+P+XsN6g7Ifeq9OD/Rjx8Qn669n/t5hJ6757h4J60ndOCz49ij3s/zOcJFQ7l6r56ilnZsTpmo8gPUakfFnalImiRCzRG753XUKi8uE6158X6xtHmGcKjSXneoTK4/JY+5P49a//rzjeU0BORdsdN5etauogAlei4PJal94lPW6kQdKk0BLOmhIu/zZoyZDIgJabvdLnsRVVVVqqQXXKxH4zUb4t1DO040IsPdq7h6UquY60vfReM0rRdCrfC4b9+VgSMhS295670XsWVp/Rd/r0HiclmWNtXQg1G9noRfiJ7Mt/XyM0n9752wzZ4n2v8a5+nLuEe938zvq1TwEkHtPb1cbAuAKhVQ+lJ7TQUS54oKeHIqFqMCdmPLvLAC2ESt9ibUFNfhDUMLvTLPiVTZom+SrfcPTlHpRGS+ppXJ1yyqUK36JDxcDEPF7oC9cCPW6kuiU4ASn57qNaQlQvfhRNiojAJVihOLi9O1Q0aTbUg87HPejDEvAyI4jB49Gjk5OUhLS1Ml4eNusb/XiLhHjcNRNtyjD0HdPg+rV1PF3Ia278cg7i69io5GwrQxuNrRVfUbymsE6smI8FQvh7nq0fD9TMw1zEmMuXuuOlfD+9U1ePdcPtFmEXoqKU9UzAGPwWutc5tMTDQRqYuMFbhQsNY9BzFx6S6v/BbpxQ+LKl9Dn6kPB8mei+o5JOdVaoXCxOTFnhb+KTvqDK/vkj6v0JSLVFXkTYT4JeohY8xSvweHOXPm4PXXX8f8+fNVSXh5WuzGCdqBIBrzZo9F41mt0oeh1+Cr/bIhbenUNPXzqE0GtT5ELfbDlchP8VTmlT0ZohEVeZboEZTqPQdjS39yJtbeqbXwHdXw9Br8okp/G7IME87OJk+w8TD0MBhjlvotONx8883Izc3Fpk2bMGGClnyn/0Uj+rZrWoUt1aP69DWMjTJWv1fR5jWpHchrxKusehKJ8Rj7bT2O/x6G4S5foldxXvVMxPNt578M+6R6MHMONKSE4hr3MBBN+m48TP2ZHlhCg3XEgQ8MPQeSJLpTFTVlsIs+gFevwWpIS/Zk0pG+KFXrBbWW4Y3CdCxO9gkqNBfh/kzGmJV+CQ6dnZ1yIjojI0OVDBwJWWkYe/pdNeFbhat3P2a4BDUBc+8Gat9Twzpqorjr16j5Bfdx4yRyAuJvq0Ut4g3DXZprhvfDAr3Xk4DlC8Z6Pl9sXpPavY6GlCqRaDNWtklILdgGu5w/CMGsh1GEfCTLYSU7bL5zBLNSkZiXD9AchxdtSCv/d953LUxcuhWLjyRrw1Qp+Uj80HypreN34v30AMIYs0b3OUSGOtf+7fvF/80uHn/L9dbxi2ovklx0HXvrLdexC2pX6dnPY/2eGv/f4YDVctD19DMHXW1q11ub6+AzMa5XHWo3EI5XXTF+348xphsQE9KB0ydjzZdw6i3tvm1Jh0q/9PVdXJ4drrkQz3tqN8IZ0aW7dEy/ES4CtJZhnWz9O7HW72Q5XelE9zIEcYf0g0Ap3wDHWLc4nwNjjDGTCOs5MMYY6wscHBhjjJlwcGCMMWbCwYExxphJWILDgJrTpoXpAl1viBa7My5qx9gg1HE0Dyc2H0SH2mcsEGEJDpcvX8bzzz+P5uZmVRKoWrxtW4KXbBvwcVgWQaOF6RoRt8S4pIT3iqme1VeFxOVIQ1XQl78a1wLa6XPzl79/iFRec/SS2uu55t1JOOMnroW3MriEhs1JIZ97V+fpoX3GiXTatiPQ36Jwf6eR4wzOGL4n+fctv7tAvuvu0N9FHhoGdCTx9ztJK/nq/zY5qVNPhW1YKZT8DI6iv0FjRjzGqf2eqi+lu5MzvO8bqKv2rJi6wAbnJ973SGh3Nwef54GSyNDyEV6JZIYov5V0x0G0Nb+AKb63f5tMQPxWB1Iq92KUKnET71HjJ2BELVyD4dXVg7RF7L+S7ji6G9cLnoSeJitqYbH47hyYskIV+JDHty5DlNqX6rf7aUCIv4tH4vCDIxKDbhJy9SVdVAkLXVjnHGh4KeD8DI4SHNoWj9l/NU8VGGktAM/a/YGgNYgMK63qRO/AnQCI1ibSHhloS2J41kbqmag74oCYaZ5/iLJyS8K5wi9wozBNtfAM/+jVce9Ws2pJ7z4j97SWomop0T9q8bhlP9C5wfd1GtM59MgEjBC10PA7rNe/op7Buer7ELfQfLz54BYMf8RYKRl7CAH2RqKWIfkVoMUyQMzA2JgtaPFtLdN3uvug4bOsg8vARX/fafhh7ouIN/0lnkFLYRyiLb5vM+33Rn4HvoEg4TlMn3sM56wCRMJ8DC/8J9N3Ro2AM0cNv6/u38++1vXvJAuPXpmQ7j4/w0V8/GY5xu38v7g/XCtj0nLWU+NNaxR5oeeMGW+6OzY6aiyuGXIr9Ij4R5eyZobaEahyE6266QVzcEtBlWzhpVQWq3/04h/vykZEyzKxUSUo/7FSS7oK45p3yyCitRSrkEwVAr2/aiWOekW9rvI5dytS8j2HHopZ48AMiy+WAkML9ppbpdIZXN3/BMYaXte8myo8/Tuowq3VaYENg9DPsy8ObcagqsQsewHX37eo4PZvwR8f0b6fKSveQVvEDD9Rhb4KEH+38u/bV/2n6Fwx3/vv268ZmEHf9b4XcIsqMZI9ikcacc4UPGdgSkGj5XfWWaj/vope3n7t97M/+PudZOHTK8Ghu/wMrWX/DyfLMzA309+6EVr30JgLoMdoovqTq5jpNR+hTBwPU2bNvkD/0PGOaBWrltiGd9QBIgJE/n34YaX/lnn/0XoAbVNFRe8nCPkOfdBrfmyeg1uT9J9jAqLmzsH17wKstCnI7tO+D6+AIsqjY46hw7eSSvYMZ42aOkd7MNDJXuRuDNvnr+IT3/v7jRi3LHyBXwZe2TPzDrz+huxucf+d3oFhyfIBG6TCHhwCyc9wqrJB/L8ch2gyenYJrqABJ2cvwdu9NYNEgeG9Wox1r27qo/0yrt0WbQ4afWGFaHnLlpjafFvhK54wj8P3O22OIPp8mp+hhWCGPgJEFefKY7jVouKMSYnDlYP9NcQRRrKXuQZ/9A2Auvp/wpWYNRZDTT1Aw5QbgCnu3qzOz5AdGzLCFhyCyc9wf8lhvORU28lsjEM8Zp88jF+7V2UOYc5B5jpoMC3IJ377cUAGhvVey2gbtXVcxZjxvb8U243z36lHSsL8LrrmNOQkKsNlz2EKjQ1bVMIBt7rd1NUcxeGJwtS1n4JV5vFsy6EPGif+wjDRSQHki8DGjakCk8NvvhWYkvCkewgu8tFQ0F5gg3lOpvnEOxiVEr5eg7zK6f04TPcdllT8DtmxISEswWFg5GdIQPxUJ770uSyVrmCilUg9Cf59V26l5DwwpPnsHdRNH7VfVKRyCEnvwouK4BXR6hUtRa1crxBo2GYVrhdoE5JRC18UlZ94rSFA0D9cuCe4A51wVekxv3aGnrnNBwUImthsdFdk/oc+YtbsxXD3OdPPV6V6AfrE6SrPMJsecKjHIFu21hWYRrvCZlD0HiQKEDQn87eegCe+B39XftHcD32nnosU1O+XHKYS+yu34EbNFpyjx/rvkAi4NFw53XK+SJFDdtx7GKoG2aqstDT1lxj/aODLYNeX7sCX4x/zXNEUALrPwT43Mi9jpXPPQima8gLKxhw8auWfmB/WCfHAUICh8Xo/vYsIRwHgako/TMLS3yf1LroKIgMO9ZDtSG3KDSznOLM0+JbspvmFw0BGILmV6Q7p38djfVZw/+JkBVuoPab7HSIiSFB+hJR8VBb0YmBgrF9RUMjCNvmY8pJzcOgJzufAGGPMpFcuZWWMMRbZODgwxhgz4eDAGGPMhIMDY4wxEw4OjDHGTPrlaqU/dv43Tu79CFecF+R+6tosTJh2h3zcG87/+3/i/Jf1mL3qAQwb9VNZ9kPbZZz87Ue4+6EFYfrsWvxmgQPb1R4wAoX7HsEDk9QuY4xFkH7pOVAFPSfnIRkUBpdo/MsnT+Gc3DgwMMYiV7/e53Dp2+9gf6PU1HM4W/Gv+OZzbf2fn92bhLsW/wL/+z83UHvgGH7y02Fo+7oZf7hyzX2MGF9DRo4bg8TMe1FX9rl8rhF93rDRI2TPYcqMn7lf530e2g01dcU1Aa4OSz2H/0LKJ0vA+X8YY5FuwM050BDQj1c7cf/WbCza/FcigLTIMh0FhtlPPSAr8pYz38jhIQoy9PiXBY/L14yzTZLDRbfHx2L+X/8aM1fMl2V07IF/eNYrEOmfRYGm+WS9DEKha8OvFvwW02krqlVljDEWeQZUcKCKueOb/8J3p7/Gx5tLcGTrm+55CR219G+NHq/2PIaPHonho0aqvcDFzE7AzT+xSoUSbE6JmXjGPaSUjsJvHMg5GJbE2Iwx1ucG5NVK1IqnFr6+Tf2LP1VHrN16u7bsMwUT2kZOGIvbbAGuvNcrJuMv549QjxljLPIMqOBALfgRY0e5h4sCdeHstzIg0PAQBZOkRxb66Q0EI4ScEm61+N3OH5FgC1cOVMYY61v9Ehyo4v/0H9+Wk9GE/vzitd/JS1x/vuAejIuZjM8K/xkfPf+q3GhOoSuT7pqGP1y6Koei9NfQBLWOjhPqVQTyfiG58Dly9PmGBQ7gH5/CM3+ujjHGWIQZFKuyUiCgieWZy++TPQar+xoYY4wFblAEB/2SWCPfy2MZY4wFjvM5MMYYMxmQVysxxhjrXxwcGGOMmXBwYIwxZsLBgTHGmA/g/wNRO730JEhB/gAAAABJRU5ErkJggg==;" vertex="1" parent="1">
          <mxGeometry x="660" y="1870" width="391" height="277" as="geometry" />
        </mxCell>
      </root>
    </mxGraphModel>
  </diagram>
</mxfile>
